<ttFont>
    <TTGlyph name="A" xMin="-43" yMin="-114" xMax="557" yMax="750">
      <contour>
        <pt x="412" y="0" on="1"/>
        <pt x="412" y="363" on="1"/>
        <pt x="371" y="380" on="0"/>
        <pt x="307" y="395" on="0"/>
        <pt x="275" y="398" on="1"/>
        <pt x="263" y="352" on="0"/>
        <pt x="245" y="257" on="0"/>
        <pt x="233" y="164" on="0"/>
        <pt x="227" y="76" on="0"/>
        <pt x="227" y="39" on="1"/>
        <pt x="227" y="-3" on="0"/>
        <pt x="234" y="-57" on="0"/>
        <pt x="245" y="-90" on="0"/>
        <pt x="258" y="-108" on="0"/>
        <pt x="263" y="-114" on="1"/>
        <pt x="238" y="-114" on="0"/>
        <pt x="181" y="-108" on="0"/>
        <pt x="132" y="-75" on="0"/>
        <pt x="100" y="-7" on="0"/>
        <pt x="100" y="56" on="1"/>
        <pt x="100" y="89" on="0"/>
        <pt x="110" y="169" on="0"/>
        <pt x="128" y="258" on="0"/>
        <pt x="155" y="353" on="0"/>
        <pt x="172" y="400" on="1"/>
        <pt x="124" y="397" on="0"/>
        <pt x="66" y="373" on="0"/>
        <pt x="61" y="347" on="1"/>
        <pt x="66" y="347" on="0"/>
        <pt x="82" y="322" on="0"/>
        <pt x="82" y="310" on="1"/>
        <pt x="82" y="295" on="0"/>
        <pt x="54" y="277" on="0"/>
        <pt x="33" y="277" on="1"/>
        <pt x="4" y="277" on="0"/>
        <pt x="-43" y="313" on="0"/>
        <pt x="-43" y="348" on="1"/>
        <pt x="-43" y="396" on="0"/>
        <pt x="55" y="458" on="0"/>
        <pt x="135" y="458" on="1"/>
        <pt x="159" y="458" on="0"/>
        <pt x="194" y="455" on="1"/>
        <pt x="219" y="515" on="0"/>
        <pt x="281" y="622" on="0"/>
        <pt x="353" y="703" on="0"/>
        <pt x="433" y="750" on="0"/>
        <pt x="477" y="750" on="1"/>
        <pt x="492" y="750" on="0"/>
        <pt x="537" y="744" on="0"/>
        <pt x="557" y="736" on="1"/>
        <pt x="557" y="0" on="1"/>
      </contour>
      <contour>
        <pt x="412" y="678" on="1"/>
        <pt x="374" y="653" on="0"/>
        <pt x="310" y="525" on="0"/>
        <pt x="287" y="441" on="1"/>
        <pt x="318" y="435" on="0"/>
        <pt x="381" y="418" on="0"/>
        <pt x="412" y="407" on="1"/>
      </contour>
    </TTGlyph>
    <TTGlyph name="A.salt" xMin="27" yMin="-114" xMax="484" yMax="751">
      <contour>
        <pt x="340" y="0" on="1"/>
        <pt x="340" y="366" on="1"/>
        <pt x="185" y="366" on="1"/>
        <pt x="168" y="286" on="0"/>
        <pt x="152" y="128" on="0"/>
        <pt x="152" y="63" on="1"/>
        <pt x="152" y="16" on="0"/>
        <pt x="160" y="-47" on="0"/>
        <pt x="171" y="-87" on="0"/>
        <pt x="185" y="-108" on="0"/>
        <pt x="191" y="-114" on="1"/>
        <pt x="161" y="-113" on="0"/>
        <pt x="103" y="-103" on="0"/>
        <pt x="56" y="-71" on="0"/>
        <pt x="27" y="-7" on="0"/>
        <pt x="27" y="50" on="1"/>
        <pt x="27" y="105" on="0"/>
        <pt x="53" y="251" on="0"/>
        <pt x="100" y="407" on="0"/>
        <pt x="167" y="558" on="0"/>
        <pt x="250" y="678" on="0"/>
        <pt x="348" y="751" on="0"/>
        <pt x="402" y="751" on="1"/>
        <pt x="419" y="751" on="0"/>
        <pt x="464" y="744" on="0"/>
        <pt x="484" y="737" on="1"/>
        <pt x="484" y="0" on="1"/>
      </contour>
      <contour>
        <pt x="340" y="418" on="1"/>
        <pt x="340" y="682" on="1"/>
        <pt x="316" y="669" on="0"/>
        <pt x="274" y="618" on="0"/>
        <pt x="239" y="549" on="0"/>
        <pt x="209" y="464" on="0"/>
        <pt x="197" y="418" on="1"/>
      </contour>
    </TTGlyph>
    <TTGlyph name="AE" xMin="10" yMin="-113" xMax="833" yMax="751">
      <contour>
        <pt x="466" y="0" on="1"/>
        <pt x="466" y="363" on="1"/>
        <pt x="426" y="380" on="0"/>
        <pt x="360" y="396" on="0"/>
        <pt x="328" y="399" on="1"/>
        <pt x="305" y="307" on="0"/>
        <pt x="280" y="118" on="0"/>
        <pt x="280" y="43" on="1"/>
        <pt x="280" y="-19" on="0"/>
        <pt x="290" y="-78" on="0"/>
        <pt x="303" y="-102" on="0"/>
        <pt x="315" y="-107" on="0"/>
        <pt x="317" y="-113" on="1"/>
        <pt x="284" y="-111" on="0"/>
        <pt x="225" y="-104" on="0"/>
        <pt x="180" y="-72" on="0"/>
        <pt x="153" y="-7" on="0"/>
        <pt x="153" y="53" on="1"/>
        <pt x="153" y="86" on="0"/>
        <pt x="163" y="167" on="0"/>
        <pt x="181" y="257" on="0"/>
        <pt x="208" y="352" on="0"/>
        <pt x="226" y="400" on="1"/>
        <pt x="179" y="397" on="0"/>
        <pt x="120" y="375" on="0"/>
        <pt x="115" y="347" on="1"/>
        <pt x="120" y="347" on="0"/>
        <pt x="135" y="322" on="0"/>
        <pt x="135" y="310" on="1"/>
        <pt x="135" y="296" on="0"/>
        <pt x="111" y="277" on="0"/>
        <pt x="82" y="277" on="1"/>
        <pt x="56" y="277" on="0"/>
        <pt x="10" y="313" on="0"/>
        <pt x="10" y="351" on="1"/>
        <pt x="10" y="372" on="0"/>
        <pt x="37" y="410" on="0"/>
        <pt x="83" y="438" on="0"/>
        <pt x="146" y="455" on="0"/>
        <pt x="182" y="455" on="1"/>
        <pt x="211" y="455" on="0"/>
        <pt x="246" y="452" on="1"/>
        <pt x="271" y="512" on="0"/>
        <pt x="334" y="621" on="0"/>
        <pt x="405" y="703" on="0"/>
        <pt x="484" y="751" on="0"/>
        <pt x="527" y="751" on="1"/>
        <pt x="569" y="751" on="0"/>
        <pt x="658" y="731" on="0"/>
        <pt x="711" y="731" on="1"/>
        <pt x="737" y="731" on="0"/>
        <pt x="793" y="739" on="0"/>
        <pt x="824" y="750" on="1"/>
        <pt x="822" y="734" on="0"/>
        <pt x="819" y="695" on="0"/>
        <pt x="804" y="662" on="0"/>
        <pt x="772" y="640" on="0"/>
        <pt x="741" y="640" on="1"/>
        <pt x="703" y="640" on="0"/>
        <pt x="641" y="661" on="0"/>
        <pt x="610" y="672" on="1"/>
        <pt x="610" y="419" on="1"/>
        <pt x="765" y="419" on="1"/>
        <pt x="760" y="345" on="1"/>
        <pt x="610" y="345" on="1"/>
        <pt x="610" y="106" on="1"/>
        <pt x="833" y="106" on="1"/>
        <pt x="833" y="0" on="1"/>
      </contour>
      <contour>
        <pt x="466" y="679" on="1"/>
        <pt x="427" y="653" on="0"/>
        <pt x="363" y="524" on="0"/>
        <pt x="339" y="440" on="1"/>
        <pt x="371" y="434" on="0"/>
        <pt x="435" y="418" on="0"/>
        <pt x="466" y="407" on="1"/>
      </contour>
    </TTGlyph>
    <TTGlyph name="Aacute" xMin="-43" yMin="-114" xMax="557" yMax="1000">
      <contour>
        <pt x="412" y="0" on="1"/>
        <pt x="412" y="363" on="1"/>
        <pt x="371" y="380" on="0"/>
        <pt x="307" y="395" on="0"/>
        <pt x="275" y="398" on="1"/>
        <pt x="263" y="352" on="0"/>
        <pt x="245" y="257" on="0"/>
        <pt x="233" y="164" on="0"/>
        <pt x="227" y="76" on="0"/>
        <pt x="227" y="39" on="1"/>
        <pt x="227" y="-3" on="0"/>
        <pt x="234" y="-57" on="0"/>
        <pt x="245" y="-90" on="0"/>
        <pt x="258" y="-108" on="0"/>
        <pt x="263" y="-114" on="1"/>
        <pt x="238" y="-114" on="0"/>
        <pt x="181" y="-108" on="0"/>
        <pt x="132" y="-75" on="0"/>
        <pt x="100" y="-7" on="0"/>
        <pt x="100" y="56" on="1"/>
        <pt x="100" y="89" on="0"/>
        <pt x="110" y="169" on="0"/>
        <pt x="128" y="258" on="0"/>
        <pt x="155" y="353" on="0"/>
        <pt x="172" y="400" on="1"/>
        <pt x="124" y="397" on="0"/>
        <pt x="66" y="373" on="0"/>
        <pt x="61" y="347" on="1"/>
        <pt x="66" y="347" on="0"/>
        <pt x="82" y="322" on="0"/>
        <pt x="82" y="310" on="1"/>
        <pt x="82" y="295" on="0"/>
        <pt x="54" y="277" on="0"/>
        <pt x="33" y="277" on="1"/>
        <pt x="4" y="277" on="0"/>
        <pt x="-43" y="313" on="0"/>
        <pt x="-43" y="348" on="1"/>
        <pt x="-43" y="396" on="0"/>
        <pt x="55" y="458" on="0"/>
        <pt x="135" y="458" on="1"/>
        <pt x="159" y="458" on="0"/>
        <pt x="194" y="455" on="1"/>
        <pt x="219" y="515" on="0"/>
        <pt x="281" y="622" on="0"/>
        <pt x="353" y="703" on="0"/>
        <pt x="433" y="750" on="0"/>
        <pt x="477" y="750" on="1"/>
        <pt x="492" y="750" on="0"/>
        <pt x="537" y="744" on="0"/>
        <pt x="557" y="736" on="1"/>
        <pt x="557" y="0" on="1"/>
      </contour>
      <contour>
        <pt x="412" y="678" on="1"/>
        <pt x="374" y="653" on="0"/>
        <pt x="310" y="525" on="0"/>
        <pt x="287" y="441" on="1"/>
        <pt x="318" y="435" on="0"/>
        <pt x="381" y="418" on="0"/>
        <pt x="412" y="407" on="1"/>
      </contour>
      <contour>
        <pt x="448" y="1000" on="1"/>
        <pt x="553" y="1000" on="1"/>
        <pt x="472" y="811" on="1"/>
        <pt x="397" y="811" on="1"/>
      </contour>
    </TTGlyph>
    <TTGlyph name="Acircumflex" xMin="-43" yMin="-114" xMax="572" yMax="1000">
      <contour>
        <pt x="412" y="0" on="1"/>
        <pt x="412" y="363" on="1"/>
        <pt x="371" y="380" on="0"/>
        <pt x="307" y="395" on="0"/>
        <pt x="275" y="398" on="1"/>
        <pt x="263" y="352" on="0"/>
        <pt x="245" y="257" on="0"/>
        <pt x="233" y="164" on="0"/>
        <pt x="227" y="76" on="0"/>
        <pt x="227" y="39" on="1"/>
        <pt x="227" y="-3" on="0"/>
        <pt x="234" y="-57" on="0"/>
        <pt x="245" y="-90" on="0"/>
        <pt x="258" y="-108" on="0"/>
        <pt x="263" y="-114" on="1"/>
        <pt x="238" y="-114" on="0"/>
        <pt x="181" y="-108" on="0"/>
        <pt x="132" y="-75" on="0"/>
        <pt x="100" y="-7" on="0"/>
        <pt x="100" y="56" on="1"/>
        <pt x="100" y="89" on="0"/>
        <pt x="110" y="169" on="0"/>
        <pt x="128" y="258" on="0"/>
        <pt x="155" y="353" on="0"/>
        <pt x="172" y="400" on="1"/>
        <pt x="124" y="397" on="0"/>
        <pt x="66" y="373" on="0"/>
        <pt x="61" y="347" on="1"/>
        <pt x="66" y="347" on="0"/>
        <pt x="82" y="322" on="0"/>
        <pt x="82" y="310" on="1"/>
        <pt x="82" y="295" on="0"/>
        <pt x="54" y="277" on="0"/>
        <pt x="33" y="277" on="1"/>
        <pt x="4" y="277" on="0"/>
        <pt x="-43" y="313" on="0"/>
        <pt x="-43" y="348" on="1"/>
        <pt x="-43" y="396" on="0"/>
        <pt x="55" y="458" on="0"/>
        <pt x="135" y="458" on="1"/>
        <pt x="159" y="458" on="0"/>
        <pt x="194" y="455" on="1"/>
        <pt x="219" y="515" on="0"/>
        <pt x="281" y="622" on="0"/>
        <pt x="353" y="703" on="0"/>
        <pt x="433" y="750" on="0"/>
        <pt x="477" y="750" on="1"/>
        <pt x="492" y="750" on="0"/>
        <pt x="537" y="744" on="0"/>
        <pt x="557" y="736" on="1"/>
        <pt x="557" y="0" on="1"/>
      </contour>
      <contour>
        <pt x="540" y="811" on="1"/>
        <pt x="463" y="891" on="1"/>
        <pt x="323" y="811" on="1"/>
        <pt x="279" y="811" on="1"/>
        <pt x="451" y="1000" on="1"/>
        <pt x="472" y="1000" on="1"/>
        <pt x="572" y="811" on="1"/>
      </contour>
      <contour>
        <pt x="412" y="678" on="1"/>
        <pt x="374" y="653" on="0"/>
        <pt x="310" y="525" on="0"/>
        <pt x="287" y="441" on="1"/>
        <pt x="318" y="435" on="0"/>
        <pt x="381" y="418" on="0"/>
        <pt x="412" y="407" on="1"/>
      </contour>
    </TTGlyph>
    <TTGlyph name="Adieresis" xMin="-43" yMin="-114" xMax="611" yMax="945">
      <contour>
        <pt x="412" y="0" on="1"/>
        <pt x="412" y="363" on="1"/>
        <pt x="371" y="380" on="0"/>
        <pt x="307" y="395" on="0"/>
        <pt x="275" y="398" on="1"/>
        <pt x="263" y="352" on="0"/>
        <pt x="245" y="257" on="0"/>
        <pt x="233" y="164" on="0"/>
        <pt x="227" y="76" on="0"/>
        <pt x="227" y="39" on="1"/>
        <pt x="227" y="-3" on="0"/>
        <pt x="234" y="-57" on="0"/>
        <pt x="245" y="-90" on="0"/>
        <pt x="258" y="-108" on="0"/>
        <pt x="263" y="-114" on="1"/>
        <pt x="238" y="-114" on="0"/>
        <pt x="181" y="-108" on="0"/>
        <pt x="132" y="-75" on="0"/>
        <pt x="100" y="-7" on="0"/>
        <pt x="100" y="56" on="1"/>
        <pt x="100" y="89" on="0"/>
        <pt x="110" y="169" on="0"/>
        <pt x="128" y="258" on="0"/>
        <pt x="155" y="353" on="0"/>
        <pt x="172" y="400" on="1"/>
        <pt x="124" y="397" on="0"/>
        <pt x="66" y="373" on="0"/>
        <pt x="61" y="347" on="1"/>
        <pt x="66" y="347" on="0"/>
        <pt x="82" y="322" on="0"/>
        <pt x="82" y="310" on="1"/>
        <pt x="82" y="295" on="0"/>
        <pt x="54" y="277" on="0"/>
        <pt x="33" y="277" on="1"/>
        <pt x="4" y="277" on="0"/>
        <pt x="-43" y="313" on="0"/>
        <pt x="-43" y="348" on="1"/>
        <pt x="-43" y="396" on="0"/>
        <pt x="55" y="458" on="0"/>
        <pt x="135" y="458" on="1"/>
        <pt x="159" y="458" on="0"/>
        <pt x="194" y="455" on="1"/>
        <pt x="219" y="515" on="0"/>
        <pt x="281" y="622" on="0"/>
        <pt x="353" y="703" on="0"/>
        <pt x="433" y="750" on="0"/>
        <pt x="477" y="750" on="1"/>
        <pt x="492" y="750" on="0"/>
        <pt x="537" y="744" on="0"/>
        <pt x="557" y="736" on="1"/>
        <pt x="557" y="0" on="1"/>
      </contour>
      <contour>
        <pt x="412" y="678" on="1"/>
        <pt x="374" y="653" on="0"/>
        <pt x="310" y="525" on="0"/>
        <pt x="287" y="441" on="1"/>
        <pt x="318" y="435" on="0"/>
        <pt x="381" y="418" on="0"/>
        <pt x="412" y="407" on="1"/>
      </contour>
      <contour>
        <pt x="489" y="884" on="1"/>
        <pt x="489" y="909" on="0"/>
        <pt x="524" y="945" on="0"/>
        <pt x="550" y="945" on="1"/>
        <pt x="575" y="945" on="0"/>
        <pt x="611" y="909" on="0"/>
        <pt x="611" y="884" on="1"/>
        <pt x="611" y="858" on="0"/>
        <pt x="575" y="823" on="0"/>
        <pt x="550" y="823" on="1"/>
        <pt x="524" y="823" on="0"/>
        <pt x="489" y="858" on="0"/>
      </contour>
      <contour>
        <pt x="309" y="884" on="1"/>
        <pt x="309" y="909" on="0"/>
        <pt x="344" y="945" on="0"/>
        <pt x="370" y="945" on="1"/>
        <pt x="395" y="945" on="0"/>
        <pt x="431" y="909" on="0"/>
        <pt x="431" y="884" on="1"/>
        <pt x="431" y="858" on="0"/>
        <pt x="395" y="823" on="0"/>
        <pt x="370" y="823" on="1"/>
        <pt x="344" y="823" on="0"/>
        <pt x="309" y="858" on="0"/>
      </contour>
    </TTGlyph>
    <TTGlyph name="Agrave" xMin="-43" yMin="-114" xMax="557" yMax="1000">
      <contour>
        <pt x="412" y="0" on="1"/>
        <pt x="412" y="363" on="1"/>
        <pt x="371" y="380" on="0"/>
        <pt x="307" y="395" on="0"/>
        <pt x="275" y="398" on="1"/>
        <pt x="263" y="352" on="0"/>
        <pt x="245" y="257" on="0"/>
        <pt x="233" y="164" on="0"/>
        <pt x="227" y="76" on="0"/>
        <pt x="227" y="39" on="1"/>
        <pt x="227" y="-3" on="0"/>
        <pt x="234" y="-57" on="0"/>
        <pt x="245" y="-90" on="0"/>
        <pt x="258" y="-108" on="0"/>
        <pt x="263" y="-114" on="1"/>
        <pt x="238" y="-114" on="0"/>
        <pt x="181" y="-108" on="0"/>
        <pt x="132" y="-75" on="0"/>
        <pt x="100" y="-7" on="0"/>
        <pt x="100" y="56" on="1"/>
        <pt x="100" y="89" on="0"/>
        <pt x="110" y="169" on="0"/>
        <pt x="128" y="258" on="0"/>
        <pt x="155" y="353" on="0"/>
        <pt x="172" y="400" on="1"/>
        <pt x="124" y="397" on="0"/>
        <pt x="66" y="373" on="0"/>
        <pt x="61" y="347" on="1"/>
        <pt x="66" y="347" on="0"/>
        <pt x="82" y="322" on="0"/>
        <pt x="82" y="310" on="1"/>
        <pt x="82" y="295" on="0"/>
        <pt x="54" y="277" on="0"/>
        <pt x="33" y="277" on="1"/>
        <pt x="4" y="277" on="0"/>
        <pt x="-43" y="313" on="0"/>
        <pt x="-43" y="348" on="1"/>
        <pt x="-43" y="396" on="0"/>
        <pt x="55" y="458" on="0"/>
        <pt x="135" y="458" on="1"/>
        <pt x="159" y="458" on="0"/>
        <pt x="194" y="455" on="1"/>
        <pt x="219" y="515" on="0"/>
        <pt x="281" y="622" on="0"/>
        <pt x="353" y="703" on="0"/>
        <pt x="433" y="750" on="0"/>
        <pt x="477" y="750" on="1"/>
        <pt x="492" y="750" on="0"/>
        <pt x="537" y="744" on="0"/>
        <pt x="557" y="736" on="1"/>
        <pt x="557" y="0" on="1"/>
      </contour>
      <contour>
        <pt x="412" y="678" on="1"/>
        <pt x="374" y="653" on="0"/>
        <pt x="310" y="525" on="0"/>
        <pt x="287" y="441" on="1"/>
        <pt x="318" y="435" on="0"/>
        <pt x="381" y="418" on="0"/>
        <pt x="412" y="407" on="1"/>
      </contour>
      <contour>
        <pt x="296" y="1000" on="1"/>
        <pt x="401" y="1000" on="1"/>
        <pt x="470" y="811" on="1"/>
        <pt x="395" y="811" on="1"/>
      </contour>
    </TTGlyph>
    <TTGlyph name="Aogonek" xMin="-43" yMin="-193" xMax="598" yMax="750">
      <contour>
        <pt x="458" y="5" on="1"/>
        <pt x="453" y="0" on="1"/>
        <pt x="412" y="0" on="1"/>
        <pt x="412" y="363" on="1"/>
        <pt x="371" y="380" on="0"/>
        <pt x="307" y="395" on="0"/>
        <pt x="275" y="398" on="1"/>
        <pt x="263" y="352" on="0"/>
        <pt x="245" y="257" on="0"/>
        <pt x="233" y="164" on="0"/>
        <pt x="227" y="76" on="0"/>
        <pt x="227" y="39" on="1"/>
        <pt x="227" y="-3" on="0"/>
        <pt x="234" y="-57" on="0"/>
        <pt x="245" y="-90" on="0"/>
        <pt x="258" y="-108" on="0"/>
        <pt x="263" y="-114" on="1"/>
        <pt x="238" y="-114" on="0"/>
        <pt x="181" y="-108" on="0"/>
        <pt x="132" y="-75" on="0"/>
        <pt x="100" y="-7" on="0"/>
        <pt x="100" y="56" on="1"/>
        <pt x="100" y="89" on="0"/>
        <pt x="110" y="169" on="0"/>
        <pt x="128" y="258" on="0"/>
        <pt x="155" y="353" on="0"/>
        <pt x="172" y="400" on="1"/>
        <pt x="124" y="397" on="0"/>
        <pt x="66" y="373" on="0"/>
        <pt x="61" y="347" on="1"/>
        <pt x="66" y="347" on="0"/>
        <pt x="82" y="322" on="0"/>
        <pt x="82" y="310" on="1"/>
        <pt x="82" y="295" on="0"/>
        <pt x="54" y="277" on="0"/>
        <pt x="33" y="277" on="1"/>
        <pt x="4" y="277" on="0"/>
        <pt x="-43" y="313" on="0"/>
        <pt x="-43" y="348" on="1"/>
        <pt x="-43" y="396" on="0"/>
        <pt x="55" y="458" on="0"/>
        <pt x="135" y="458" on="1"/>
        <pt x="159" y="458" on="0"/>
        <pt x="194" y="455" on="1"/>
        <pt x="219" y="515" on="0"/>
        <pt x="281" y="622" on="0"/>
        <pt x="353" y="703" on="0"/>
        <pt x="433" y="750" on="0"/>
        <pt x="477" y="750" on="1"/>
        <pt x="492" y="750" on="0"/>
        <pt x="537" y="744" on="0"/>
        <pt x="557" y="736" on="1"/>
        <pt x="557" y="0" on="1"/>
        <pt x="519" y="0" on="1"/>
        <pt x="528" y="5" on="1"/>
      </contour>
      <contour>
        <pt x="412" y="678" on="1"/>
        <pt x="374" y="653" on="0"/>
        <pt x="310" y="525" on="0"/>
        <pt x="287" y="441" on="1"/>
        <pt x="318" y="435" on="0"/>
        <pt x="381" y="418" on="0"/>
        <pt x="412" y="407" on="1"/>
      </contour>
      <contour>
        <pt x="405" y="-99" on="1"/>
        <pt x="405" y="-77" on="0"/>
        <pt x="429" y="-24" on="0"/>
        <pt x="453" y="0" on="1"/>
        <pt x="519" y="0" on="1"/>
        <pt x="504" y="-10" on="0"/>
        <pt x="482" y="-49" on="0"/>
        <pt x="482" y="-70" on="1"/>
        <pt x="482" y="-91" on="0"/>
        <pt x="508" y="-134" on="0"/>
        <pt x="533" y="-134" on="1"/>
        <pt x="551" y="-134" on="0"/>
        <pt x="580" y="-111" on="0"/>
        <pt x="594" y="-100" on="1"/>
        <pt x="598" y="-131" on="1"/>
        <pt x="592" y="-140" on="0"/>
        <pt x="575" y="-161" on="0"/>
        <pt x="552" y="-180" on="0"/>
        <pt x="521" y="-193" on="0"/>
        <pt x="501" y="-193" on="1"/>
        <pt x="478" y="-193" on="0"/>
        <pt x="442" y="-175" on="0"/>
        <pt x="418" y="-148" on="0"/>
        <pt x="405" y="-115" on="0"/>
      </contour>
    </TTGlyph>
    <TTGlyph name="Aring" xMin="-43" yMin="-114" xMax="557" yMax="963">
      <contour>
        <pt x="412" y="0" on="1"/>
        <pt x="412" y="363" on="1"/>
        <pt x="371" y="380" on="0"/>
        <pt x="307" y="395" on="0"/>
        <pt x="275" y="398" on="1"/>
        <pt x="263" y="352" on="0"/>
        <pt x="245" y="257" on="0"/>
        <pt x="233" y="164" on="0"/>
        <pt x="227" y="76" on="0"/>
        <pt x="227" y="39" on="1"/>
        <pt x="227" y="-3" on="0"/>
        <pt x="234" y="-57" on="0"/>
        <pt x="245" y="-90" on="0"/>
        <pt x="258" y="-108" on="0"/>
        <pt x="263" y="-114" on="1"/>
        <pt x="238" y="-114" on="0"/>
        <pt x="181" y="-108" on="0"/>
        <pt x="132" y="-75" on="0"/>
        <pt x="100" y="-7" on="0"/>
        <pt x="100" y="56" on="1"/>
        <pt x="100" y="89" on="0"/>
        <pt x="110" y="169" on="0"/>
        <pt x="128" y="258" on="0"/>
        <pt x="155" y="353" on="0"/>
        <pt x="172" y="400" on="1"/>
        <pt x="124" y="397" on="0"/>
        <pt x="66" y="373" on="0"/>
        <pt x="61" y="347" on="1"/>
        <pt x="66" y="347" on="0"/>
        <pt x="82" y="322" on="0"/>
        <pt x="82" y="310" on="1"/>
        <pt x="82" y="295" on="0"/>
        <pt x="54" y="277" on="0"/>
        <pt x="33" y="277" on="1"/>
        <pt x="4" y="277" on="0"/>
        <pt x="-43" y="313" on="0"/>
        <pt x="-43" y="348" on="1"/>
        <pt x="-43" y="396" on="0"/>
        <pt x="55" y="458" on="0"/>
        <pt x="135" y="458" on="1"/>
        <pt x="159" y="458" on="0"/>
        <pt x="194" y="455" on="1"/>
        <pt x="219" y="515" on="0"/>
        <pt x="281" y="622" on="0"/>
        <pt x="353" y="703" on="0"/>
        <pt x="433" y="750" on="0"/>
        <pt x="477" y="750" on="1"/>
        <pt x="492" y="750" on="0"/>
        <pt x="537" y="744" on="0"/>
        <pt x="557" y="736" on="1"/>
        <pt x="557" y="0" on="1"/>
      </contour>
      <contour>
        <pt x="432" y="963" on="1"/>
        <pt x="453" y="963" on="0"/>
        <pt x="482" y="949" on="0"/>
        <pt x="499" y="927" on="0"/>
        <pt x="507" y="899" on="0"/>
        <pt x="507" y="885" on="1"/>
        <pt x="507" y="853" on="0"/>
        <pt x="469" y="802" on="0"/>
        <pt x="429" y="802" on="1"/>
        <pt x="390" y="802" on="0"/>
        <pt x="349" y="852" on="0"/>
        <pt x="349" y="883" on="1"/>
        <pt x="349" y="914" on="0"/>
        <pt x="390" y="963" on="0"/>
      </contour>
      <contour>
        <pt x="412" y="678" on="1"/>
        <pt x="374" y="653" on="0"/>
        <pt x="310" y="525" on="0"/>
        <pt x="287" y="441" on="1"/>
        <pt x="318" y="435" on="0"/>
        <pt x="381" y="418" on="0"/>
        <pt x="412" y="407" on="1"/>
      </contour>
      <contour>
        <pt x="470" y="882" on="1"/>
        <pt x="470" y="900" on="0"/>
        <pt x="454" y="930" on="0"/>
        <pt x="431" y="930" on="1"/>
        <pt x="414" y="930" on="0"/>
        <pt x="389" y="907" on="0"/>
        <pt x="389" y="883" on="1"/>
        <pt x="389" y="865" on="0"/>
        <pt x="408" y="837" on="0"/>
        <pt x="431" y="837" on="1"/>
        <pt x="451" y="837" on="0"/>
        <pt x="470" y="861" on="0"/>
      </contour>
    </TTGlyph>
    <TTGlyph name="Atilde" xMin="-43" yMin="-114" xMax="636" yMax="930">
      <contour>
        <pt x="412" y="0" on="1"/>
        <pt x="412" y="363" on="1"/>
        <pt x="371" y="380" on="0"/>
        <pt x="307" y="395" on="0"/>
        <pt x="275" y="398" on="1"/>
        <pt x="263" y="352" on="0"/>
        <pt x="245" y="257" on="0"/>
        <pt x="233" y="164" on="0"/>
        <pt x="227" y="76" on="0"/>
        <pt x="227" y="39" on="1"/>
        <pt x="227" y="-3" on="0"/>
        <pt x="234" y="-57" on="0"/>
        <pt x="245" y="-90" on="0"/>
        <pt x="258" y="-108" on="0"/>
        <pt x="263" y="-114" on="1"/>
        <pt x="238" y="-114" on="0"/>
        <pt x="181" y="-108" on="0"/>
        <pt x="132" y="-75" on="0"/>
        <pt x="100" y="-7" on="0"/>
        <pt x="100" y="56" on="1"/>
        <pt x="100" y="89" on="0"/>
        <pt x="110" y="169" on="0"/>
        <pt x="128" y="258" on="0"/>
        <pt x="155" y="353" on="0"/>
        <pt x="172" y="400" on="1"/>
        <pt x="124" y="397" on="0"/>
        <pt x="66" y="373" on="0"/>
        <pt x="61" y="347" on="1"/>
        <pt x="66" y="347" on="0"/>
        <pt x="82" y="322" on="0"/>
        <pt x="82" y="310" on="1"/>
        <pt x="82" y="295" on="0"/>
        <pt x="54" y="277" on="0"/>
        <pt x="33" y="277" on="1"/>
        <pt x="4" y="277" on="0"/>
        <pt x="-43" y="313" on="0"/>
        <pt x="-43" y="348" on="1"/>
        <pt x="-43" y="396" on="0"/>
        <pt x="55" y="458" on="0"/>
        <pt x="135" y="458" on="1"/>
        <pt x="159" y="458" on="0"/>
        <pt x="194" y="455" on="1"/>
        <pt x="219" y="515" on="0"/>
        <pt x="281" y="622" on="0"/>
        <pt x="353" y="703" on="0"/>
        <pt x="433" y="750" on="0"/>
        <pt x="477" y="750" on="1"/>
        <pt x="492" y="750" on="0"/>
        <pt x="537" y="744" on="0"/>
        <pt x="557" y="736" on="1"/>
        <pt x="557" y="0" on="1"/>
      </contour>
      <contour>
        <pt x="636" y="919" on="1"/>
        <pt x="635" y="901" on="0"/>
        <pt x="613" y="866" on="0"/>
        <pt x="575" y="837" on="0"/>
        <pt x="524" y="819" on="0"/>
        <pt x="496" y="819" on="1"/>
        <pt x="471" y="819" on="0"/>
        <pt x="426" y="831" on="0"/>
        <pt x="382" y="844" on="0"/>
        <pt x="341" y="856" on="0"/>
        <pt x="320" y="856" on="1"/>
        <pt x="282" y="856" on="0"/>
        <pt x="259" y="830" on="1"/>
        <pt x="253" y="832" on="1"/>
        <pt x="267" y="880" on="0"/>
        <pt x="342" y="930" on="0"/>
        <pt x="399" y="930" on="1"/>
        <pt x="426" y="930" on="0"/>
        <pt x="471" y="920" on="0"/>
        <pt x="511" y="907" on="0"/>
        <pt x="549" y="897" on="0"/>
        <pt x="571" y="897" on="1"/>
        <pt x="590" y="897" on="0"/>
        <pt x="621" y="909" on="0"/>
        <pt x="629" y="920" on="1"/>
      </contour>
      <contour>
        <pt x="412" y="678" on="1"/>
        <pt x="374" y="653" on="0"/>
        <pt x="310" y="525" on="0"/>
        <pt x="287" y="441" on="1"/>
        <pt x="318" y="435" on="0"/>
        <pt x="381" y="418" on="0"/>
        <pt x="412" y="407" on="1"/>
      </contour>
    </TTGlyph>
    <TTGlyph name="B" xMin="18" yMin="-17" xMax="669" yMax="750">
      <contour>
        <pt x="357" y="656" on="1"/>
        <pt x="357" y="434" on="1"/>
        <pt x="364" y="434" on="1"/>
        <pt x="390" y="434" on="0"/>
        <pt x="431" y="460" on="0"/>
        <pt x="460" y="502" on="0"/>
        <pt x="476" y="554" on="0"/>
        <pt x="476" y="581" on="1"/>
        <pt x="476" y="604" on="0"/>
        <pt x="459" y="648" on="0"/>
        <pt x="423" y="683" on="0"/>
        <pt x="367" y="704" on="0"/>
        <pt x="328" y="704" on="1"/>
        <pt x="287" y="704" on="0"/>
        <pt x="210" y="680" on="0"/>
        <pt x="150" y="631" on="0"/>
        <pt x="113" y="557" on="0"/>
        <pt x="113" y="508" on="1"/>
        <pt x="113" y="477" on="0"/>
        <pt x="122" y="438" on="0"/>
        <pt x="133" y="413" on="0"/>
        <pt x="145" y="399" on="0"/>
        <pt x="148" y="393" on="1"/>
        <pt x="88" y="393" on="0"/>
        <pt x="18" y="448" on="0"/>
        <pt x="18" y="514" on="1"/>
        <pt x="18" y="561" on="0"/>
        <pt x="68" y="646" on="0"/>
        <pt x="154" y="711" on="0"/>
        <pt x="271" y="750" on="0"/>
        <pt x="338" y="750" on="1"/>
        <pt x="398" y="750" on="0"/>
        <pt x="488" y="719" on="0"/>
        <pt x="549" y="670" on="0"/>
        <pt x="579" y="607" on="0"/>
        <pt x="579" y="574" on="1"/>
        <pt x="579" y="534" on="0"/>
        <pt x="542" y="459" on="0"/>
        <pt x="505" y="433" on="1"/>
        <pt x="548" y="427" on="0"/>
        <pt x="611" y="389" on="0"/>
        <pt x="650" y="334" on="0"/>
        <pt x="669" y="266" on="0"/>
        <pt x="669" y="229" on="1"/>
        <pt x="669" y="191" on="0"/>
        <pt x="654" y="105" on="0"/>
        <pt x="616" y="32" on="0"/>
        <pt x="552" y="-17" on="0"/>
        <pt x="503" y="-17" on="1"/>
        <pt x="450" y="-17" on="0"/>
        <pt x="380" y="18" on="0"/>
        <pt x="380" y="64" on="1"/>
        <pt x="380" y="85" on="0"/>
        <pt x="389" y="115" on="1"/>
        <pt x="412" y="95" on="0"/>
        <pt x="447" y="79" on="0"/>
        <pt x="464" y="79" on="1"/>
        <pt x="483" y="79" on="0"/>
        <pt x="509" y="104" on="0"/>
        <pt x="526" y="145" on="0"/>
        <pt x="533" y="195" on="0"/>
        <pt x="533" y="220" on="1"/>
        <pt x="533" y="244" on="0"/>
        <pt x="524" y="301" on="0"/>
        <pt x="496" y="352" on="0"/>
        <pt x="445" y="386" on="0"/>
        <pt x="403" y="386" on="1"/>
        <pt x="397" y="386" on="0"/>
        <pt x="371" y="385" on="0"/>
        <pt x="357" y="383" on="1"/>
        <pt x="357" y="0" on="1"/>
        <pt x="213" y="0" on="1"/>
        <pt x="213" y="636" on="1"/>
      </contour>
    </TTGlyph>
    <TTGlyph name="B.salt" xMin="18" yMin="-28" xMax="663" yMax="750">
      <contour>
        <pt x="357" y="656" on="1"/>
        <pt x="357" y="434" on="1"/>
        <pt x="364" y="434" on="1"/>
        <pt x="390" y="434" on="0"/>
        <pt x="431" y="457" on="0"/>
        <pt x="459" y="496" on="0"/>
        <pt x="474" y="547" on="0"/>
        <pt x="474" y="575" on="1"/>
        <pt x="474" y="593" on="0"/>
        <pt x="464" y="638" on="0"/>
        <pt x="433" y="677" on="0"/>
        <pt x="374" y="704" on="0"/>
        <pt x="325" y="704" on="1"/>
        <pt x="279" y="704" on="0"/>
        <pt x="201" y="678" on="0"/>
        <pt x="145" y="627" on="0"/>
        <pt x="114" y="551" on="0"/>
        <pt x="114" y="501" on="1"/>
        <pt x="114" y="471" on="0"/>
        <pt x="124" y="433" on="0"/>
        <pt x="136" y="410" on="0"/>
        <pt x="147" y="397" on="0"/>
        <pt x="148" y="393" on="1"/>
        <pt x="88" y="393" on="0"/>
        <pt x="18" y="449" on="0"/>
        <pt x="18" y="509" on="1"/>
        <pt x="18" y="559" on="0"/>
        <pt x="67" y="647" on="0"/>
        <pt x="151" y="712" on="0"/>
        <pt x="263" y="750" on="0"/>
        <pt x="327" y="750" on="1"/>
        <pt x="386" y="750" on="0"/>
        <pt x="480" y="721" on="0"/>
        <pt x="546" y="672" on="0"/>
        <pt x="581" y="608" on="0"/>
        <pt x="581" y="572" on="1"/>
        <pt x="581" y="534" on="0"/>
        <pt x="542" y="459" on="0"/>
        <pt x="504" y="433" on="1"/>
        <pt x="545" y="427" on="0"/>
        <pt x="605" y="390" on="0"/>
        <pt x="644" y="336" on="0"/>
        <pt x="663" y="269" on="0"/>
        <pt x="663" y="233" on="1"/>
        <pt x="663" y="187" on="0"/>
        <pt x="638" y="94" on="0"/>
        <pt x="592" y="19" on="0"/>
        <pt x="527" y="-28" on="0"/>
        <pt x="487" y="-28" on="1"/>
        <pt x="458" y="-28" on="0"/>
        <pt x="392" y="-1" on="0"/>
        <pt x="357" y="29" on="1"/>
        <pt x="357" y="0" on="1"/>
        <pt x="213" y="0" on="1"/>
        <pt x="213" y="636" on="1"/>
      </contour>
      <contour>
        <pt x="423" y="64" on="1"/>
        <pt x="445" y="64" on="0"/>
        <pt x="479" y="93" on="0"/>
        <pt x="502" y="141" on="0"/>
        <pt x="514" y="201" on="0"/>
        <pt x="514" y="232" on="1"/>
        <pt x="514" y="260" on="0"/>
        <pt x="503" y="315" on="0"/>
        <pt x="477" y="359" on="0"/>
        <pt x="434" y="386" on="0"/>
        <pt x="402" y="386" on="1"/>
        <pt x="396" y="386" on="0"/>
        <pt x="371" y="385" on="0"/>
        <pt x="357" y="383" on="1"/>
        <pt x="357" y="93" on="1"/>
        <pt x="376" y="77" on="0"/>
        <pt x="409" y="64" on="0"/>
      </contour>
    </TTGlyph>
    <TTGlyph name="C" xMin="47" yMin="-16" xMax="580" yMax="750">
      <contour>
        <pt x="580" y="170" on="1"/>
        <pt x="569" y="125" on="0"/>
        <pt x="520" y="56" on="0"/>
        <pt x="451" y="8" on="0"/>
        <pt x="366" y="-16" on="0"/>
        <pt x="319" y="-16" on="1"/>
        <pt x="190" y="-16" on="0"/>
        <pt x="47" y="166" on="0"/>
        <pt x="47" y="350" on="1"/>
        <pt x="47" y="418" on="0"/>
        <pt x="71" y="560" on="0"/>
        <pt x="131" y="676" on="0"/>
        <pt x="232" y="750" on="0"/>
        <pt x="309" y="750" on="1"/>
        <pt x="346" y="750" on="0"/>
        <pt x="416" y="731" on="0"/>
        <pt x="469" y="692" on="0"/>
        <pt x="501" y="632" on="0"/>
        <pt x="501" y="592" on="1"/>
        <pt x="501" y="562" on="0"/>
        <pt x="478" y="524" on="0"/>
        <pt x="447" y="524" on="1"/>
        <pt x="435" y="524" on="0"/>
        <pt x="402" y="533" on="0"/>
        <pt x="384" y="550" on="1"/>
        <pt x="397" y="558" on="0"/>
        <pt x="413" y="601" on="0"/>
        <pt x="413" y="622" on="1"/>
        <pt x="413" y="654" on="0"/>
        <pt x="375" y="703" on="0"/>
        <pt x="343" y="703" on="1"/>
        <pt x="309" y="703" on="0"/>
        <pt x="259" y="645" on="0"/>
        <pt x="226" y="550" on="0"/>
        <pt x="210" y="429" on="0"/>
        <pt x="210" y="366" on="1"/>
        <pt x="210" y="283" on="0"/>
        <pt x="237" y="171" on="0"/>
        <pt x="283" y="103" on="0"/>
        <pt x="346" y="75" on="0"/>
        <pt x="382" y="75" on="1"/>
        <pt x="439" y="75" on="0"/>
        <pt x="530" y="132" on="0"/>
        <pt x="555" y="180" on="1"/>
      </contour>
    </TTGlyph>
    <TTGlyph name="Cacute" xMin="47" yMin="-16" xMax="580" yMax="1000">
      <contour>
        <pt x="580" y="170" on="1"/>
        <pt x="569" y="125" on="0"/>
        <pt x="520" y="56" on="0"/>
        <pt x="451" y="8" on="0"/>
        <pt x="366" y="-16" on="0"/>
        <pt x="319" y="-16" on="1"/>
        <pt x="190" y="-16" on="0"/>
        <pt x="47" y="166" on="0"/>
        <pt x="47" y="350" on="1"/>
        <pt x="47" y="418" on="0"/>
        <pt x="71" y="560" on="0"/>
        <pt x="131" y="676" on="0"/>
        <pt x="232" y="750" on="0"/>
        <pt x="309" y="750" on="1"/>
        <pt x="346" y="750" on="0"/>
        <pt x="416" y="731" on="0"/>
        <pt x="469" y="692" on="0"/>
        <pt x="501" y="632" on="0"/>
        <pt x="501" y="592" on="1"/>
        <pt x="501" y="562" on="0"/>
        <pt x="478" y="524" on="0"/>
        <pt x="447" y="524" on="1"/>
        <pt x="435" y="524" on="0"/>
        <pt x="402" y="533" on="0"/>
        <pt x="384" y="550" on="1"/>
        <pt x="397" y="558" on="0"/>
        <pt x="413" y="601" on="0"/>
        <pt x="413" y="622" on="1"/>
        <pt x="413" y="654" on="0"/>
        <pt x="375" y="703" on="0"/>
        <pt x="343" y="703" on="1"/>
        <pt x="309" y="703" on="0"/>
        <pt x="259" y="645" on="0"/>
        <pt x="226" y="550" on="0"/>
        <pt x="210" y="429" on="0"/>
        <pt x="210" y="366" on="1"/>
        <pt x="210" y="283" on="0"/>
        <pt x="237" y="171" on="0"/>
        <pt x="283" y="103" on="0"/>
        <pt x="346" y="75" on="0"/>
        <pt x="382" y="75" on="1"/>
        <pt x="439" y="75" on="0"/>
        <pt x="530" y="132" on="0"/>
        <pt x="555" y="180" on="1"/>
      </contour>
      <contour>
        <pt x="349" y="1000" on="1"/>
        <pt x="454" y="1000" on="1"/>
        <pt x="373" y="811" on="1"/>
        <pt x="298" y="811" on="1"/>
      </contour>
    </TTGlyph>
    <TTGlyph name="Ccaron" xMin="47" yMin="-16" xMax="580" yMax="1000">
      <contour>
        <pt x="580" y="170" on="1"/>
        <pt x="569" y="125" on="0"/>
        <pt x="520" y="56" on="0"/>
        <pt x="451" y="8" on="0"/>
        <pt x="366" y="-16" on="0"/>
        <pt x="319" y="-16" on="1"/>
        <pt x="190" y="-16" on="0"/>
        <pt x="47" y="166" on="0"/>
        <pt x="47" y="350" on="1"/>
        <pt x="47" y="418" on="0"/>
        <pt x="71" y="560" on="0"/>
        <pt x="131" y="676" on="0"/>
        <pt x="232" y="750" on="0"/>
        <pt x="309" y="750" on="1"/>
        <pt x="346" y="750" on="0"/>
        <pt x="416" y="731" on="0"/>
        <pt x="469" y="692" on="0"/>
        <pt x="501" y="632" on="0"/>
        <pt x="501" y="592" on="1"/>
        <pt x="501" y="562" on="0"/>
        <pt x="478" y="524" on="0"/>
        <pt x="447" y="524" on="1"/>
        <pt x="435" y="524" on="0"/>
        <pt x="402" y="533" on="0"/>
        <pt x="384" y="550" on="1"/>
        <pt x="397" y="558" on="0"/>
        <pt x="413" y="601" on="0"/>
        <pt x="413" y="622" on="1"/>
        <pt x="413" y="654" on="0"/>
        <pt x="375" y="703" on="0"/>
        <pt x="343" y="703" on="1"/>
        <pt x="309" y="703" on="0"/>
        <pt x="259" y="645" on="0"/>
        <pt x="226" y="550" on="0"/>
        <pt x="210" y="429" on="0"/>
        <pt x="210" y="366" on="1"/>
        <pt x="210" y="283" on="0"/>
        <pt x="237" y="171" on="0"/>
        <pt x="283" y="103" on="0"/>
        <pt x="346" y="75" on="0"/>
        <pt x="382" y="75" on="1"/>
        <pt x="439" y="75" on="0"/>
        <pt x="530" y="132" on="0"/>
        <pt x="555" y="180" on="1"/>
      </contour>
      <contour>
        <pt x="234" y="1000" on="1"/>
        <pt x="311" y="920" on="1"/>
        <pt x="451" y="1000" on="1"/>
        <pt x="495" y="1000" on="1"/>
        <pt x="323" y="811" on="1"/>
        <pt x="302" y="811" on="1"/>
        <pt x="202" y="1000" on="1"/>
      </contour>
    </TTGlyph>
    <TTGlyph name="Ccedilla" xMin="48" yMin="-218" xMax="581" yMax="750">
      <contour>
        <pt x="477" y="-128" on="1"/>
        <pt x="477" y="-150" on="0"/>
        <pt x="460" y="-183" on="0"/>
        <pt x="433" y="-206" on="0"/>
        <pt x="397" y="-218" on="0"/>
        <pt x="378" y="-218" on="1"/>
        <pt x="340" y="-218" on="0"/>
        <pt x="289" y="-201" on="0"/>
        <pt x="265" y="-190" on="1"/>
        <pt x="270" y="-178" on="0"/>
        <pt x="284" y="-158" on="0"/>
        <pt x="298" y="-158" on="1"/>
        <pt x="313" y="-158" on="0"/>
        <pt x="334" y="-166" on="0"/>
        <pt x="351" y="-177" on="0"/>
        <pt x="367" y="-185" on="0"/>
        <pt x="378" y="-185" on="1"/>
        <pt x="389" y="-185" on="0"/>
        <pt x="400" y="-165" on="0"/>
        <pt x="400" y="-152" on="1"/>
        <pt x="400" y="-135" on="0"/>
        <pt x="377" y="-107" on="0"/>
        <pt x="352" y="-107" on="1"/>
        <pt x="332" y="-107" on="0"/>
        <pt x="310" y="-114" on="0"/>
        <pt x="303" y="-119" on="1"/>
        <pt x="317" y="-16" on="1"/>
        <pt x="189" y="-15" on="0"/>
        <pt x="48" y="167" on="0"/>
        <pt x="48" y="350" on="1"/>
        <pt x="48" y="418" on="0"/>
        <pt x="72" y="560" on="0"/>
        <pt x="132" y="676" on="0"/>
        <pt x="233" y="750" on="0"/>
        <pt x="310" y="750" on="1"/>
        <pt x="347" y="750" on="0"/>
        <pt x="417" y="731" on="0"/>
        <pt x="470" y="692" on="0"/>
        <pt x="502" y="632" on="0"/>
        <pt x="502" y="592" on="1"/>
        <pt x="502" y="562" on="0"/>
        <pt x="479" y="524" on="0"/>
        <pt x="448" y="524" on="1"/>
        <pt x="436" y="524" on="0"/>
        <pt x="403" y="533" on="0"/>
        <pt x="385" y="550" on="1"/>
        <pt x="398" y="558" on="0"/>
        <pt x="414" y="601" on="0"/>
        <pt x="414" y="622" on="1"/>
        <pt x="414" y="654" on="0"/>
        <pt x="376" y="703" on="0"/>
        <pt x="344" y="703" on="1"/>
        <pt x="310" y="703" on="0"/>
        <pt x="260" y="645" on="0"/>
        <pt x="227" y="550" on="0"/>
        <pt x="211" y="429" on="0"/>
        <pt x="211" y="366" on="1"/>
        <pt x="211" y="283" on="0"/>
        <pt x="238" y="171" on="0"/>
        <pt x="284" y="103" on="0"/>
        <pt x="347" y="75" on="0"/>
        <pt x="383" y="75" on="1"/>
        <pt x="440" y="75" on="0"/>
        <pt x="531" y="132" on="0"/>
        <pt x="556" y="180" on="1"/>
        <pt x="581" y="170" on="1"/>
        <pt x="561" y="89" on="0"/>
        <pt x="441" y="-3" on="0"/>
        <pt x="360" y="-13" on="1"/>
        <pt x="351" y="-66" on="1"/>
        <pt x="381" y="-58" on="0"/>
        <pt x="402" y="-58" on="1"/>
        <pt x="477" y="-58" on="0"/>
      </contour>
    </TTGlyph>
    <TTGlyph name="Ccircumflex" xMin="47" yMin="-16" xMax="580" yMax="1000">
      <contour>
        <pt x="580" y="170" on="1"/>
        <pt x="569" y="125" on="0"/>
        <pt x="520" y="56" on="0"/>
        <pt x="451" y="8" on="0"/>
        <pt x="366" y="-16" on="0"/>
        <pt x="319" y="-16" on="1"/>
        <pt x="190" y="-16" on="0"/>
        <pt x="47" y="166" on="0"/>
        <pt x="47" y="350" on="1"/>
        <pt x="47" y="418" on="0"/>
        <pt x="71" y="560" on="0"/>
        <pt x="131" y="676" on="0"/>
        <pt x="232" y="750" on="0"/>
        <pt x="309" y="750" on="1"/>
        <pt x="346" y="750" on="0"/>
        <pt x="416" y="731" on="0"/>
        <pt x="469" y="692" on="0"/>
        <pt x="501" y="632" on="0"/>
        <pt x="501" y="592" on="1"/>
        <pt x="501" y="562" on="0"/>
        <pt x="478" y="524" on="0"/>
        <pt x="447" y="524" on="1"/>
        <pt x="435" y="524" on="0"/>
        <pt x="402" y="533" on="0"/>
        <pt x="384" y="550" on="1"/>
        <pt x="397" y="558" on="0"/>
        <pt x="413" y="601" on="0"/>
        <pt x="413" y="622" on="1"/>
        <pt x="413" y="654" on="0"/>
        <pt x="375" y="703" on="0"/>
        <pt x="343" y="703" on="1"/>
        <pt x="309" y="703" on="0"/>
        <pt x="259" y="645" on="0"/>
        <pt x="226" y="550" on="0"/>
        <pt x="210" y="429" on="0"/>
        <pt x="210" y="366" on="1"/>
        <pt x="210" y="283" on="0"/>
        <pt x="237" y="171" on="0"/>
        <pt x="283" y="103" on="0"/>
        <pt x="346" y="75" on="0"/>
        <pt x="382" y="75" on="1"/>
        <pt x="439" y="75" on="0"/>
        <pt x="530" y="132" on="0"/>
        <pt x="555" y="180" on="1"/>
      </contour>
      <contour>
        <pt x="424" y="811" on="1"/>
        <pt x="347" y="891" on="1"/>
        <pt x="207" y="811" on="1"/>
        <pt x="163" y="811" on="1"/>
        <pt x="335" y="1000" on="1"/>
        <pt x="356" y="1000" on="1"/>
        <pt x="456" y="811" on="1"/>
      </contour>
    </TTGlyph>
    <TTGlyph name="D" xMin="18" yMin="-9" xMax="681" yMax="750">
      <contour>
        <pt x="358" y="656" on="1"/>
        <pt x="358" y="94" on="1"/>
        <pt x="390" y="75" on="0"/>
        <pt x="416" y="75" on="1"/>
        <pt x="448" y="75" on="0"/>
        <pt x="494" y="134" on="0"/>
        <pt x="523" y="229" on="0"/>
        <pt x="537" y="351" on="0"/>
        <pt x="537" y="414" on="1"/>
        <pt x="537" y="478" on="0"/>
        <pt x="520" y="585" on="0"/>
        <pt x="475" y="662" on="0"/>
        <pt x="394" y="704" on="0"/>
        <pt x="331" y="704" on="1"/>
        <pt x="282" y="704" on="0"/>
        <pt x="202" y="678" on="0"/>
        <pt x="145" y="627" on="0"/>
        <pt x="114" y="552" on="0"/>
        <pt x="114" y="503" on="1"/>
        <pt x="114" y="474" on="0"/>
        <pt x="124" y="436" on="0"/>
        <pt x="136" y="410" on="0"/>
        <pt x="147" y="396" on="0"/>
        <pt x="149" y="393" on="1"/>
        <pt x="89" y="393" on="0"/>
        <pt x="18" y="449" on="0"/>
        <pt x="18" y="511" on="1"/>
        <pt x="18" y="560" on="0"/>
        <pt x="66" y="648" on="0"/>
        <pt x="152" y="712" on="0"/>
        <pt x="272" y="750" on="0"/>
        <pt x="345" y="750" on="1"/>
        <pt x="435" y="750" on="0"/>
        <pt x="563" y="692" on="0"/>
        <pt x="644" y="592" on="0"/>
        <pt x="681" y="460" on="0"/>
        <pt x="681" y="385" on="1"/>
        <pt x="681" y="317" on="0"/>
        <pt x="653" y="177" on="0"/>
        <pt x="601" y="63" on="0"/>
        <pt x="529" y="-9" on="0"/>
        <pt x="484" y="-9" on="1"/>
        <pt x="461" y="-9" on="0"/>
        <pt x="396" y="13" on="0"/>
        <pt x="358" y="39" on="1"/>
        <pt x="358" y="0" on="1"/>
        <pt x="213" y="0" on="1"/>
        <pt x="213" y="636" on="1"/>
      </contour>
    </TTGlyph>
    <TTGlyph name="E" xMin="41" yMin="-18" xMax="521" yMax="752">
      <contour>
        <pt x="521" y="170" on="1"/>
        <pt x="510" y="125" on="0"/>
        <pt x="462" y="55" on="0"/>
        <pt x="394" y="7" on="0"/>
        <pt x="312" y="-18" on="0"/>
        <pt x="267" y="-18" on="1"/>
        <pt x="210" y="-18" on="0"/>
        <pt x="126" y="19" on="0"/>
        <pt x="69" y="81" on="0"/>
        <pt x="41" y="161" on="0"/>
        <pt x="41" y="204" on="1"/>
        <pt x="41" y="237" on="0"/>
        <pt x="58" y="305" on="0"/>
        <pt x="92" y="364" on="0"/>
        <pt x="143" y="408" on="0"/>
        <pt x="177" y="417" on="1"/>
        <pt x="129" y="447" on="0"/>
        <pt x="86" y="525" on="0"/>
        <pt x="86" y="568" on="1"/>
        <pt x="86" y="602" on="0"/>
        <pt x="112" y="669" on="0"/>
        <pt x="163" y="720" on="0"/>
        <pt x="238" y="752" on="0"/>
        <pt x="286" y="752" on="1"/>
        <pt x="315" y="752" on="0"/>
        <pt x="367" y="739" on="0"/>
        <pt x="407" y="709" on="0"/>
        <pt x="431" y="662" on="0"/>
        <pt x="431" y="628" on="1"/>
        <pt x="431" y="593" on="0"/>
        <pt x="405" y="541" on="0"/>
        <pt x="379" y="541" on="1"/>
        <pt x="368" y="541" on="0"/>
        <pt x="342" y="552" on="0"/>
        <pt x="328" y="566" on="1"/>
        <pt x="342" y="571" on="0"/>
        <pt x="359" y="612" on="0"/>
        <pt x="359" y="633" on="1"/>
        <pt x="359" y="652" on="0"/>
        <pt x="346" y="676" on="0"/>
        <pt x="326" y="689" on="0"/>
        <pt x="304" y="693" on="0"/>
        <pt x="295" y="693" on="1"/>
        <pt x="273" y="693" on="0"/>
        <pt x="241" y="675" on="0"/>
        <pt x="221" y="645" on="0"/>
        <pt x="211" y="605" on="0"/>
        <pt x="211" y="584" on="1"/>
        <pt x="211" y="556" on="0"/>
        <pt x="227" y="504" on="0"/>
        <pt x="260" y="460" on="0"/>
        <pt x="310" y="427" on="0"/>
        <pt x="344" y="418" on="1"/>
        <pt x="312" y="410" on="0"/>
        <pt x="262" y="369" on="0"/>
        <pt x="229" y="312" on="0"/>
        <pt x="212" y="246" on="0"/>
        <pt x="212" y="215" on="1"/>
        <pt x="212" y="188" on="0"/>
        <pt x="226" y="138" on="0"/>
        <pt x="255" y="101" on="0"/>
        <pt x="300" y="78" on="0"/>
        <pt x="332" y="78" on="1"/>
        <pt x="356" y="78" on="0"/>
        <pt x="408" y="92" on="0"/>
        <pt x="453" y="118" on="0"/>
        <pt x="488" y="156" on="0"/>
        <pt x="496" y="180" on="1"/>
      </contour>
    </TTGlyph>
    <TTGlyph name="E.salt" xMin="21" yMin="0" xMax="578" yMax="750">
      <contour>
        <pt x="509" y="419" on="1"/>
        <pt x="509" y="345" on="1"/>
        <pt x="356" y="345" on="1"/>
        <pt x="356" y="101" on="1"/>
        <pt x="578" y="101" on="1"/>
        <pt x="578" y="0" on="1"/>
        <pt x="210" y="0" on="1"/>
        <pt x="210" y="668" on="1"/>
        <pt x="167" y="665" on="0"/>
        <pt x="115" y="609" on="0"/>
        <pt x="115" y="538" on="1"/>
        <pt x="115" y="493" on="0"/>
        <pt x="126" y="440" on="0"/>
        <pt x="140" y="411" on="0"/>
        <pt x="153" y="399" on="0"/>
        <pt x="155" y="393" on="1"/>
        <pt x="89" y="393" on="0"/>
        <pt x="21" y="456" on="0"/>
        <pt x="21" y="535" on="1"/>
        <pt x="21" y="577" on="0"/>
        <pt x="52" y="655" on="0"/>
        <pt x="122" y="715" on="0"/>
        <pt x="233" y="750" on="0"/>
        <pt x="313" y="750" on="1"/>
        <pt x="343" y="750" on="0"/>
        <pt x="433" y="738" on="0"/>
        <pt x="481" y="738" on="1"/>
        <pt x="504" y="738" on="0"/>
        <pt x="549" y="743" on="0"/>
        <pt x="569" y="750" on="1"/>
        <pt x="570" y="745" on="0"/>
        <pt x="570" y="735" on="0"/>
        <pt x="570" y="730" on="1"/>
        <pt x="570" y="679" on="0"/>
        <pt x="511" y="634" on="0"/>
        <pt x="458" y="634" on="1"/>
        <pt x="434" y="634" on="0"/>
        <pt x="382" y="640" on="0"/>
        <pt x="356" y="645" on="1"/>
        <pt x="356" y="419" on="1"/>
      </contour>
    </TTGlyph>
    <TTGlyph name="E_x" xMin="42" yMin="-16" xMax="875" yMax="752">
      <contour>
        <pt x="572" y="462" on="1"/>
        <pt x="642" y="284" on="1"/>
        <pt x="672" y="327" on="0"/>
        <pt x="705" y="404" on="0"/>
        <pt x="705" y="431" on="1"/>
        <pt x="705" y="443" on="0"/>
        <pt x="701" y="452" on="0"/>
        <pt x="700" y="455" on="1"/>
        <pt x="695" y="454" on="0"/>
        <pt x="687" y="453" on="0"/>
        <pt x="683" y="453" on="1"/>
        <pt x="665" y="453" on="0"/>
        <pt x="642" y="466" on="0"/>
        <pt x="629" y="486" on="0"/>
        <pt x="623" y="508" on="0"/>
        <pt x="623" y="517" on="1"/>
        <pt x="623" y="536" on="0"/>
        <pt x="650" y="556" on="0"/>
        <pt x="670" y="556" on="1"/>
        <pt x="691" y="556" on="0"/>
        <pt x="724" y="537" on="0"/>
        <pt x="748" y="505" on="0"/>
        <pt x="760" y="464" on="0"/>
        <pt x="760" y="442" on="1"/>
        <pt x="760" y="399" on="0"/>
        <pt x="713" y="296" on="0"/>
        <pt x="664" y="228" on="1"/>
        <pt x="684" y="179" on="1"/>
        <pt x="690" y="165" on="0"/>
        <pt x="703" y="134" on="0"/>
        <pt x="721" y="108" on="0"/>
        <pt x="745" y="91" on="0"/>
        <pt x="762" y="91" on="1"/>
        <pt x="791" y="91" on="0"/>
        <pt x="830" y="141" on="0"/>
        <pt x="833" y="179" on="1"/>
        <pt x="875" y="179" on="1"/>
        <pt x="867" y="118" on="0"/>
        <pt x="828" y="45" on="0"/>
        <pt x="780" y="6" on="0"/>
        <pt x="729" y="-6" on="0"/>
        <pt x="709" y="-6" on="1"/>
        <pt x="662" y="-6" on="0"/>
        <pt x="596" y="57" on="0"/>
        <pt x="564" y="128" on="1"/>
        <pt x="542" y="96" on="0"/>
        <pt x="478" y="43" on="0"/>
        <pt x="402" y="5" on="0"/>
        <pt x="318" y="-16" on="0"/>
        <pt x="275" y="-16" on="1"/>
        <pt x="229" y="-16" on="0"/>
        <pt x="145" y="9" on="0"/>
        <pt x="80" y="62" on="0"/>
        <pt x="42" y="145" on="0"/>
        <pt x="42" y="203" on="1"/>
        <pt x="42" y="237" on="0"/>
        <pt x="59" y="306" on="0"/>
        <pt x="93" y="365" on="0"/>
        <pt x="144" y="408" on="0"/>
        <pt x="178" y="417" on="1"/>
        <pt x="130" y="447" on="0"/>
        <pt x="87" y="525" on="0"/>
        <pt x="87" y="569" on="1"/>
        <pt x="87" y="603" on="0"/>
        <pt x="111" y="669" on="0"/>
        <pt x="156" y="720" on="0"/>
        <pt x="222" y="752" on="0"/>
        <pt x="264" y="752" on="1"/>
        <pt x="298" y="752" on="0"/>
        <pt x="361" y="738" on="0"/>
        <pt x="409" y="707" on="0"/>
        <pt x="437" y="656" on="0"/>
        <pt x="437" y="620" on="1"/>
        <pt x="437" y="605" on="0"/>
        <pt x="431" y="573" on="0"/>
        <pt x="416" y="546" on="0"/>
        <pt x="393" y="528" on="0"/>
        <pt x="377" y="528" on="1"/>
        <pt x="369" y="528" on="0"/>
        <pt x="343" y="536" on="0"/>
        <pt x="329" y="550" on="1"/>
        <pt x="343" y="555" on="0"/>
        <pt x="357" y="596" on="0"/>
        <pt x="357" y="618" on="1"/>
        <pt x="357" y="639" on="0"/>
        <pt x="344" y="668" on="0"/>
        <pt x="325" y="685" on="0"/>
        <pt x="300" y="693" on="0"/>
        <pt x="288" y="693" on="1"/>
        <pt x="270" y="693" on="0"/>
        <pt x="242" y="675" on="0"/>
        <pt x="222" y="644" on="0"/>
        <pt x="212" y="604" on="0"/>
        <pt x="212" y="582" on="1"/>
        <pt x="212" y="556" on="0"/>
        <pt x="228" y="505" on="0"/>
        <pt x="260" y="461" on="0"/>
        <pt x="310" y="427" on="0"/>
        <pt x="345" y="418" on="1"/>
        <pt x="313" y="410" on="0"/>
        <pt x="263" y="369" on="0"/>
        <pt x="230" y="312" on="0"/>
        <pt x="213" y="246" on="0"/>
        <pt x="213" y="215" on="1"/>
        <pt x="213" y="178" on="0"/>
        <pt x="233" y="126" on="0"/>
        <pt x="268" y="93" on="0"/>
        <pt x="315" y="77" on="0"/>
        <pt x="341" y="77" on="1"/>
        <pt x="368" y="77" on="0"/>
        <pt x="425" y="92" on="0"/>
        <pt x="478" y="120" on="0"/>
        <pt x="524" y="159" on="0"/>
        <pt x="540" y="184" on="1"/>
        <pt x="431" y="462" on="1"/>
      </contour>
    </TTGlyph>
    <TTGlyph name="Eacute" xMin="41" yMin="-18" xMax="521" yMax="1000">
      <contour>
        <pt x="521" y="170" on="1"/>
        <pt x="510" y="125" on="0"/>
        <pt x="462" y="55" on="0"/>
        <pt x="394" y="7" on="0"/>
        <pt x="312" y="-18" on="0"/>
        <pt x="267" y="-18" on="1"/>
        <pt x="210" y="-18" on="0"/>
        <pt x="126" y="19" on="0"/>
        <pt x="69" y="81" on="0"/>
        <pt x="41" y="161" on="0"/>
        <pt x="41" y="204" on="1"/>
        <pt x="41" y="237" on="0"/>
        <pt x="58" y="305" on="0"/>
        <pt x="92" y="364" on="0"/>
        <pt x="143" y="408" on="0"/>
        <pt x="177" y="417" on="1"/>
        <pt x="129" y="447" on="0"/>
        <pt x="86" y="525" on="0"/>
        <pt x="86" y="568" on="1"/>
        <pt x="86" y="602" on="0"/>
        <pt x="112" y="669" on="0"/>
        <pt x="163" y="720" on="0"/>
        <pt x="238" y="752" on="0"/>
        <pt x="286" y="752" on="1"/>
        <pt x="315" y="752" on="0"/>
        <pt x="367" y="739" on="0"/>
        <pt x="407" y="709" on="0"/>
        <pt x="431" y="662" on="0"/>
        <pt x="431" y="628" on="1"/>
        <pt x="431" y="593" on="0"/>
        <pt x="405" y="541" on="0"/>
        <pt x="379" y="541" on="1"/>
        <pt x="368" y="541" on="0"/>
        <pt x="342" y="552" on="0"/>
        <pt x="328" y="566" on="1"/>
        <pt x="342" y="571" on="0"/>
        <pt x="359" y="612" on="0"/>
        <pt x="359" y="633" on="1"/>
        <pt x="359" y="652" on="0"/>
        <pt x="346" y="676" on="0"/>
        <pt x="326" y="689" on="0"/>
        <pt x="304" y="693" on="0"/>
        <pt x="295" y="693" on="1"/>
        <pt x="273" y="693" on="0"/>
        <pt x="241" y="675" on="0"/>
        <pt x="221" y="645" on="0"/>
        <pt x="211" y="605" on="0"/>
        <pt x="211" y="584" on="1"/>
        <pt x="211" y="556" on="0"/>
        <pt x="227" y="504" on="0"/>
        <pt x="260" y="460" on="0"/>
        <pt x="310" y="427" on="0"/>
        <pt x="344" y="418" on="1"/>
        <pt x="312" y="410" on="0"/>
        <pt x="262" y="369" on="0"/>
        <pt x="229" y="312" on="0"/>
        <pt x="212" y="246" on="0"/>
        <pt x="212" y="215" on="1"/>
        <pt x="212" y="188" on="0"/>
        <pt x="226" y="138" on="0"/>
        <pt x="255" y="101" on="0"/>
        <pt x="300" y="78" on="0"/>
        <pt x="332" y="78" on="1"/>
        <pt x="356" y="78" on="0"/>
        <pt x="408" y="92" on="0"/>
        <pt x="453" y="118" on="0"/>
        <pt x="488" y="156" on="0"/>
        <pt x="496" y="180" on="1"/>
      </contour>
      <contour>
        <pt x="304" y="1000" on="1"/>
        <pt x="409" y="1000" on="1"/>
        <pt x="328" y="811" on="1"/>
        <pt x="253" y="811" on="1"/>
      </contour>
    </TTGlyph>
    <TTGlyph name="Ecircumflex" xMin="41" yMin="-18" xMax="521" yMax="1000">
      <contour>
        <pt x="521" y="170" on="1"/>
        <pt x="510" y="125" on="0"/>
        <pt x="462" y="55" on="0"/>
        <pt x="394" y="7" on="0"/>
        <pt x="312" y="-18" on="0"/>
        <pt x="267" y="-18" on="1"/>
        <pt x="210" y="-18" on="0"/>
        <pt x="126" y="19" on="0"/>
        <pt x="69" y="81" on="0"/>
        <pt x="41" y="161" on="0"/>
        <pt x="41" y="204" on="1"/>
        <pt x="41" y="237" on="0"/>
        <pt x="58" y="305" on="0"/>
        <pt x="92" y="364" on="0"/>
        <pt x="143" y="408" on="0"/>
        <pt x="177" y="417" on="1"/>
        <pt x="129" y="447" on="0"/>
        <pt x="86" y="525" on="0"/>
        <pt x="86" y="568" on="1"/>
        <pt x="86" y="602" on="0"/>
        <pt x="112" y="669" on="0"/>
        <pt x="163" y="720" on="0"/>
        <pt x="238" y="752" on="0"/>
        <pt x="286" y="752" on="1"/>
        <pt x="315" y="752" on="0"/>
        <pt x="367" y="739" on="0"/>
        <pt x="407" y="709" on="0"/>
        <pt x="431" y="662" on="0"/>
        <pt x="431" y="628" on="1"/>
        <pt x="431" y="593" on="0"/>
        <pt x="405" y="541" on="0"/>
        <pt x="379" y="541" on="1"/>
        <pt x="368" y="541" on="0"/>
        <pt x="342" y="552" on="0"/>
        <pt x="328" y="566" on="1"/>
        <pt x="342" y="571" on="0"/>
        <pt x="359" y="612" on="0"/>
        <pt x="359" y="633" on="1"/>
        <pt x="359" y="652" on="0"/>
        <pt x="346" y="676" on="0"/>
        <pt x="326" y="689" on="0"/>
        <pt x="304" y="693" on="0"/>
        <pt x="295" y="693" on="1"/>
        <pt x="273" y="693" on="0"/>
        <pt x="241" y="675" on="0"/>
        <pt x="221" y="645" on="0"/>
        <pt x="211" y="605" on="0"/>
        <pt x="211" y="584" on="1"/>
        <pt x="211" y="556" on="0"/>
        <pt x="227" y="504" on="0"/>
        <pt x="260" y="460" on="0"/>
        <pt x="310" y="427" on="0"/>
        <pt x="344" y="418" on="1"/>
        <pt x="312" y="410" on="0"/>
        <pt x="262" y="369" on="0"/>
        <pt x="229" y="312" on="0"/>
        <pt x="212" y="246" on="0"/>
        <pt x="212" y="215" on="1"/>
        <pt x="212" y="188" on="0"/>
        <pt x="226" y="138" on="0"/>
        <pt x="255" y="101" on="0"/>
        <pt x="300" y="78" on="0"/>
        <pt x="332" y="78" on="1"/>
        <pt x="356" y="78" on="0"/>
        <pt x="408" y="92" on="0"/>
        <pt x="453" y="118" on="0"/>
        <pt x="488" y="156" on="0"/>
        <pt x="496" y="180" on="1"/>
      </contour>
      <contour>
        <pt x="394" y="811" on="1"/>
        <pt x="317" y="891" on="1"/>
        <pt x="177" y="811" on="1"/>
        <pt x="133" y="811" on="1"/>
        <pt x="305" y="1000" on="1"/>
        <pt x="326" y="1000" on="1"/>
        <pt x="426" y="811" on="1"/>
      </contour>
    </TTGlyph>
    <TTGlyph name="Edieresis" xMin="41" yMin="-18" xMax="521" yMax="945">
      <contour>
        <pt x="521" y="170" on="1"/>
        <pt x="510" y="125" on="0"/>
        <pt x="462" y="55" on="0"/>
        <pt x="394" y="7" on="0"/>
        <pt x="312" y="-18" on="0"/>
        <pt x="267" y="-18" on="1"/>
        <pt x="210" y="-18" on="0"/>
        <pt x="126" y="19" on="0"/>
        <pt x="69" y="81" on="0"/>
        <pt x="41" y="161" on="0"/>
        <pt x="41" y="204" on="1"/>
        <pt x="41" y="237" on="0"/>
        <pt x="58" y="305" on="0"/>
        <pt x="92" y="364" on="0"/>
        <pt x="143" y="408" on="0"/>
        <pt x="177" y="417" on="1"/>
        <pt x="129" y="447" on="0"/>
        <pt x="86" y="525" on="0"/>
        <pt x="86" y="568" on="1"/>
        <pt x="86" y="602" on="0"/>
        <pt x="112" y="669" on="0"/>
        <pt x="163" y="720" on="0"/>
        <pt x="238" y="752" on="0"/>
        <pt x="286" y="752" on="1"/>
        <pt x="315" y="752" on="0"/>
        <pt x="367" y="739" on="0"/>
        <pt x="407" y="709" on="0"/>
        <pt x="431" y="662" on="0"/>
        <pt x="431" y="628" on="1"/>
        <pt x="431" y="593" on="0"/>
        <pt x="405" y="541" on="0"/>
        <pt x="379" y="541" on="1"/>
        <pt x="368" y="541" on="0"/>
        <pt x="342" y="552" on="0"/>
        <pt x="328" y="566" on="1"/>
        <pt x="342" y="571" on="0"/>
        <pt x="359" y="612" on="0"/>
        <pt x="359" y="633" on="1"/>
        <pt x="359" y="652" on="0"/>
        <pt x="346" y="676" on="0"/>
        <pt x="326" y="689" on="0"/>
        <pt x="304" y="693" on="0"/>
        <pt x="295" y="693" on="1"/>
        <pt x="273" y="693" on="0"/>
        <pt x="241" y="675" on="0"/>
        <pt x="221" y="645" on="0"/>
        <pt x="211" y="605" on="0"/>
        <pt x="211" y="584" on="1"/>
        <pt x="211" y="556" on="0"/>
        <pt x="227" y="504" on="0"/>
        <pt x="260" y="460" on="0"/>
        <pt x="310" y="427" on="0"/>
        <pt x="344" y="418" on="1"/>
        <pt x="312" y="410" on="0"/>
        <pt x="262" y="369" on="0"/>
        <pt x="229" y="312" on="0"/>
        <pt x="212" y="246" on="0"/>
        <pt x="212" y="215" on="1"/>
        <pt x="212" y="188" on="0"/>
        <pt x="226" y="138" on="0"/>
        <pt x="255" y="101" on="0"/>
        <pt x="300" y="78" on="0"/>
        <pt x="332" y="78" on="1"/>
        <pt x="356" y="78" on="0"/>
        <pt x="408" y="92" on="0"/>
        <pt x="453" y="118" on="0"/>
        <pt x="488" y="156" on="0"/>
        <pt x="496" y="180" on="1"/>
      </contour>
      <contour>
        <pt x="148" y="884" on="1"/>
        <pt x="148" y="909" on="0"/>
        <pt x="183" y="945" on="0"/>
        <pt x="209" y="945" on="1"/>
        <pt x="234" y="945" on="0"/>
        <pt x="270" y="909" on="0"/>
        <pt x="270" y="884" on="1"/>
        <pt x="270" y="858" on="0"/>
        <pt x="234" y="823" on="0"/>
        <pt x="209" y="823" on="1"/>
        <pt x="183" y="823" on="0"/>
        <pt x="148" y="858" on="0"/>
      </contour>
      <contour>
        <pt x="328" y="884" on="1"/>
        <pt x="328" y="909" on="0"/>
        <pt x="363" y="945" on="0"/>
        <pt x="389" y="945" on="1"/>
        <pt x="414" y="945" on="0"/>
        <pt x="450" y="909" on="0"/>
        <pt x="450" y="884" on="1"/>
        <pt x="450" y="858" on="0"/>
        <pt x="414" y="823" on="0"/>
        <pt x="389" y="823" on="1"/>
        <pt x="363" y="823" on="0"/>
        <pt x="328" y="858" on="0"/>
      </contour>
    </TTGlyph>
    <TTGlyph name="Egrave" xMin="41" yMin="-18" xMax="521" yMax="1000">
      <contour>
        <pt x="521" y="170" on="1"/>
        <pt x="510" y="125" on="0"/>
        <pt x="462" y="55" on="0"/>
        <pt x="394" y="7" on="0"/>
        <pt x="312" y="-18" on="0"/>
        <pt x="267" y="-18" on="1"/>
        <pt x="210" y="-18" on="0"/>
        <pt x="126" y="19" on="0"/>
        <pt x="69" y="81" on="0"/>
        <pt x="41" y="161" on="0"/>
        <pt x="41" y="204" on="1"/>
        <pt x="41" y="237" on="0"/>
        <pt x="58" y="305" on="0"/>
        <pt x="92" y="364" on="0"/>
        <pt x="143" y="408" on="0"/>
        <pt x="177" y="417" on="1"/>
        <pt x="129" y="447" on="0"/>
        <pt x="86" y="525" on="0"/>
        <pt x="86" y="568" on="1"/>
        <pt x="86" y="602" on="0"/>
        <pt x="112" y="669" on="0"/>
        <pt x="163" y="720" on="0"/>
        <pt x="238" y="752" on="0"/>
        <pt x="286" y="752" on="1"/>
        <pt x="315" y="752" on="0"/>
        <pt x="367" y="739" on="0"/>
        <pt x="407" y="709" on="0"/>
        <pt x="431" y="662" on="0"/>
        <pt x="431" y="628" on="1"/>
        <pt x="431" y="593" on="0"/>
        <pt x="405" y="541" on="0"/>
        <pt x="379" y="541" on="1"/>
        <pt x="368" y="541" on="0"/>
        <pt x="342" y="552" on="0"/>
        <pt x="328" y="566" on="1"/>
        <pt x="342" y="571" on="0"/>
        <pt x="359" y="612" on="0"/>
        <pt x="359" y="633" on="1"/>
        <pt x="359" y="652" on="0"/>
        <pt x="346" y="676" on="0"/>
        <pt x="326" y="689" on="0"/>
        <pt x="304" y="693" on="0"/>
        <pt x="295" y="693" on="1"/>
        <pt x="273" y="693" on="0"/>
        <pt x="241" y="675" on="0"/>
        <pt x="221" y="645" on="0"/>
        <pt x="211" y="605" on="0"/>
        <pt x="211" y="584" on="1"/>
        <pt x="211" y="556" on="0"/>
        <pt x="227" y="504" on="0"/>
        <pt x="260" y="460" on="0"/>
        <pt x="310" y="427" on="0"/>
        <pt x="344" y="418" on="1"/>
        <pt x="312" y="410" on="0"/>
        <pt x="262" y="369" on="0"/>
        <pt x="229" y="312" on="0"/>
        <pt x="212" y="246" on="0"/>
        <pt x="212" y="215" on="1"/>
        <pt x="212" y="188" on="0"/>
        <pt x="226" y="138" on="0"/>
        <pt x="255" y="101" on="0"/>
        <pt x="300" y="78" on="0"/>
        <pt x="332" y="78" on="1"/>
        <pt x="356" y="78" on="0"/>
        <pt x="408" y="92" on="0"/>
        <pt x="453" y="118" on="0"/>
        <pt x="488" y="156" on="0"/>
        <pt x="496" y="180" on="1"/>
      </contour>
      <contour>
        <pt x="142" y="1000" on="1"/>
        <pt x="247" y="1000" on="1"/>
        <pt x="316" y="811" on="1"/>
        <pt x="241" y="811" on="1"/>
      </contour>
    </TTGlyph>
    <TTGlyph name="Eogonek" xMin="42" yMin="-193" xMax="522" yMax="752">
      <contour>
        <pt x="522" y="170" on="1"/>
        <pt x="505" y="101" on="0"/>
        <pt x="412" y="11" on="0"/>
        <pt x="349" y="-7" on="1"/>
        <pt x="337" y="-18" on="0"/>
        <pt x="321" y="-52" on="0"/>
        <pt x="321" y="-70" on="1"/>
        <pt x="321" y="-91" on="0"/>
        <pt x="347" y="-134" on="0"/>
        <pt x="372" y="-134" on="1"/>
        <pt x="390" y="-134" on="0"/>
        <pt x="419" y="-111" on="0"/>
        <pt x="433" y="-100" on="1"/>
        <pt x="437" y="-131" on="1"/>
        <pt x="431" y="-140" on="0"/>
        <pt x="414" y="-161" on="0"/>
        <pt x="391" y="-180" on="0"/>
        <pt x="360" y="-193" on="0"/>
        <pt x="340" y="-193" on="1"/>
        <pt x="317" y="-193" on="0"/>
        <pt x="281" y="-175" on="0"/>
        <pt x="257" y="-148" on="0"/>
        <pt x="244" y="-115" on="0"/>
        <pt x="244" y="-99" on="1"/>
        <pt x="244" y="-81" on="0"/>
        <pt x="260" y="-38" on="0"/>
        <pt x="276" y="-18" on="1"/>
        <pt x="268" y="-18" on="1"/>
        <pt x="211" y="-18" on="0"/>
        <pt x="127" y="19" on="0"/>
        <pt x="70" y="81" on="0"/>
        <pt x="42" y="161" on="0"/>
        <pt x="42" y="204" on="1"/>
        <pt x="42" y="237" on="0"/>
        <pt x="59" y="305" on="0"/>
        <pt x="93" y="364" on="0"/>
        <pt x="144" y="408" on="0"/>
        <pt x="178" y="417" on="1"/>
        <pt x="130" y="447" on="0"/>
        <pt x="87" y="525" on="0"/>
        <pt x="87" y="568" on="1"/>
        <pt x="87" y="602" on="0"/>
        <pt x="113" y="669" on="0"/>
        <pt x="164" y="720" on="0"/>
        <pt x="239" y="752" on="0"/>
        <pt x="287" y="752" on="1"/>
        <pt x="316" y="752" on="0"/>
        <pt x="368" y="739" on="0"/>
        <pt x="408" y="709" on="0"/>
        <pt x="432" y="662" on="0"/>
        <pt x="432" y="628" on="1"/>
        <pt x="432" y="593" on="0"/>
        <pt x="406" y="541" on="0"/>
        <pt x="380" y="541" on="1"/>
        <pt x="369" y="541" on="0"/>
        <pt x="343" y="552" on="0"/>
        <pt x="329" y="566" on="1"/>
        <pt x="343" y="571" on="0"/>
        <pt x="360" y="612" on="0"/>
        <pt x="360" y="633" on="1"/>
        <pt x="360" y="652" on="0"/>
        <pt x="347" y="676" on="0"/>
        <pt x="327" y="689" on="0"/>
        <pt x="305" y="693" on="0"/>
        <pt x="296" y="693" on="1"/>
        <pt x="274" y="693" on="0"/>
        <pt x="242" y="675" on="0"/>
        <pt x="222" y="645" on="0"/>
        <pt x="212" y="605" on="0"/>
        <pt x="212" y="584" on="1"/>
        <pt x="212" y="556" on="0"/>
        <pt x="228" y="504" on="0"/>
        <pt x="261" y="460" on="0"/>
        <pt x="311" y="427" on="0"/>
        <pt x="345" y="418" on="1"/>
        <pt x="313" y="410" on="0"/>
        <pt x="263" y="369" on="0"/>
        <pt x="230" y="312" on="0"/>
        <pt x="213" y="246" on="0"/>
        <pt x="213" y="215" on="1"/>
        <pt x="213" y="188" on="0"/>
        <pt x="227" y="138" on="0"/>
        <pt x="256" y="101" on="0"/>
        <pt x="301" y="78" on="0"/>
        <pt x="333" y="78" on="1"/>
        <pt x="357" y="78" on="0"/>
        <pt x="409" y="92" on="0"/>
        <pt x="454" y="118" on="0"/>
        <pt x="489" y="156" on="0"/>
        <pt x="497" y="180" on="1"/>
      </contour>
    </TTGlyph>
    <TTGlyph name="Eth" xMin="18" yMin="-9" xMax="681" yMax="750">
      <contour>
        <pt x="114" y="503" on="1"/>
        <pt x="114" y="474" on="0"/>
        <pt x="124" y="436" on="0"/>
        <pt x="136" y="410" on="0"/>
        <pt x="147" y="396" on="0"/>
        <pt x="149" y="393" on="1"/>
        <pt x="89" y="393" on="0"/>
        <pt x="18" y="449" on="0"/>
        <pt x="18" y="511" on="1"/>
        <pt x="18" y="560" on="0"/>
        <pt x="66" y="648" on="0"/>
        <pt x="152" y="712" on="0"/>
        <pt x="272" y="750" on="0"/>
        <pt x="345" y="750" on="1"/>
        <pt x="435" y="750" on="0"/>
        <pt x="563" y="692" on="0"/>
        <pt x="644" y="592" on="0"/>
        <pt x="681" y="460" on="0"/>
        <pt x="681" y="385" on="1"/>
        <pt x="681" y="317" on="0"/>
        <pt x="653" y="177" on="0"/>
        <pt x="601" y="63" on="0"/>
        <pt x="529" y="-9" on="0"/>
        <pt x="484" y="-9" on="1"/>
        <pt x="461" y="-9" on="0"/>
        <pt x="396" y="13" on="0"/>
        <pt x="358" y="39" on="1"/>
        <pt x="358" y="0" on="1"/>
        <pt x="213" y="0" on="1"/>
        <pt x="213" y="345" on="1"/>
        <pt x="175" y="345" on="1"/>
        <pt x="179" y="419" on="1"/>
        <pt x="213" y="419" on="1"/>
        <pt x="213" y="636" on="1"/>
        <pt x="358" y="656" on="1"/>
        <pt x="358" y="419" on="1"/>
        <pt x="436" y="419" on="1"/>
        <pt x="432" y="345" on="1"/>
        <pt x="358" y="345" on="1"/>
        <pt x="358" y="94" on="1"/>
        <pt x="390" y="75" on="0"/>
        <pt x="416" y="75" on="1"/>
        <pt x="448" y="75" on="0"/>
        <pt x="494" y="134" on="0"/>
        <pt x="523" y="229" on="0"/>
        <pt x="537" y="351" on="0"/>
        <pt x="537" y="414" on="1"/>
        <pt x="537" y="478" on="0"/>
        <pt x="520" y="585" on="0"/>
        <pt x="475" y="662" on="0"/>
        <pt x="394" y="704" on="0"/>
        <pt x="331" y="704" on="1"/>
        <pt x="282" y="704" on="0"/>
        <pt x="202" y="678" on="0"/>
        <pt x="145" y="627" on="0"/>
        <pt x="114" y="552" on="0"/>
      </contour>
    </TTGlyph>
    <TTGlyph name="Euro" xMin="25" yMin="-6" xMax="595" yMax="750">
      <contour>
        <pt x="455" y="334" on="1"/>
        <pt x="452" y="284" on="1"/>
        <pt x="258" y="284" on="1"/>
        <pt x="265" y="224" on="0"/>
        <pt x="297" y="147" on="0"/>
        <pt x="347" y="102" on="0"/>
        <pt x="412" y="84" on="0"/>
        <pt x="451" y="84" on="1"/>
        <pt x="486" y="84" on="0"/>
        <pt x="563" y="100" on="0"/>
        <pt x="587" y="124" on="1"/>
        <pt x="595" y="95" on="1"/>
        <pt x="580" y="67" on="0"/>
        <pt x="535" y="29" on="0"/>
        <pt x="481" y="5" on="0"/>
        <pt x="422" y="-6" on="0"/>
        <pt x="392" y="-6" on="1"/>
        <pt x="347" y="-6" on="0"/>
        <pt x="254" y="20" on="0"/>
        <pt x="173" y="86" on="0"/>
        <pt x="113" y="198" on="0"/>
        <pt x="102" y="284" on="1"/>
        <pt x="25" y="284" on="1"/>
        <pt x="28" y="334" on="1"/>
        <pt x="97" y="334" on="1"/>
        <pt x="96" y="345" on="0"/>
        <pt x="96" y="368" on="0"/>
        <pt x="96" y="380" on="1"/>
        <pt x="96" y="399" on="1"/>
        <pt x="26" y="399" on="1"/>
        <pt x="29" y="449" on="1"/>
        <pt x="99" y="449" on="1"/>
        <pt x="105" y="512" on="0"/>
        <pt x="139" y="622" on="0"/>
        <pt x="202" y="703" on="0"/>
        <pt x="295" y="750" on="0"/>
        <pt x="360" y="750" on="1"/>
        <pt x="399" y="750" on="0"/>
        <pt x="473" y="731" on="0"/>
        <pt x="530" y="692" on="0"/>
        <pt x="564" y="632" on="0"/>
        <pt x="564" y="591" on="1"/>
        <pt x="564" y="560" on="0"/>
        <pt x="540" y="524" on="0"/>
        <pt x="510" y="524" on="1"/>
        <pt x="498" y="524" on="0"/>
        <pt x="465" y="533" on="0"/>
        <pt x="447" y="550" on="1"/>
        <pt x="454" y="552" on="0"/>
        <pt x="465" y="567" on="0"/>
        <pt x="472" y="587" on="0"/>
        <pt x="476" y="607" on="0"/>
        <pt x="476" y="615" on="1"/>
        <pt x="476" y="627" on="0"/>
        <pt x="467" y="657" on="0"/>
        <pt x="447" y="684" on="0"/>
        <pt x="416" y="703" on="0"/>
        <pt x="394" y="703" on="1"/>
        <pt x="364" y="703" on="0"/>
        <pt x="316" y="665" on="0"/>
        <pt x="282" y="598" on="0"/>
        <pt x="260" y="504" on="0"/>
        <pt x="256" y="449" on="1"/>
        <pt x="456" y="449" on="1"/>
        <pt x="453" y="399" on="1"/>
        <pt x="254" y="399" on="1"/>
        <pt x="254" y="375" on="1"/>
        <pt x="254" y="364" on="0"/>
        <pt x="254" y="344" on="0"/>
        <pt x="255" y="334" on="1"/>
      </contour>
    </TTGlyph>
    <TTGlyph name="F" xMin="21" yMin="0" xMax="569" yMax="750">
      <contour>
        <pt x="502" y="450" on="1"/>
        <pt x="502" y="376" on="1"/>
        <pt x="356" y="376" on="1"/>
        <pt x="356" y="0" on="1"/>
        <pt x="210" y="0" on="1"/>
        <pt x="210" y="668" on="1"/>
        <pt x="188" y="666" on="0"/>
        <pt x="152" y="652" on="0"/>
        <pt x="127" y="621" on="0"/>
        <pt x="114" y="569" on="0"/>
        <pt x="114" y="530" on="1"/>
        <pt x="114" y="497" on="0"/>
        <pt x="123" y="450" on="0"/>
        <pt x="136" y="418" on="0"/>
        <pt x="150" y="399" on="0"/>
        <pt x="155" y="393" on="1"/>
        <pt x="87" y="393" on="0"/>
        <pt x="21" y="456" on="0"/>
        <pt x="21" y="525" on="1"/>
        <pt x="21" y="572" on="0"/>
        <pt x="53" y="654" on="0"/>
        <pt x="121" y="715" on="0"/>
        <pt x="226" y="750" on="0"/>
        <pt x="299" y="750" on="1"/>
        <pt x="324" y="750" on="0"/>
        <pt x="369" y="746" on="0"/>
        <pt x="411" y="742" on="0"/>
        <pt x="455" y="738" on="0"/>
        <pt x="480" y="738" on="1"/>
        <pt x="505" y="738" on="0"/>
        <pt x="549" y="743" on="0"/>
        <pt x="569" y="750" on="1"/>
        <pt x="569" y="710" on="0"/>
        <pt x="555" y="663" on="0"/>
        <pt x="531" y="638" on="0"/>
        <pt x="500" y="630" on="0"/>
        <pt x="483" y="630" on="1"/>
        <pt x="455" y="630" on="0"/>
        <pt x="390" y="641" on="0"/>
        <pt x="356" y="648" on="1"/>
        <pt x="356" y="450" on="1"/>
      </contour>
    </TTGlyph>
    <TTGlyph name="F_i" xMin="81" yMin="-6" xMax="912" yMax="750">
      <contour>
        <pt x="562" y="450" on="1"/>
        <pt x="562" y="376" on="1"/>
        <pt x="436" y="376" on="1"/>
        <pt x="436" y="0" on="1"/>
        <pt x="290" y="0" on="1"/>
        <pt x="290" y="668" on="1"/>
        <pt x="281" y="668" on="1"/>
        <pt x="257" y="668" on="0"/>
        <pt x="218" y="656" on="0"/>
        <pt x="190" y="626" on="0"/>
        <pt x="175" y="576" on="0"/>
        <pt x="175" y="538" on="1"/>
        <pt x="175" y="493" on="0"/>
        <pt x="186" y="440" on="0"/>
        <pt x="200" y="411" on="0"/>
        <pt x="213" y="399" on="0"/>
        <pt x="215" y="393" on="1"/>
        <pt x="149" y="393" on="0"/>
        <pt x="81" y="456" on="0"/>
        <pt x="81" y="535" on="1"/>
        <pt x="81" y="577" on="0"/>
        <pt x="112" y="655" on="0"/>
        <pt x="182" y="715" on="0"/>
        <pt x="293" y="750" on="0"/>
        <pt x="373" y="750" on="1"/>
        <pt x="424" y="750" on="0"/>
        <pt x="540" y="730" on="0"/>
        <pt x="608" y="730" on="1"/>
        <pt x="640" y="730" on="0"/>
        <pt x="711" y="738" on="0"/>
        <pt x="749" y="749" on="1"/>
        <pt x="749" y="722" on="0"/>
        <pt x="743" y="667" on="0"/>
        <pt x="724" y="622" on="0"/>
        <pt x="688" y="594" on="0"/>
        <pt x="658" y="594" on="1"/>
        <pt x="627" y="594" on="0"/>
        <pt x="575" y="605" on="0"/>
        <pt x="524" y="622" on="0"/>
        <pt x="469" y="642" on="0"/>
        <pt x="436" y="650" on="1"/>
        <pt x="436" y="450" on="1"/>
      </contour>
      <contour>
        <pt x="747" y="500" on="1"/>
        <pt x="747" y="160" on="1"/>
        <pt x="747" y="118" on="0"/>
        <pt x="770" y="91" on="0"/>
        <pt x="799" y="91" on="1"/>
        <pt x="828" y="91" on="0"/>
        <pt x="867" y="141" on="0"/>
        <pt x="870" y="179" on="1"/>
        <pt x="912" y="179" on="1"/>
        <pt x="904" y="118" on="0"/>
        <pt x="864" y="45" on="0"/>
        <pt x="814" y="6" on="0"/>
        <pt x="762" y="-6" on="0"/>
        <pt x="742" y="-6" on="1"/>
        <pt x="665" y="-6" on="0"/>
        <pt x="603" y="79" on="0"/>
        <pt x="603" y="149" on="1"/>
        <pt x="603" y="500" on="1"/>
      </contour>
    </TTGlyph>
    <TTGlyph name="G" xMin="33" yMin="-207" xMax="557" yMax="750">
      <contour>
        <pt x="557" y="418" on="1"/>
        <pt x="557" y="2" on="1"/>
        <pt x="557" y="-36" on="0"/>
        <pt x="538" y="-110" on="0"/>
        <pt x="491" y="-170" on="0"/>
        <pt x="413" y="-207" on="0"/>
        <pt x="354" y="-207" on="1"/>
        <pt x="307" y="-207" on="0"/>
        <pt x="241" y="-183" on="0"/>
        <pt x="199" y="-143" on="0"/>
        <pt x="180" y="-92" on="0"/>
        <pt x="180" y="-65" on="1"/>
        <pt x="180" y="-43" on="0"/>
        <pt x="193" y="4" on="0"/>
        <pt x="221" y="43" on="0"/>
        <pt x="268" y="68" on="0"/>
        <pt x="302" y="68" on="1"/>
        <pt x="311" y="68" on="0"/>
        <pt x="340" y="63" on="0"/>
        <pt x="369" y="43" on="0"/>
        <pt x="389" y="2" on="0"/>
        <pt x="389" y="-34" on="1"/>
        <pt x="375" y="-20" on="0"/>
        <pt x="349" y="-13" on="0"/>
        <pt x="339" y="-13" on="1"/>
        <pt x="300" y="-13" on="0"/>
        <pt x="270" y="-51" on="0"/>
        <pt x="270" y="-74" on="1"/>
        <pt x="270" y="-89" on="0"/>
        <pt x="280" y="-119" on="0"/>
        <pt x="301" y="-142" on="0"/>
        <pt x="330" y="-157" on="0"/>
        <pt x="350" y="-157" on="1"/>
        <pt x="383" y="-157" on="0"/>
        <pt x="426" y="-108" on="0"/>
        <pt x="426" y="-54" on="1"/>
        <pt x="426" y="194" on="1"/>
        <pt x="403" y="152" on="0"/>
        <pt x="327" y="109" on="0"/>
        <pt x="275" y="109" on="1"/>
        <pt x="224" y="109" on="0"/>
        <pt x="136" y="151" on="0"/>
        <pt x="70" y="231" on="0"/>
        <pt x="33" y="347" on="0"/>
        <pt x="33" y="420" on="1"/>
        <pt x="33" y="490" on="0"/>
        <pt x="70" y="611" on="0"/>
        <pt x="142" y="699" on="0"/>
        <pt x="249" y="750" on="0"/>
        <pt x="320" y="750" on="1"/>
        <pt x="359" y="750" on="0"/>
        <pt x="437" y="733" on="0"/>
        <pt x="500" y="695" on="0"/>
        <pt x="539" y="635" on="0"/>
        <pt x="539" y="592" on="1"/>
        <pt x="539" y="561" on="0"/>
        <pt x="514" y="524" on="0"/>
        <pt x="484" y="524" on="1"/>
        <pt x="472" y="524" on="0"/>
        <pt x="428" y="533" on="0"/>
        <pt x="410" y="550" on="1"/>
        <pt x="424" y="555" on="0"/>
        <pt x="438" y="598" on="0"/>
        <pt x="438" y="614" on="1"/>
        <pt x="438" y="623" on="0"/>
        <pt x="432" y="651" on="0"/>
        <pt x="415" y="678" on="0"/>
        <pt x="382" y="697" on="0"/>
        <pt x="355" y="697" on="1"/>
        <pt x="315" y="697" on="0"/>
        <pt x="252" y="652" on="0"/>
        <pt x="209" y="577" on="0"/>
        <pt x="187" y="479" on="0"/>
        <pt x="187" y="425" on="1"/>
        <pt x="187" y="366" on="0"/>
        <pt x="212" y="280" on="0"/>
        <pt x="251" y="223" on="0"/>
        <pt x="299" y="196" on="0"/>
        <pt x="323" y="196" on="1"/>
        <pt x="372" y="196" on="0"/>
        <pt x="435" y="308" on="0"/>
        <pt x="439" y="419" on="1"/>
      </contour>
    </TTGlyph>
    <TTGlyph name="Gbreve" xMin="33" yMin="-207" xMax="557" yMax="953">
      <contour>
        <pt x="557" y="418" on="1"/>
        <pt x="557" y="2" on="1"/>
        <pt x="557" y="-36" on="0"/>
        <pt x="538" y="-110" on="0"/>
        <pt x="491" y="-170" on="0"/>
        <pt x="413" y="-207" on="0"/>
        <pt x="354" y="-207" on="1"/>
        <pt x="307" y="-207" on="0"/>
        <pt x="241" y="-183" on="0"/>
        <pt x="199" y="-143" on="0"/>
        <pt x="180" y="-92" on="0"/>
        <pt x="180" y="-65" on="1"/>
        <pt x="180" y="-43" on="0"/>
        <pt x="193" y="4" on="0"/>
        <pt x="221" y="43" on="0"/>
        <pt x="268" y="68" on="0"/>
        <pt x="302" y="68" on="1"/>
        <pt x="311" y="68" on="0"/>
        <pt x="340" y="63" on="0"/>
        <pt x="369" y="43" on="0"/>
        <pt x="389" y="2" on="0"/>
        <pt x="389" y="-34" on="1"/>
        <pt x="375" y="-20" on="0"/>
        <pt x="349" y="-13" on="0"/>
        <pt x="339" y="-13" on="1"/>
        <pt x="300" y="-13" on="0"/>
        <pt x="270" y="-51" on="0"/>
        <pt x="270" y="-74" on="1"/>
        <pt x="270" y="-89" on="0"/>
        <pt x="280" y="-119" on="0"/>
        <pt x="301" y="-142" on="0"/>
        <pt x="330" y="-157" on="0"/>
        <pt x="350" y="-157" on="1"/>
        <pt x="383" y="-157" on="0"/>
        <pt x="426" y="-108" on="0"/>
        <pt x="426" y="-54" on="1"/>
        <pt x="426" y="194" on="1"/>
        <pt x="403" y="152" on="0"/>
        <pt x="327" y="109" on="0"/>
        <pt x="275" y="109" on="1"/>
        <pt x="224" y="109" on="0"/>
        <pt x="136" y="151" on="0"/>
        <pt x="70" y="231" on="0"/>
        <pt x="33" y="347" on="0"/>
        <pt x="33" y="420" on="1"/>
        <pt x="33" y="490" on="0"/>
        <pt x="70" y="611" on="0"/>
        <pt x="142" y="699" on="0"/>
        <pt x="249" y="750" on="0"/>
        <pt x="320" y="750" on="1"/>
        <pt x="359" y="750" on="0"/>
        <pt x="437" y="733" on="0"/>
        <pt x="500" y="695" on="0"/>
        <pt x="539" y="635" on="0"/>
        <pt x="539" y="592" on="1"/>
        <pt x="539" y="561" on="0"/>
        <pt x="514" y="524" on="0"/>
        <pt x="484" y="524" on="1"/>
        <pt x="472" y="524" on="0"/>
        <pt x="428" y="533" on="0"/>
        <pt x="410" y="550" on="1"/>
        <pt x="424" y="555" on="0"/>
        <pt x="438" y="598" on="0"/>
        <pt x="438" y="614" on="1"/>
        <pt x="438" y="623" on="0"/>
        <pt x="432" y="651" on="0"/>
        <pt x="415" y="678" on="0"/>
        <pt x="382" y="697" on="0"/>
        <pt x="355" y="697" on="1"/>
        <pt x="315" y="697" on="0"/>
        <pt x="252" y="652" on="0"/>
        <pt x="209" y="577" on="0"/>
        <pt x="187" y="479" on="0"/>
        <pt x="187" y="425" on="1"/>
        <pt x="187" y="366" on="0"/>
        <pt x="212" y="280" on="0"/>
        <pt x="251" y="223" on="0"/>
        <pt x="299" y="196" on="0"/>
        <pt x="323" y="196" on="1"/>
        <pt x="372" y="196" on="0"/>
        <pt x="435" y="308" on="0"/>
        <pt x="439" y="419" on="1"/>
      </contour>
      <contour>
        <pt x="465" y="953" on="1"/>
        <pt x="465" y="919" on="0"/>
        <pt x="434" y="869" on="0"/>
        <pt x="383" y="835" on="0"/>
        <pt x="318" y="818" on="0"/>
        <pt x="284" y="818" on="1"/>
        <pt x="250" y="818" on="0"/>
        <pt x="184" y="835" on="0"/>
        <pt x="133" y="869" on="0"/>
        <pt x="102" y="919" on="0"/>
        <pt x="102" y="953" on="1"/>
        <pt x="181" y="953" on="1"/>
        <pt x="181" y="930" on="0"/>
        <pt x="199" y="897" on="0"/>
        <pt x="228" y="874" on="0"/>
        <pt x="265" y="863" on="0"/>
        <pt x="285" y="863" on="1"/>
        <pt x="304" y="863" on="0"/>
        <pt x="342" y="874" on="0"/>
        <pt x="371" y="897" on="0"/>
        <pt x="389" y="930" on="0"/>
        <pt x="389" y="953" on="1"/>
      </contour>
    </TTGlyph>
    <TTGlyph name="H" xMin="18" yMin="0" xMax="648" yMax="750">
      <contour>
        <pt x="357" y="450" on="1"/>
        <pt x="504" y="450" on="1"/>
        <pt x="504" y="748" on="1"/>
        <pt x="648" y="748" on="1"/>
        <pt x="648" y="0" on="1"/>
        <pt x="504" y="0" on="1"/>
        <pt x="504" y="376" on="1"/>
        <pt x="357" y="376" on="1"/>
        <pt x="357" y="0" on="1"/>
        <pt x="213" y="0" on="1"/>
        <pt x="213" y="678" on="1"/>
        <pt x="165" y="655" on="0"/>
        <pt x="113" y="570" on="0"/>
        <pt x="113" y="510" on="1"/>
        <pt x="113" y="478" on="0"/>
        <pt x="122" y="439" on="0"/>
        <pt x="133" y="413" on="0"/>
        <pt x="145" y="399" on="0"/>
        <pt x="148" y="393" on="1"/>
        <pt x="88" y="393" on="0"/>
        <pt x="18" y="448" on="0"/>
        <pt x="18" y="514" on="1"/>
        <pt x="18" y="562" on="0"/>
        <pt x="68" y="647" on="0"/>
        <pt x="151" y="712" on="0"/>
        <pt x="258" y="750" on="0"/>
        <pt x="315" y="750" on="1"/>
        <pt x="326" y="750" on="0"/>
        <pt x="347" y="749" on="0"/>
        <pt x="357" y="748" on="1"/>
      </contour>
    </TTGlyph>
    <TTGlyph name="I" xMin="18" yMin="0" xMax="357" yMax="750">
      <contour>
        <pt x="357" y="0" on="1"/>
        <pt x="213" y="0" on="1"/>
        <pt x="213" y="678" on="1"/>
        <pt x="165" y="655" on="0"/>
        <pt x="113" y="570" on="0"/>
        <pt x="113" y="510" on="1"/>
        <pt x="113" y="479" on="0"/>
        <pt x="122" y="439" on="0"/>
        <pt x="133" y="414" on="0"/>
        <pt x="145" y="399" on="0"/>
        <pt x="148" y="393" on="1"/>
        <pt x="88" y="393" on="0"/>
        <pt x="18" y="448" on="0"/>
        <pt x="18" y="514" on="1"/>
        <pt x="18" y="562" on="0"/>
        <pt x="68" y="647" on="0"/>
        <pt x="151" y="712" on="0"/>
        <pt x="258" y="750" on="0"/>
        <pt x="315" y="750" on="1"/>
        <pt x="326" y="750" on="0"/>
        <pt x="347" y="749" on="0"/>
        <pt x="357" y="748" on="1"/>
      </contour>
    </TTGlyph>
    <TTGlyph name="IJ" xMin="18" yMin="-207" xMax="634" yMax="750">
      <contour>
        <pt x="357" y="58" on="1"/>
        <pt x="391" y="54" on="0"/>
        <pt x="439" y="14" on="0"/>
        <pt x="439" y="-18" on="1"/>
        <pt x="439" y="-23" on="0"/>
        <pt x="438" y="-34" on="0"/>
        <pt x="437" y="-39" on="1"/>
        <pt x="410" y="-18" on="0"/>
        <pt x="385" y="-18" on="1"/>
        <pt x="360" y="-18" on="0"/>
        <pt x="332" y="-57" on="0"/>
        <pt x="332" y="-83" on="1"/>
        <pt x="332" y="-102" on="0"/>
        <pt x="346" y="-130" on="0"/>
        <pt x="369" y="-148" on="0"/>
        <pt x="397" y="-157" on="0"/>
        <pt x="411" y="-157" on="1"/>
        <pt x="425" y="-157" on="0"/>
        <pt x="451" y="-146" on="0"/>
        <pt x="472" y="-119" on="0"/>
        <pt x="485" y="-71" on="0"/>
        <pt x="485" y="-34" on="1"/>
        <pt x="485" y="717" on="1"/>
        <pt x="634" y="750" on="1"/>
        <pt x="634" y="40" on="1"/>
        <pt x="634" y="-14" on="0"/>
        <pt x="612" y="-104" on="0"/>
        <pt x="562" y="-170" on="0"/>
        <pt x="480" y="-207" on="0"/>
        <pt x="420" y="-207" on="1"/>
        <pt x="328" y="-207" on="0"/>
        <pt x="242" y="-126" on="0"/>
        <pt x="242" y="-62" on="1"/>
        <pt x="242" y="-45" on="0"/>
        <pt x="247" y="-14" on="0"/>
        <pt x="253" y="0" on="1"/>
        <pt x="213" y="0" on="1"/>
        <pt x="213" y="678" on="1"/>
        <pt x="165" y="655" on="0"/>
        <pt x="113" y="570" on="0"/>
        <pt x="113" y="510" on="1"/>
        <pt x="113" y="479" on="0"/>
        <pt x="122" y="439" on="0"/>
        <pt x="133" y="414" on="0"/>
        <pt x="145" y="399" on="0"/>
        <pt x="148" y="393" on="1"/>
        <pt x="88" y="393" on="0"/>
        <pt x="18" y="448" on="0"/>
        <pt x="18" y="514" on="1"/>
        <pt x="18" y="562" on="0"/>
        <pt x="68" y="647" on="0"/>
        <pt x="151" y="712" on="0"/>
        <pt x="258" y="750" on="0"/>
        <pt x="315" y="750" on="1"/>
        <pt x="326" y="750" on="0"/>
        <pt x="347" y="749" on="0"/>
        <pt x="357" y="748" on="1"/>
      </contour>
    </TTGlyph>
    <TTGlyph name="Iacute" xMin="18" yMin="0" xMax="407" yMax="1000">
      <contour>
        <pt x="357" y="0" on="1"/>
        <pt x="213" y="0" on="1"/>
        <pt x="213" y="678" on="1"/>
        <pt x="165" y="655" on="0"/>
        <pt x="113" y="570" on="0"/>
        <pt x="113" y="510" on="1"/>
        <pt x="113" y="479" on="0"/>
        <pt x="122" y="439" on="0"/>
        <pt x="133" y="414" on="0"/>
        <pt x="145" y="399" on="0"/>
        <pt x="148" y="393" on="1"/>
        <pt x="88" y="393" on="0"/>
        <pt x="18" y="448" on="0"/>
        <pt x="18" y="514" on="1"/>
        <pt x="18" y="562" on="0"/>
        <pt x="68" y="647" on="0"/>
        <pt x="151" y="712" on="0"/>
        <pt x="258" y="750" on="0"/>
        <pt x="315" y="750" on="1"/>
        <pt x="326" y="750" on="0"/>
        <pt x="347" y="749" on="0"/>
        <pt x="357" y="748" on="1"/>
      </contour>
      <contour>
        <pt x="302" y="1000" on="1"/>
        <pt x="407" y="1000" on="1"/>
        <pt x="326" y="811" on="1"/>
        <pt x="251" y="811" on="1"/>
      </contour>
    </TTGlyph>
    <TTGlyph name="Icircumflex" xMin="18" yMin="0" xMax="426" yMax="1000">
      <contour>
        <pt x="357" y="0" on="1"/>
        <pt x="213" y="0" on="1"/>
        <pt x="213" y="678" on="1"/>
        <pt x="165" y="655" on="0"/>
        <pt x="113" y="570" on="0"/>
        <pt x="113" y="510" on="1"/>
        <pt x="113" y="479" on="0"/>
        <pt x="122" y="439" on="0"/>
        <pt x="133" y="414" on="0"/>
        <pt x="145" y="399" on="0"/>
        <pt x="148" y="393" on="1"/>
        <pt x="88" y="393" on="0"/>
        <pt x="18" y="448" on="0"/>
        <pt x="18" y="514" on="1"/>
        <pt x="18" y="562" on="0"/>
        <pt x="68" y="647" on="0"/>
        <pt x="151" y="712" on="0"/>
        <pt x="258" y="750" on="0"/>
        <pt x="315" y="750" on="1"/>
        <pt x="326" y="750" on="0"/>
        <pt x="347" y="749" on="0"/>
        <pt x="357" y="748" on="1"/>
      </contour>
      <contour>
        <pt x="394" y="811" on="1"/>
        <pt x="317" y="891" on="1"/>
        <pt x="177" y="811" on="1"/>
        <pt x="133" y="811" on="1"/>
        <pt x="305" y="1000" on="1"/>
        <pt x="326" y="1000" on="1"/>
        <pt x="426" y="811" on="1"/>
      </contour>
    </TTGlyph>
    <TTGlyph name="Idieresis" xMin="18" yMin="0" xMax="436" yMax="945">
      <contour>
        <pt x="357" y="0" on="1"/>
        <pt x="213" y="0" on="1"/>
        <pt x="213" y="678" on="1"/>
        <pt x="165" y="655" on="0"/>
        <pt x="113" y="570" on="0"/>
        <pt x="113" y="510" on="1"/>
        <pt x="113" y="479" on="0"/>
        <pt x="122" y="439" on="0"/>
        <pt x="133" y="414" on="0"/>
        <pt x="145" y="399" on="0"/>
        <pt x="148" y="393" on="1"/>
        <pt x="88" y="393" on="0"/>
        <pt x="18" y="448" on="0"/>
        <pt x="18" y="514" on="1"/>
        <pt x="18" y="562" on="0"/>
        <pt x="68" y="647" on="0"/>
        <pt x="151" y="712" on="0"/>
        <pt x="258" y="750" on="0"/>
        <pt x="315" y="750" on="1"/>
        <pt x="326" y="750" on="0"/>
        <pt x="347" y="749" on="0"/>
        <pt x="357" y="748" on="1"/>
      </contour>
      <contour>
        <pt x="314" y="884" on="1"/>
        <pt x="314" y="909" on="0"/>
        <pt x="349" y="945" on="0"/>
        <pt x="375" y="945" on="1"/>
        <pt x="400" y="945" on="0"/>
        <pt x="436" y="909" on="0"/>
        <pt x="436" y="884" on="1"/>
        <pt x="436" y="858" on="0"/>
        <pt x="400" y="823" on="0"/>
        <pt x="375" y="823" on="1"/>
        <pt x="349" y="823" on="0"/>
        <pt x="314" y="858" on="0"/>
      </contour>
      <contour>
        <pt x="134" y="884" on="1"/>
        <pt x="134" y="909" on="0"/>
        <pt x="169" y="945" on="0"/>
        <pt x="195" y="945" on="1"/>
        <pt x="220" y="945" on="0"/>
        <pt x="256" y="909" on="0"/>
        <pt x="256" y="884" on="1"/>
        <pt x="256" y="858" on="0"/>
        <pt x="220" y="823" on="0"/>
        <pt x="195" y="823" on="1"/>
        <pt x="169" y="823" on="0"/>
        <pt x="134" y="858" on="0"/>
      </contour>
    </TTGlyph>
    <TTGlyph name="Igrave" xMin="18" yMin="0" xMax="357" yMax="1000">
      <contour>
        <pt x="357" y="0" on="1"/>
        <pt x="213" y="0" on="1"/>
        <pt x="213" y="678" on="1"/>
        <pt x="165" y="655" on="0"/>
        <pt x="113" y="570" on="0"/>
        <pt x="113" y="510" on="1"/>
        <pt x="113" y="479" on="0"/>
        <pt x="122" y="439" on="0"/>
        <pt x="133" y="414" on="0"/>
        <pt x="145" y="399" on="0"/>
        <pt x="148" y="393" on="1"/>
        <pt x="88" y="393" on="0"/>
        <pt x="18" y="448" on="0"/>
        <pt x="18" y="514" on="1"/>
        <pt x="18" y="562" on="0"/>
        <pt x="68" y="647" on="0"/>
        <pt x="151" y="712" on="0"/>
        <pt x="258" y="750" on="0"/>
        <pt x="315" y="750" on="1"/>
        <pt x="326" y="750" on="0"/>
        <pt x="347" y="749" on="0"/>
        <pt x="357" y="748" on="1"/>
      </contour>
      <contour>
        <pt x="147" y="1000" on="1"/>
        <pt x="252" y="1000" on="1"/>
        <pt x="321" y="811" on="1"/>
        <pt x="246" y="811" on="1"/>
      </contour>
    </TTGlyph>
    <TTGlyph name="J" xMin="-3" yMin="-207" xMax="388" yMax="750">
      <contour>
        <pt x="388" y="750" on="1"/>
        <pt x="388" y="30" on="1"/>
        <pt x="388" y="-28" on="0"/>
        <pt x="366" y="-117" on="0"/>
        <pt x="317" y="-177" on="0"/>
        <pt x="239" y="-207" on="0"/>
        <pt x="182" y="-207" on="1"/>
        <pt x="89" y="-207" on="0"/>
        <pt x="-3" y="-131" on="0"/>
        <pt x="-3" y="-64" on="1"/>
        <pt x="-3" y="-46" on="0"/>
        <pt x="6" y="0" on="0"/>
        <pt x="34" y="41" on="0"/>
        <pt x="83" y="68" on="0"/>
        <pt x="124" y="68" on="1"/>
        <pt x="136" y="68" on="0"/>
        <pt x="165" y="63" on="0"/>
        <pt x="191" y="42" on="0"/>
        <pt x="209" y="2" on="0"/>
        <pt x="209" y="-34" on="1"/>
        <pt x="193" y="-21" on="0"/>
        <pt x="169" y="-13" on="0"/>
        <pt x="153" y="-13" on="1"/>
        <pt x="116" y="-13" on="0"/>
        <pt x="87" y="-45" on="0"/>
        <pt x="87" y="-71" on="1"/>
        <pt x="87" y="-112" on="0"/>
        <pt x="139" y="-157" on="0"/>
        <pt x="177" y="-157" on="1"/>
        <pt x="191" y="-157" on="0"/>
        <pt x="217" y="-148" on="0"/>
        <pt x="236" y="-121" on="0"/>
        <pt x="247" y="-73" on="0"/>
        <pt x="247" y="-34" on="1"/>
        <pt x="247" y="680" on="1"/>
        <pt x="201" y="659" on="0"/>
        <pt x="145" y="574" on="0"/>
        <pt x="145" y="505" on="1"/>
        <pt x="145" y="476" on="0"/>
        <pt x="155" y="436" on="0"/>
        <pt x="167" y="411" on="0"/>
        <pt x="178" y="397" on="0"/>
        <pt x="180" y="393" on="1"/>
        <pt x="120" y="393" on="0"/>
        <pt x="50" y="449" on="0"/>
        <pt x="50" y="509" on="1"/>
        <pt x="50" y="560" on="0"/>
        <pt x="100" y="648" on="0"/>
        <pt x="183" y="713" on="0"/>
        <pt x="291" y="750" on="0"/>
        <pt x="348" y="750" on="1"/>
      </contour>
    </TTGlyph>
    <TTGlyph name="K" xMin="18" yMin="-17" xMax="654" yMax="750">
      <contour>
        <pt x="357" y="428" on="1"/>
        <pt x="531" y="745" on="1"/>
        <pt x="624" y="745" on="1"/>
        <pt x="411" y="425" on="1"/>
        <pt x="422" y="425" on="0"/>
        <pt x="435" y="426" on="0"/>
        <pt x="446" y="426" on="1"/>
        <pt x="522" y="426" on="0"/>
        <pt x="602" y="350" on="0"/>
        <pt x="602" y="258" on="1"/>
        <pt x="602" y="244" on="0"/>
        <pt x="600" y="203" on="0"/>
        <pt x="599" y="161" on="0"/>
        <pt x="597" y="123" on="0"/>
        <pt x="597" y="111" on="1"/>
        <pt x="597" y="62" on="0"/>
        <pt x="628" y="10" on="0"/>
        <pt x="654" y="0" on="1"/>
        <pt x="624" y="-9" on="0"/>
        <pt x="576" y="-17" on="0"/>
        <pt x="557" y="-17" on="1"/>
        <pt x="508" y="-17" on="0"/>
        <pt x="462" y="36" on="0"/>
        <pt x="462" y="94" on="1"/>
        <pt x="462" y="108" on="0"/>
        <pt x="464" y="150" on="0"/>
        <pt x="467" y="196" on="0"/>
        <pt x="469" y="241" on="0"/>
        <pt x="469" y="259" on="1"/>
        <pt x="469" y="313" on="0"/>
        <pt x="437" y="381" on="0"/>
        <pt x="391" y="381" on="1"/>
        <pt x="382" y="381" on="0"/>
        <pt x="364" y="379" on="0"/>
        <pt x="357" y="377" on="1"/>
        <pt x="357" y="0" on="1"/>
        <pt x="213" y="0" on="1"/>
        <pt x="213" y="678" on="1"/>
        <pt x="165" y="655" on="0"/>
        <pt x="113" y="568" on="0"/>
        <pt x="113" y="505" on="1"/>
        <pt x="113" y="478" on="0"/>
        <pt x="122" y="439" on="0"/>
        <pt x="134" y="413" on="0"/>
        <pt x="145" y="397" on="0"/>
        <pt x="148" y="393" on="1"/>
        <pt x="88" y="393" on="0"/>
        <pt x="18" y="449" on="0"/>
        <pt x="18" y="509" on="1"/>
        <pt x="18" y="560" on="0"/>
        <pt x="68" y="648" on="0"/>
        <pt x="151" y="713" on="0"/>
        <pt x="258" y="750" on="0"/>
        <pt x="315" y="750" on="1"/>
        <pt x="326" y="750" on="0"/>
        <pt x="347" y="749" on="0"/>
        <pt x="357" y="748" on="1"/>
      </contour>
    </TTGlyph>
    <TTGlyph name="L" xMin="17" yMin="-250" xMax="799" yMax="740">
      <contour>
        <pt x="356" y="19" on="1"/>
        <pt x="397" y="10" on="0"/>
        <pt x="484" y="-32" on="0"/>
        <pt x="576" y="-76" on="0"/>
        <pt x="671" y="-109" on="0"/>
        <pt x="719" y="-109" on="1"/>
        <pt x="738" y="-109" on="0"/>
        <pt x="778" y="-102" on="0"/>
        <pt x="798" y="-93" on="1"/>
        <pt x="799" y="-98" on="0"/>
        <pt x="799" y="-106" on="0"/>
        <pt x="799" y="-111" on="1"/>
        <pt x="799" y="-134" on="0"/>
        <pt x="785" y="-183" on="0"/>
        <pt x="758" y="-223" on="0"/>
        <pt x="716" y="-250" on="0"/>
        <pt x="688" y="-250" on="1"/>
        <pt x="656" y="-250" on="0"/>
        <pt x="589" y="-216" on="0"/>
        <pt x="517" y="-166" on="0"/>
        <pt x="441" y="-107" on="0"/>
        <pt x="361" y="-57" on="0"/>
        <pt x="277" y="-23" on="0"/>
        <pt x="234" y="-23" on="1"/>
        <pt x="228" y="-23" on="0"/>
        <pt x="217" y="-23" on="0"/>
        <pt x="211" y="-24" on="1"/>
        <pt x="211" y="668" on="1"/>
        <pt x="163" y="645" on="0"/>
        <pt x="112" y="558" on="0"/>
        <pt x="112" y="496" on="1"/>
        <pt x="112" y="469" on="0"/>
        <pt x="121" y="430" on="0"/>
        <pt x="132" y="404" on="0"/>
        <pt x="144" y="387" on="0"/>
        <pt x="147" y="383" on="1"/>
        <pt x="87" y="383" on="0"/>
        <pt x="17" y="439" on="0"/>
        <pt x="17" y="499" on="1"/>
        <pt x="17" y="550" on="0"/>
        <pt x="67" y="638" on="0"/>
        <pt x="150" y="703" on="0"/>
        <pt x="257" y="740" on="0"/>
        <pt x="314" y="740" on="1"/>
        <pt x="325" y="740" on="0"/>
        <pt x="346" y="739" on="0"/>
        <pt x="356" y="738" on="1"/>
      </contour>
    </TTGlyph>
    <TTGlyph name="Lslash" xMin="18" yMin="-250" xMax="800" yMax="740">
      <contour>
        <pt x="357" y="466" on="1"/>
        <pt x="460" y="544" on="1"/>
        <pt x="469" y="483" on="1"/>
        <pt x="357" y="401" on="1"/>
        <pt x="357" y="19" on="1"/>
        <pt x="398" y="10" on="0"/>
        <pt x="485" y="-32" on="0"/>
        <pt x="577" y="-76" on="0"/>
        <pt x="672" y="-109" on="0"/>
        <pt x="720" y="-109" on="1"/>
        <pt x="739" y="-109" on="0"/>
        <pt x="779" y="-102" on="0"/>
        <pt x="799" y="-93" on="1"/>
        <pt x="800" y="-98" on="0"/>
        <pt x="800" y="-106" on="0"/>
        <pt x="800" y="-111" on="1"/>
        <pt x="800" y="-134" on="0"/>
        <pt x="786" y="-183" on="0"/>
        <pt x="759" y="-223" on="0"/>
        <pt x="717" y="-250" on="0"/>
        <pt x="689" y="-250" on="1"/>
        <pt x="658" y="-250" on="0"/>
        <pt x="590" y="-216" on="0"/>
        <pt x="518" y="-166" on="0"/>
        <pt x="442" y="-107" on="0"/>
        <pt x="362" y="-57" on="0"/>
        <pt x="278" y="-23" on="0"/>
        <pt x="235" y="-23" on="1"/>
        <pt x="229" y="-23" on="0"/>
        <pt x="218" y="-23" on="0"/>
        <pt x="212" y="-24" on="1"/>
        <pt x="212" y="295" on="1"/>
        <pt x="158" y="256" on="1"/>
        <pt x="149" y="309" on="1"/>
        <pt x="212" y="356" on="1"/>
        <pt x="212" y="668" on="1"/>
        <pt x="164" y="645" on="0"/>
        <pt x="113" y="558" on="0"/>
        <pt x="113" y="496" on="1"/>
        <pt x="113" y="469" on="0"/>
        <pt x="122" y="430" on="0"/>
        <pt x="133" y="404" on="0"/>
        <pt x="145" y="387" on="0"/>
        <pt x="148" y="383" on="1"/>
        <pt x="88" y="383" on="0"/>
        <pt x="18" y="439" on="0"/>
        <pt x="18" y="499" on="1"/>
        <pt x="18" y="550" on="0"/>
        <pt x="68" y="638" on="0"/>
        <pt x="151" y="703" on="0"/>
        <pt x="258" y="740" on="0"/>
        <pt x="315" y="740" on="1"/>
        <pt x="326" y="740" on="0"/>
        <pt x="347" y="739" on="0"/>
        <pt x="357" y="738" on="1"/>
      </contour>
    </TTGlyph>
    <TTGlyph name="M" xMin="21" yMin="0" xMax="757" yMax="750">
      <contour>
        <pt x="125" y="0" on="1"/>
        <pt x="232" y="685" on="1"/>
        <pt x="176" y="663" on="0"/>
        <pt x="115" y="574" on="0"/>
        <pt x="115" y="510" on="1"/>
        <pt x="115" y="480" on="0"/>
        <pt x="124" y="440" on="0"/>
        <pt x="136" y="414" on="0"/>
        <pt x="148" y="399" on="0"/>
        <pt x="151" y="393" on="1"/>
        <pt x="93" y="393" on="0"/>
        <pt x="21" y="447" on="0"/>
        <pt x="21" y="511" on="1"/>
        <pt x="21" y="555" on="0"/>
        <pt x="65" y="641" on="0"/>
        <pt x="138" y="708" on="0"/>
        <pt x="233" y="750" on="0"/>
        <pt x="284" y="750" on="1"/>
        <pt x="325" y="750" on="0"/>
        <pt x="365" y="736" on="1"/>
        <pt x="454" y="209" on="1"/>
        <pt x="562" y="736" on="1"/>
        <pt x="706" y="736" on="1"/>
        <pt x="757" y="0" on="1"/>
        <pt x="613" y="0" on="1"/>
        <pt x="582" y="449" on="1"/>
        <pt x="489" y="0" on="1"/>
        <pt x="352" y="0" on="1"/>
        <pt x="276" y="449" on="1"/>
        <pt x="205" y="0" on="1"/>
      </contour>
    </TTGlyph>
    <TTGlyph name="N" xMin="20" yMin="0" xMax="672" yMax="750">
      <contour>
        <pt x="672" y="748" on="1"/>
        <pt x="672" y="0" on="1"/>
        <pt x="534" y="0" on="1"/>
        <pt x="308" y="498" on="1"/>
        <pt x="308" y="0" on="1"/>
        <pt x="212" y="0" on="1"/>
        <pt x="212" y="678" on="1"/>
        <pt x="166" y="656" on="0"/>
        <pt x="116" y="576" on="0"/>
        <pt x="116" y="516" on="1"/>
        <pt x="116" y="484" on="0"/>
        <pt x="124" y="443" on="0"/>
        <pt x="135" y="417" on="0"/>
        <pt x="147" y="400" on="0"/>
        <pt x="152" y="393" on="1"/>
        <pt x="86" y="393" on="0"/>
        <pt x="20" y="454" on="0"/>
        <pt x="20" y="526" on="1"/>
        <pt x="20" y="567" on="0"/>
        <pt x="52" y="647" on="0"/>
        <pt x="115" y="711" on="0"/>
        <pt x="211" y="750" on="0"/>
        <pt x="275" y="750" on="1"/>
        <pt x="287" y="750" on="0"/>
        <pt x="325" y="746" on="0"/>
        <pt x="348" y="736" on="1"/>
        <pt x="581" y="206" on="1"/>
        <pt x="581" y="748" on="1"/>
      </contour>
    </TTGlyph>
    <TTGlyph name="N.salt" xMin="18" yMin="-6" xMax="792" yMax="750">
      <contour>
        <pt x="357" y="654" on="1"/>
        <pt x="375" y="699" on="0"/>
        <pt x="439" y="750" on="0"/>
        <pt x="484" y="750" on="1"/>
        <pt x="518" y="750" on="0"/>
        <pt x="576" y="721" on="0"/>
        <pt x="618" y="663" on="0"/>
        <pt x="642" y="577" on="0"/>
        <pt x="642" y="520" on="1"/>
        <pt x="642" y="485" on="0"/>
        <pt x="639" y="393" on="0"/>
        <pt x="635" y="298" on="0"/>
        <pt x="632" y="211" on="0"/>
        <pt x="632" y="183" on="1"/>
        <pt x="632" y="133" on="0"/>
        <pt x="656" y="91" on="0"/>
        <pt x="684" y="91" on="1"/>
        <pt x="717" y="91" on="0"/>
        <pt x="742" y="140" on="0"/>
        <pt x="750" y="179" on="1"/>
        <pt x="792" y="179" on="1"/>
        <pt x="784" y="117" on="0"/>
        <pt x="751" y="44" on="0"/>
        <pt x="710" y="6" on="0"/>
        <pt x="665" y="-6" on="0"/>
        <pt x="645" y="-6" on="1"/>
        <pt x="569" y="-6" on="0"/>
        <pt x="498" y="98" on="0"/>
        <pt x="498" y="192" on="1"/>
        <pt x="498" y="222" on="0"/>
        <pt x="500" y="306" on="0"/>
        <pt x="502" y="395" on="0"/>
        <pt x="504" y="477" on="0"/>
        <pt x="504" y="506" on="1"/>
        <pt x="504" y="556" on="0"/>
        <pt x="489" y="617" on="0"/>
        <pt x="467" y="649" on="0"/>
        <pt x="444" y="659" on="0"/>
        <pt x="435" y="659" on="1"/>
        <pt x="420" y="659" on="0"/>
        <pt x="391" y="638" on="0"/>
        <pt x="370" y="605" on="0"/>
        <pt x="357" y="565" on="0"/>
        <pt x="357" y="546" on="1"/>
        <pt x="357" y="0" on="1"/>
        <pt x="200" y="0" on="1"/>
        <pt x="200" y="671" on="1"/>
        <pt x="158" y="647" on="0"/>
        <pt x="113" y="565" on="0"/>
        <pt x="113" y="510" on="1"/>
        <pt x="113" y="475" on="0"/>
        <pt x="123" y="434" on="0"/>
        <pt x="135" y="410" on="0"/>
        <pt x="146" y="399" on="0"/>
        <pt x="148" y="393" on="1"/>
        <pt x="88" y="393" on="0"/>
        <pt x="18" y="448" on="0"/>
        <pt x="18" y="514" on="1"/>
        <pt x="18" y="562" on="0"/>
        <pt x="68" y="647" on="0"/>
        <pt x="151" y="712" on="0"/>
        <pt x="258" y="750" on="0"/>
        <pt x="315" y="750" on="1"/>
        <pt x="326" y="750" on="0"/>
        <pt x="347" y="749" on="0"/>
        <pt x="357" y="748" on="1"/>
      </contour>
    </TTGlyph>
    <TTGlyph name="Nacute" xMin="20" yMin="0" xMax="672" yMax="1000">
      <contour>
        <pt x="672" y="748" on="1"/>
        <pt x="672" y="0" on="1"/>
        <pt x="534" y="0" on="1"/>
        <pt x="308" y="498" on="1"/>
        <pt x="308" y="0" on="1"/>
        <pt x="212" y="0" on="1"/>
        <pt x="212" y="678" on="1"/>
        <pt x="166" y="656" on="0"/>
        <pt x="116" y="576" on="0"/>
        <pt x="116" y="516" on="1"/>
        <pt x="116" y="484" on="0"/>
        <pt x="124" y="443" on="0"/>
        <pt x="135" y="417" on="0"/>
        <pt x="147" y="400" on="0"/>
        <pt x="152" y="393" on="1"/>
        <pt x="86" y="393" on="0"/>
        <pt x="20" y="454" on="0"/>
        <pt x="20" y="526" on="1"/>
        <pt x="20" y="567" on="0"/>
        <pt x="52" y="647" on="0"/>
        <pt x="115" y="711" on="0"/>
        <pt x="211" y="750" on="0"/>
        <pt x="275" y="750" on="1"/>
        <pt x="287" y="750" on="0"/>
        <pt x="325" y="746" on="0"/>
        <pt x="348" y="736" on="1"/>
        <pt x="581" y="206" on="1"/>
        <pt x="581" y="748" on="1"/>
      </contour>
      <contour>
        <pt x="465" y="1000" on="1"/>
        <pt x="570" y="1000" on="1"/>
        <pt x="489" y="811" on="1"/>
        <pt x="414" y="811" on="1"/>
      </contour>
    </TTGlyph>
    <TTGlyph name="Ntilde" xMin="20" yMin="0" xMax="672" yMax="930">
      <contour>
        <pt x="672" y="748" on="1"/>
        <pt x="672" y="0" on="1"/>
        <pt x="534" y="0" on="1"/>
        <pt x="308" y="498" on="1"/>
        <pt x="308" y="0" on="1"/>
        <pt x="212" y="0" on="1"/>
        <pt x="212" y="678" on="1"/>
        <pt x="166" y="656" on="0"/>
        <pt x="116" y="576" on="0"/>
        <pt x="116" y="516" on="1"/>
        <pt x="116" y="484" on="0"/>
        <pt x="124" y="443" on="0"/>
        <pt x="135" y="417" on="0"/>
        <pt x="147" y="400" on="0"/>
        <pt x="152" y="393" on="1"/>
        <pt x="86" y="393" on="0"/>
        <pt x="20" y="454" on="0"/>
        <pt x="20" y="526" on="1"/>
        <pt x="20" y="567" on="0"/>
        <pt x="52" y="647" on="0"/>
        <pt x="115" y="711" on="0"/>
        <pt x="211" y="750" on="0"/>
        <pt x="275" y="750" on="1"/>
        <pt x="287" y="750" on="0"/>
        <pt x="325" y="746" on="0"/>
        <pt x="348" y="736" on="1"/>
        <pt x="581" y="206" on="1"/>
        <pt x="581" y="748" on="1"/>
      </contour>
      <contour>
        <pt x="636" y="919" on="1"/>
        <pt x="635" y="901" on="0"/>
        <pt x="613" y="866" on="0"/>
        <pt x="575" y="837" on="0"/>
        <pt x="524" y="819" on="0"/>
        <pt x="496" y="819" on="1"/>
        <pt x="471" y="819" on="0"/>
        <pt x="426" y="831" on="0"/>
        <pt x="382" y="844" on="0"/>
        <pt x="341" y="856" on="0"/>
        <pt x="320" y="856" on="1"/>
        <pt x="282" y="856" on="0"/>
        <pt x="259" y="830" on="1"/>
        <pt x="253" y="832" on="1"/>
        <pt x="267" y="880" on="0"/>
        <pt x="342" y="930" on="0"/>
        <pt x="399" y="930" on="1"/>
        <pt x="426" y="930" on="0"/>
        <pt x="471" y="920" on="0"/>
        <pt x="511" y="907" on="0"/>
        <pt x="549" y="897" on="0"/>
        <pt x="571" y="897" on="1"/>
        <pt x="590" y="897" on="0"/>
        <pt x="621" y="909" on="0"/>
        <pt x="629" y="920" on="1"/>
      </contour>
    </TTGlyph>
    <TTGlyph name="O" xMin="17" yMin="-6" xMax="670" yMax="750">
      <contour>
        <pt x="391" y="656" on="1"/>
        <pt x="370" y="642" on="0"/>
        <pt x="339" y="566" on="0"/>
        <pt x="318" y="468" on="0"/>
        <pt x="308" y="360" on="0"/>
        <pt x="308" y="312" on="1"/>
        <pt x="308" y="240" on="0"/>
        <pt x="329" y="150" on="0"/>
        <pt x="360" y="100" on="0"/>
        <pt x="395" y="83" on="0"/>
        <pt x="409" y="83" on="1"/>
        <pt x="439" y="83" on="0"/>
        <pt x="484" y="138" on="0"/>
        <pt x="515" y="230" on="0"/>
        <pt x="530" y="349" on="0"/>
        <pt x="530" y="413" on="1"/>
        <pt x="530" y="504" on="0"/>
        <pt x="501" y="618" on="0"/>
        <pt x="451" y="682" on="0"/>
        <pt x="384" y="704" on="0"/>
        <pt x="347" y="704" on="1"/>
        <pt x="299" y="704" on="0"/>
        <pt x="213" y="675" on="0"/>
        <pt x="149" y="619" on="0"/>
        <pt x="112" y="537" on="0"/>
        <pt x="112" y="485" on="1"/>
        <pt x="112" y="448" on="0"/>
        <pt x="128" y="409" on="0"/>
        <pt x="139" y="393" on="1"/>
        <pt x="82" y="393" on="0"/>
        <pt x="17" y="444" on="0"/>
        <pt x="17" y="500" on="1"/>
        <pt x="17" y="551" on="0"/>
        <pt x="72" y="642" on="0"/>
        <pt x="166" y="710" on="0"/>
        <pt x="293" y="750" on="0"/>
        <pt x="365" y="750" on="1"/>
        <pt x="452" y="750" on="0"/>
        <pt x="570" y="692" on="0"/>
        <pt x="640" y="592" on="0"/>
        <pt x="670" y="460" on="0"/>
        <pt x="670" y="387" on="1"/>
        <pt x="670" y="343" on="0"/>
        <pt x="660" y="251" on="0"/>
        <pt x="635" y="164" on="0"/>
        <pt x="595" y="86" on="0"/>
        <pt x="535" y="28" on="0"/>
        <pt x="453" y="-6" on="0"/>
        <pt x="400" y="-6" on="1"/>
        <pt x="352" y="-6" on="0"/>
        <pt x="265" y="26" on="0"/>
        <pt x="198" y="100" on="0"/>
        <pt x="159" y="221" on="0"/>
        <pt x="159" y="311" on="1"/>
        <pt x="159" y="365" on="0"/>
        <pt x="176" y="489" on="0"/>
        <pt x="218" y="594" on="0"/>
        <pt x="288" y="664" on="0"/>
        <pt x="340" y="664" on="1"/>
        <pt x="351" y="664" on="0"/>
        <pt x="377" y="661" on="0"/>
      </contour>
    </TTGlyph>
    <TTGlyph name="OE" xMin="17" yMin="-6" xMax="861" yMax="750">
      <contour>
        <pt x="801" y="419" on="1"/>
        <pt x="801" y="345" on="1"/>
        <pt x="669" y="345" on="1"/>
        <pt x="665" y="282" on="0"/>
        <pt x="636" y="157" on="0"/>
        <pt x="604" y="106" on="1"/>
        <pt x="850" y="106" on="1"/>
        <pt x="850" y="0" on="1"/>
        <pt x="464" y="0" on="1"/>
        <pt x="450" y="-2" on="0"/>
        <pt x="417" y="-6" on="0"/>
        <pt x="400" y="-6" on="1"/>
        <pt x="352" y="-6" on="0"/>
        <pt x="265" y="26" on="0"/>
        <pt x="198" y="100" on="0"/>
        <pt x="159" y="221" on="0"/>
        <pt x="159" y="311" on="1"/>
        <pt x="159" y="365" on="0"/>
        <pt x="176" y="489" on="0"/>
        <pt x="218" y="594" on="0"/>
        <pt x="288" y="664" on="0"/>
        <pt x="340" y="664" on="1"/>
        <pt x="351" y="664" on="0"/>
        <pt x="377" y="661" on="0"/>
        <pt x="391" y="656" on="1"/>
        <pt x="370" y="642" on="0"/>
        <pt x="339" y="566" on="0"/>
        <pt x="318" y="468" on="0"/>
        <pt x="308" y="360" on="0"/>
        <pt x="308" y="312" on="1"/>
        <pt x="308" y="240" on="0"/>
        <pt x="329" y="150" on="0"/>
        <pt x="360" y="100" on="0"/>
        <pt x="395" y="83" on="0"/>
        <pt x="409" y="83" on="1"/>
        <pt x="439" y="83" on="0"/>
        <pt x="484" y="138" on="0"/>
        <pt x="515" y="230" on="0"/>
        <pt x="530" y="349" on="0"/>
        <pt x="530" y="413" on="1"/>
        <pt x="530" y="504" on="0"/>
        <pt x="501" y="618" on="0"/>
        <pt x="451" y="682" on="0"/>
        <pt x="384" y="704" on="0"/>
        <pt x="347" y="704" on="1"/>
        <pt x="299" y="704" on="0"/>
        <pt x="213" y="675" on="0"/>
        <pt x="149" y="619" on="0"/>
        <pt x="112" y="537" on="0"/>
        <pt x="112" y="485" on="1"/>
        <pt x="112" y="448" on="0"/>
        <pt x="128" y="409" on="0"/>
        <pt x="139" y="393" on="1"/>
        <pt x="82" y="393" on="0"/>
        <pt x="17" y="444" on="0"/>
        <pt x="17" y="500" on="1"/>
        <pt x="17" y="551" on="0"/>
        <pt x="72" y="642" on="0"/>
        <pt x="166" y="710" on="0"/>
        <pt x="293" y="750" on="0"/>
        <pt x="365" y="750" on="1"/>
        <pt x="431" y="750" on="0"/>
        <pt x="482" y="732" on="1"/>
        <pt x="505" y="741" on="0"/>
        <pt x="563" y="750" on="0"/>
        <pt x="605" y="750" on="1"/>
        <pt x="635" y="750" on="0"/>
        <pt x="725" y="738" on="0"/>
        <pt x="773" y="738" on="1"/>
        <pt x="796" y="738" on="0"/>
        <pt x="841" y="743" on="0"/>
        <pt x="861" y="750" on="1"/>
        <pt x="859" y="734" on="0"/>
        <pt x="856" y="693" on="0"/>
        <pt x="843" y="656" on="0"/>
        <pt x="816" y="630" on="0"/>
        <pt x="791" y="630" on="1"/>
        <pt x="763" y="630" on="0"/>
        <pt x="711" y="638" on="0"/>
        <pt x="660" y="650" on="0"/>
        <pt x="610" y="662" on="0"/>
        <pt x="586" y="665" on="1"/>
        <pt x="628" y="619" on="0"/>
        <pt x="666" y="492" on="0"/>
        <pt x="669" y="419" on="1"/>
      </contour>
    </TTGlyph>
    <TTGlyph name="Oacute" xMin="17" yMin="-6" xMax="670" yMax="1000">
      <contour>
        <pt x="391" y="656" on="1"/>
        <pt x="370" y="642" on="0"/>
        <pt x="339" y="566" on="0"/>
        <pt x="318" y="468" on="0"/>
        <pt x="308" y="360" on="0"/>
        <pt x="308" y="312" on="1"/>
        <pt x="308" y="240" on="0"/>
        <pt x="329" y="150" on="0"/>
        <pt x="360" y="100" on="0"/>
        <pt x="395" y="83" on="0"/>
        <pt x="409" y="83" on="1"/>
        <pt x="439" y="83" on="0"/>
        <pt x="484" y="138" on="0"/>
        <pt x="515" y="230" on="0"/>
        <pt x="530" y="349" on="0"/>
        <pt x="530" y="413" on="1"/>
        <pt x="530" y="504" on="0"/>
        <pt x="501" y="618" on="0"/>
        <pt x="451" y="682" on="0"/>
        <pt x="384" y="704" on="0"/>
        <pt x="347" y="704" on="1"/>
        <pt x="299" y="704" on="0"/>
        <pt x="213" y="675" on="0"/>
        <pt x="149" y="619" on="0"/>
        <pt x="112" y="537" on="0"/>
        <pt x="112" y="485" on="1"/>
        <pt x="112" y="448" on="0"/>
        <pt x="128" y="409" on="0"/>
        <pt x="139" y="393" on="1"/>
        <pt x="82" y="393" on="0"/>
        <pt x="17" y="444" on="0"/>
        <pt x="17" y="500" on="1"/>
        <pt x="17" y="551" on="0"/>
        <pt x="72" y="642" on="0"/>
        <pt x="166" y="710" on="0"/>
        <pt x="293" y="750" on="0"/>
        <pt x="365" y="750" on="1"/>
        <pt x="452" y="750" on="0"/>
        <pt x="570" y="692" on="0"/>
        <pt x="640" y="592" on="0"/>
        <pt x="670" y="460" on="0"/>
        <pt x="670" y="387" on="1"/>
        <pt x="670" y="343" on="0"/>
        <pt x="660" y="251" on="0"/>
        <pt x="635" y="164" on="0"/>
        <pt x="595" y="86" on="0"/>
        <pt x="535" y="28" on="0"/>
        <pt x="453" y="-6" on="0"/>
        <pt x="400" y="-6" on="1"/>
        <pt x="352" y="-6" on="0"/>
        <pt x="265" y="26" on="0"/>
        <pt x="198" y="100" on="0"/>
        <pt x="159" y="221" on="0"/>
        <pt x="159" y="311" on="1"/>
        <pt x="159" y="365" on="0"/>
        <pt x="176" y="489" on="0"/>
        <pt x="218" y="594" on="0"/>
        <pt x="288" y="664" on="0"/>
        <pt x="340" y="664" on="1"/>
        <pt x="351" y="664" on="0"/>
        <pt x="377" y="661" on="0"/>
      </contour>
      <contour>
        <pt x="421" y="1000" on="1"/>
        <pt x="526" y="1000" on="1"/>
        <pt x="445" y="811" on="1"/>
        <pt x="370" y="811" on="1"/>
      </contour>
    </TTGlyph>
    <TTGlyph name="Ocircumflex" xMin="17" yMin="-6" xMax="670" yMax="1000">
      <contour>
        <pt x="391" y="656" on="1"/>
        <pt x="370" y="642" on="0"/>
        <pt x="339" y="566" on="0"/>
        <pt x="318" y="468" on="0"/>
        <pt x="308" y="360" on="0"/>
        <pt x="308" y="312" on="1"/>
        <pt x="308" y="240" on="0"/>
        <pt x="329" y="150" on="0"/>
        <pt x="360" y="100" on="0"/>
        <pt x="395" y="83" on="0"/>
        <pt x="409" y="83" on="1"/>
        <pt x="439" y="83" on="0"/>
        <pt x="484" y="138" on="0"/>
        <pt x="515" y="230" on="0"/>
        <pt x="530" y="349" on="0"/>
        <pt x="530" y="413" on="1"/>
        <pt x="530" y="504" on="0"/>
        <pt x="501" y="618" on="0"/>
        <pt x="451" y="682" on="0"/>
        <pt x="384" y="704" on="0"/>
        <pt x="347" y="704" on="1"/>
        <pt x="299" y="704" on="0"/>
        <pt x="213" y="675" on="0"/>
        <pt x="149" y="619" on="0"/>
        <pt x="112" y="537" on="0"/>
        <pt x="112" y="485" on="1"/>
        <pt x="112" y="448" on="0"/>
        <pt x="128" y="409" on="0"/>
        <pt x="139" y="393" on="1"/>
        <pt x="82" y="393" on="0"/>
        <pt x="17" y="444" on="0"/>
        <pt x="17" y="500" on="1"/>
        <pt x="17" y="551" on="0"/>
        <pt x="72" y="642" on="0"/>
        <pt x="166" y="710" on="0"/>
        <pt x="293" y="750" on="0"/>
        <pt x="365" y="750" on="1"/>
        <pt x="452" y="750" on="0"/>
        <pt x="570" y="692" on="0"/>
        <pt x="640" y="592" on="0"/>
        <pt x="670" y="460" on="0"/>
        <pt x="670" y="387" on="1"/>
        <pt x="670" y="343" on="0"/>
        <pt x="660" y="251" on="0"/>
        <pt x="635" y="164" on="0"/>
        <pt x="595" y="86" on="0"/>
        <pt x="535" y="28" on="0"/>
        <pt x="453" y="-6" on="0"/>
        <pt x="400" y="-6" on="1"/>
        <pt x="352" y="-6" on="0"/>
        <pt x="265" y="26" on="0"/>
        <pt x="198" y="100" on="0"/>
        <pt x="159" y="221" on="0"/>
        <pt x="159" y="311" on="1"/>
        <pt x="159" y="365" on="0"/>
        <pt x="176" y="489" on="0"/>
        <pt x="218" y="594" on="0"/>
        <pt x="288" y="664" on="0"/>
        <pt x="340" y="664" on="1"/>
        <pt x="351" y="664" on="0"/>
        <pt x="377" y="661" on="0"/>
      </contour>
      <contour>
        <pt x="527" y="811" on="1"/>
        <pt x="450" y="891" on="1"/>
        <pt x="310" y="811" on="1"/>
        <pt x="266" y="811" on="1"/>
        <pt x="438" y="1000" on="1"/>
        <pt x="459" y="1000" on="1"/>
        <pt x="559" y="811" on="1"/>
      </contour>
    </TTGlyph>
    <TTGlyph name="Odieresis" xMin="17" yMin="-6" xMax="670" yMax="945">
      <contour>
        <pt x="391" y="656" on="1"/>
        <pt x="370" y="642" on="0"/>
        <pt x="339" y="566" on="0"/>
        <pt x="318" y="468" on="0"/>
        <pt x="308" y="360" on="0"/>
        <pt x="308" y="312" on="1"/>
        <pt x="308" y="240" on="0"/>
        <pt x="329" y="150" on="0"/>
        <pt x="360" y="100" on="0"/>
        <pt x="395" y="83" on="0"/>
        <pt x="409" y="83" on="1"/>
        <pt x="439" y="83" on="0"/>
        <pt x="484" y="138" on="0"/>
        <pt x="515" y="230" on="0"/>
        <pt x="530" y="349" on="0"/>
        <pt x="530" y="413" on="1"/>
        <pt x="530" y="504" on="0"/>
        <pt x="501" y="618" on="0"/>
        <pt x="451" y="682" on="0"/>
        <pt x="384" y="704" on="0"/>
        <pt x="347" y="704" on="1"/>
        <pt x="299" y="704" on="0"/>
        <pt x="213" y="675" on="0"/>
        <pt x="149" y="619" on="0"/>
        <pt x="112" y="537" on="0"/>
        <pt x="112" y="485" on="1"/>
        <pt x="112" y="448" on="0"/>
        <pt x="128" y="409" on="0"/>
        <pt x="139" y="393" on="1"/>
        <pt x="82" y="393" on="0"/>
        <pt x="17" y="444" on="0"/>
        <pt x="17" y="500" on="1"/>
        <pt x="17" y="551" on="0"/>
        <pt x="72" y="642" on="0"/>
        <pt x="166" y="710" on="0"/>
        <pt x="293" y="750" on="0"/>
        <pt x="365" y="750" on="1"/>
        <pt x="452" y="750" on="0"/>
        <pt x="570" y="692" on="0"/>
        <pt x="640" y="592" on="0"/>
        <pt x="670" y="460" on="0"/>
        <pt x="670" y="387" on="1"/>
        <pt x="670" y="343" on="0"/>
        <pt x="660" y="251" on="0"/>
        <pt x="635" y="164" on="0"/>
        <pt x="595" y="86" on="0"/>
        <pt x="535" y="28" on="0"/>
        <pt x="453" y="-6" on="0"/>
        <pt x="400" y="-6" on="1"/>
        <pt x="352" y="-6" on="0"/>
        <pt x="265" y="26" on="0"/>
        <pt x="198" y="100" on="0"/>
        <pt x="159" y="221" on="0"/>
        <pt x="159" y="311" on="1"/>
        <pt x="159" y="365" on="0"/>
        <pt x="176" y="489" on="0"/>
        <pt x="218" y="594" on="0"/>
        <pt x="288" y="664" on="0"/>
        <pt x="340" y="664" on="1"/>
        <pt x="351" y="664" on="0"/>
        <pt x="377" y="661" on="0"/>
      </contour>
      <contour>
        <pt x="251" y="884" on="1"/>
        <pt x="251" y="909" on="0"/>
        <pt x="286" y="945" on="0"/>
        <pt x="312" y="945" on="1"/>
        <pt x="337" y="945" on="0"/>
        <pt x="373" y="909" on="0"/>
        <pt x="373" y="884" on="1"/>
        <pt x="373" y="858" on="0"/>
        <pt x="337" y="823" on="0"/>
        <pt x="312" y="823" on="1"/>
        <pt x="286" y="823" on="0"/>
        <pt x="251" y="858" on="0"/>
      </contour>
      <contour>
        <pt x="431" y="884" on="1"/>
        <pt x="431" y="909" on="0"/>
        <pt x="466" y="945" on="0"/>
        <pt x="492" y="945" on="1"/>
        <pt x="517" y="945" on="0"/>
        <pt x="553" y="909" on="0"/>
        <pt x="553" y="884" on="1"/>
        <pt x="553" y="858" on="0"/>
        <pt x="517" y="823" on="0"/>
        <pt x="492" y="823" on="1"/>
        <pt x="466" y="823" on="0"/>
        <pt x="431" y="858" on="0"/>
      </contour>
    </TTGlyph>
    <TTGlyph name="Ograve" xMin="17" yMin="-6" xMax="670" yMax="1000">
      <contour>
        <pt x="391" y="656" on="1"/>
        <pt x="370" y="642" on="0"/>
        <pt x="339" y="566" on="0"/>
        <pt x="318" y="468" on="0"/>
        <pt x="308" y="360" on="0"/>
        <pt x="308" y="312" on="1"/>
        <pt x="308" y="240" on="0"/>
        <pt x="329" y="150" on="0"/>
        <pt x="360" y="100" on="0"/>
        <pt x="395" y="83" on="0"/>
        <pt x="409" y="83" on="1"/>
        <pt x="439" y="83" on="0"/>
        <pt x="484" y="138" on="0"/>
        <pt x="515" y="230" on="0"/>
        <pt x="530" y="349" on="0"/>
        <pt x="530" y="413" on="1"/>
        <pt x="530" y="504" on="0"/>
        <pt x="501" y="618" on="0"/>
        <pt x="451" y="682" on="0"/>
        <pt x="384" y="704" on="0"/>
        <pt x="347" y="704" on="1"/>
        <pt x="299" y="704" on="0"/>
        <pt x="213" y="675" on="0"/>
        <pt x="149" y="619" on="0"/>
        <pt x="112" y="537" on="0"/>
        <pt x="112" y="485" on="1"/>
        <pt x="112" y="448" on="0"/>
        <pt x="128" y="409" on="0"/>
        <pt x="139" y="393" on="1"/>
        <pt x="82" y="393" on="0"/>
        <pt x="17" y="444" on="0"/>
        <pt x="17" y="500" on="1"/>
        <pt x="17" y="551" on="0"/>
        <pt x="72" y="642" on="0"/>
        <pt x="166" y="710" on="0"/>
        <pt x="293" y="750" on="0"/>
        <pt x="365" y="750" on="1"/>
        <pt x="452" y="750" on="0"/>
        <pt x="570" y="692" on="0"/>
        <pt x="640" y="592" on="0"/>
        <pt x="670" y="460" on="0"/>
        <pt x="670" y="387" on="1"/>
        <pt x="670" y="343" on="0"/>
        <pt x="660" y="251" on="0"/>
        <pt x="635" y="164" on="0"/>
        <pt x="595" y="86" on="0"/>
        <pt x="535" y="28" on="0"/>
        <pt x="453" y="-6" on="0"/>
        <pt x="400" y="-6" on="1"/>
        <pt x="352" y="-6" on="0"/>
        <pt x="265" y="26" on="0"/>
        <pt x="198" y="100" on="0"/>
        <pt x="159" y="221" on="0"/>
        <pt x="159" y="311" on="1"/>
        <pt x="159" y="365" on="0"/>
        <pt x="176" y="489" on="0"/>
        <pt x="218" y="594" on="0"/>
        <pt x="288" y="664" on="0"/>
        <pt x="340" y="664" on="1"/>
        <pt x="351" y="664" on="0"/>
        <pt x="377" y="661" on="0"/>
      </contour>
      <contour>
        <pt x="276" y="1000" on="1"/>
        <pt x="381" y="1000" on="1"/>
        <pt x="450" y="811" on="1"/>
        <pt x="375" y="811" on="1"/>
      </contour>
    </TTGlyph>
    <TTGlyph name="Ohungarumlaut" xMin="17" yMin="-6" xMax="670" yMax="1000">
      <contour>
        <pt x="391" y="656" on="1"/>
        <pt x="370" y="642" on="0"/>
        <pt x="339" y="566" on="0"/>
        <pt x="318" y="468" on="0"/>
        <pt x="308" y="360" on="0"/>
        <pt x="308" y="312" on="1"/>
        <pt x="308" y="240" on="0"/>
        <pt x="329" y="150" on="0"/>
        <pt x="360" y="100" on="0"/>
        <pt x="395" y="83" on="0"/>
        <pt x="409" y="83" on="1"/>
        <pt x="439" y="83" on="0"/>
        <pt x="484" y="138" on="0"/>
        <pt x="515" y="230" on="0"/>
        <pt x="530" y="349" on="0"/>
        <pt x="530" y="413" on="1"/>
        <pt x="530" y="504" on="0"/>
        <pt x="501" y="618" on="0"/>
        <pt x="451" y="682" on="0"/>
        <pt x="384" y="704" on="0"/>
        <pt x="347" y="704" on="1"/>
        <pt x="299" y="704" on="0"/>
        <pt x="213" y="675" on="0"/>
        <pt x="149" y="619" on="0"/>
        <pt x="112" y="537" on="0"/>
        <pt x="112" y="485" on="1"/>
        <pt x="112" y="448" on="0"/>
        <pt x="128" y="409" on="0"/>
        <pt x="139" y="393" on="1"/>
        <pt x="82" y="393" on="0"/>
        <pt x="17" y="444" on="0"/>
        <pt x="17" y="500" on="1"/>
        <pt x="17" y="551" on="0"/>
        <pt x="72" y="642" on="0"/>
        <pt x="166" y="710" on="0"/>
        <pt x="293" y="750" on="0"/>
        <pt x="365" y="750" on="1"/>
        <pt x="452" y="750" on="0"/>
        <pt x="570" y="692" on="0"/>
        <pt x="640" y="592" on="0"/>
        <pt x="670" y="460" on="0"/>
        <pt x="670" y="387" on="1"/>
        <pt x="670" y="343" on="0"/>
        <pt x="660" y="251" on="0"/>
        <pt x="635" y="164" on="0"/>
        <pt x="595" y="86" on="0"/>
        <pt x="535" y="28" on="0"/>
        <pt x="453" y="-6" on="0"/>
        <pt x="400" y="-6" on="1"/>
        <pt x="352" y="-6" on="0"/>
        <pt x="265" y="26" on="0"/>
        <pt x="198" y="100" on="0"/>
        <pt x="159" y="221" on="0"/>
        <pt x="159" y="311" on="1"/>
        <pt x="159" y="365" on="0"/>
        <pt x="176" y="489" on="0"/>
        <pt x="218" y="594" on="0"/>
        <pt x="288" y="664" on="0"/>
        <pt x="340" y="664" on="1"/>
        <pt x="351" y="664" on="0"/>
        <pt x="377" y="661" on="0"/>
      </contour>
      <contour>
        <pt x="379" y="1000" on="1"/>
        <pt x="474" y="1000" on="1"/>
        <pt x="393" y="811" on="1"/>
        <pt x="328" y="811" on="1"/>
      </contour>
      <contour>
        <pt x="509" y="1000" on="1"/>
        <pt x="604" y="1000" on="1"/>
        <pt x="523" y="811" on="1"/>
        <pt x="458" y="811" on="1"/>
      </contour>
    </TTGlyph>
    <TTGlyph name="Oslash" xMin="16" yMin="-71" xMax="645" yMax="750">
      <contour>
        <pt x="379" y="-71" on="1"/>
        <pt x="379" y="-6" on="1"/>
        <pt x="330" y="-6" on="0"/>
        <pt x="247" y="24" on="0"/>
        <pt x="186" y="92" on="0"/>
        <pt x="152" y="203" on="0"/>
        <pt x="152" y="283" on="1"/>
        <pt x="152" y="336" on="0"/>
        <pt x="171" y="455" on="0"/>
        <pt x="213" y="556" on="0"/>
        <pt x="282" y="622" on="0"/>
        <pt x="332" y="622" on="1"/>
        <pt x="355" y="622" on="0"/>
        <pt x="379" y="615" on="1"/>
        <pt x="379" y="655" on="1"/>
        <pt x="362" y="659" on="0"/>
        <pt x="340" y="659" on="1"/>
        <pt x="291" y="659" on="0"/>
        <pt x="206" y="631" on="0"/>
        <pt x="144" y="579" on="0"/>
        <pt x="108" y="505" on="0"/>
        <pt x="108" y="459" on="1"/>
        <pt x="108" y="432" on="0"/>
        <pt x="116" y="400" on="0"/>
        <pt x="125" y="381" on="0"/>
        <pt x="133" y="372" on="0"/>
        <pt x="134" y="368" on="1"/>
        <pt x="79" y="368" on="0"/>
        <pt x="16" y="414" on="0"/>
        <pt x="16" y="471" on="1"/>
        <pt x="16" y="516" on="0"/>
        <pt x="69" y="600" on="0"/>
        <pt x="160" y="664" on="0"/>
        <pt x="283" y="702" on="0"/>
        <pt x="354" y="702" on="1"/>
        <pt x="360" y="702" on="0"/>
        <pt x="373" y="701" on="0"/>
        <pt x="379" y="701" on="1"/>
        <pt x="379" y="750" on="1"/>
        <pt x="431" y="750" on="1"/>
        <pt x="431" y="695" on="1"/>
        <pt x="492" y="683" on="0"/>
        <pt x="575" y="620" on="0"/>
        <pt x="624" y="531" on="0"/>
        <pt x="645" y="422" on="0"/>
        <pt x="645" y="363" on="1"/>
        <pt x="645" y="308" on="0"/>
        <pt x="623" y="190" on="0"/>
        <pt x="572" y="88" on="0"/>
        <pt x="491" y="12" on="0"/>
        <pt x="431" y="0" on="1"/>
        <pt x="431" y="-71" on="1"/>
      </contour>
      <contour>
        <pt x="296" y="283" on="1"/>
        <pt x="296" y="242" on="0"/>
        <pt x="305" y="168" on="0"/>
        <pt x="325" y="110" on="0"/>
        <pt x="357" y="73" on="0"/>
        <pt x="379" y="70" on="1"/>
        <pt x="379" y="611" on="1"/>
        <pt x="359" y="594" on="0"/>
        <pt x="328" y="522" on="0"/>
        <pt x="307" y="430" on="0"/>
        <pt x="296" y="329" on="0"/>
      </contour>
      <contour>
        <pt x="511" y="386" on="1"/>
        <pt x="511" y="493" on="0"/>
        <pt x="468" y="610" on="0"/>
        <pt x="431" y="635" on="1"/>
        <pt x="431" y="90" on="1"/>
        <pt x="449" y="108" on="0"/>
        <pt x="479" y="172" on="0"/>
        <pt x="500" y="251" on="0"/>
        <pt x="511" y="341" on="0"/>
      </contour>
    </TTGlyph>
    <TTGlyph name="Otilde" xMin="17" yMin="-6" xMax="670" yMax="930">
      <contour>
        <pt x="391" y="656" on="1"/>
        <pt x="370" y="642" on="0"/>
        <pt x="339" y="566" on="0"/>
        <pt x="318" y="468" on="0"/>
        <pt x="308" y="360" on="0"/>
        <pt x="308" y="312" on="1"/>
        <pt x="308" y="240" on="0"/>
        <pt x="329" y="150" on="0"/>
        <pt x="360" y="100" on="0"/>
        <pt x="395" y="83" on="0"/>
        <pt x="409" y="83" on="1"/>
        <pt x="439" y="83" on="0"/>
        <pt x="484" y="138" on="0"/>
        <pt x="515" y="230" on="0"/>
        <pt x="530" y="349" on="0"/>
        <pt x="530" y="413" on="1"/>
        <pt x="530" y="504" on="0"/>
        <pt x="501" y="618" on="0"/>
        <pt x="451" y="682" on="0"/>
        <pt x="384" y="704" on="0"/>
        <pt x="347" y="704" on="1"/>
        <pt x="299" y="704" on="0"/>
        <pt x="213" y="675" on="0"/>
        <pt x="149" y="619" on="0"/>
        <pt x="112" y="537" on="0"/>
        <pt x="112" y="485" on="1"/>
        <pt x="112" y="448" on="0"/>
        <pt x="128" y="409" on="0"/>
        <pt x="139" y="393" on="1"/>
        <pt x="82" y="393" on="0"/>
        <pt x="17" y="444" on="0"/>
        <pt x="17" y="500" on="1"/>
        <pt x="17" y="551" on="0"/>
        <pt x="72" y="642" on="0"/>
        <pt x="166" y="710" on="0"/>
        <pt x="293" y="750" on="0"/>
        <pt x="365" y="750" on="1"/>
        <pt x="452" y="750" on="0"/>
        <pt x="570" y="692" on="0"/>
        <pt x="640" y="592" on="0"/>
        <pt x="670" y="460" on="0"/>
        <pt x="670" y="387" on="1"/>
        <pt x="670" y="343" on="0"/>
        <pt x="660" y="251" on="0"/>
        <pt x="635" y="164" on="0"/>
        <pt x="595" y="86" on="0"/>
        <pt x="535" y="28" on="0"/>
        <pt x="453" y="-6" on="0"/>
        <pt x="400" y="-6" on="1"/>
        <pt x="352" y="-6" on="0"/>
        <pt x="265" y="26" on="0"/>
        <pt x="198" y="100" on="0"/>
        <pt x="159" y="221" on="0"/>
        <pt x="159" y="311" on="1"/>
        <pt x="159" y="365" on="0"/>
        <pt x="176" y="489" on="0"/>
        <pt x="218" y="594" on="0"/>
        <pt x="288" y="664" on="0"/>
        <pt x="340" y="664" on="1"/>
        <pt x="351" y="664" on="0"/>
        <pt x="377" y="661" on="0"/>
      </contour>
      <contour>
        <pt x="591" y="919" on="1"/>
        <pt x="590" y="901" on="0"/>
        <pt x="568" y="866" on="0"/>
        <pt x="530" y="837" on="0"/>
        <pt x="479" y="819" on="0"/>
        <pt x="451" y="819" on="1"/>
        <pt x="426" y="819" on="0"/>
        <pt x="381" y="831" on="0"/>
        <pt x="337" y="844" on="0"/>
        <pt x="296" y="856" on="0"/>
        <pt x="275" y="856" on="1"/>
        <pt x="237" y="856" on="0"/>
        <pt x="214" y="830" on="1"/>
        <pt x="208" y="832" on="1"/>
        <pt x="222" y="880" on="0"/>
        <pt x="297" y="930" on="0"/>
        <pt x="354" y="930" on="1"/>
        <pt x="381" y="930" on="0"/>
        <pt x="426" y="920" on="0"/>
        <pt x="466" y="907" on="0"/>
        <pt x="504" y="897" on="0"/>
        <pt x="526" y="897" on="1"/>
        <pt x="545" y="897" on="0"/>
        <pt x="576" y="909" on="0"/>
        <pt x="584" y="920" on="1"/>
      </contour>
    </TTGlyph>
    <TTGlyph name="P" xMin="18" yMin="0" xMax="600" yMax="750">
      <contour>
        <pt x="357" y="656" on="1"/>
        <pt x="357" y="322" on="1"/>
        <pt x="388" y="325" on="0"/>
        <pt x="435" y="366" on="0"/>
        <pt x="468" y="428" on="0"/>
        <pt x="485" y="503" on="0"/>
        <pt x="485" y="541" on="1"/>
        <pt x="485" y="565" on="0"/>
        <pt x="474" y="622" on="0"/>
        <pt x="439" y="671" on="0"/>
        <pt x="372" y="704" on="0"/>
        <pt x="316" y="704" on="1"/>
        <pt x="271" y="704" on="0"/>
        <pt x="197" y="680" on="0"/>
        <pt x="143" y="631" on="0"/>
        <pt x="113" y="554" on="0"/>
        <pt x="113" y="502" on="1"/>
        <pt x="113" y="475" on="0"/>
        <pt x="120" y="440" on="0"/>
        <pt x="131" y="416" on="0"/>
        <pt x="143" y="400" on="0"/>
        <pt x="148" y="393" on="1"/>
        <pt x="88" y="393" on="0"/>
        <pt x="18" y="449" on="0"/>
        <pt x="18" y="509" on="1"/>
        <pt x="18" y="560" on="0"/>
        <pt x="67" y="648" on="0"/>
        <pt x="152" y="713" on="0"/>
        <pt x="265" y="750" on="0"/>
        <pt x="328" y="750" on="1"/>
        <pt x="389" y="750" on="0"/>
        <pt x="489" y="718" on="0"/>
        <pt x="561" y="659" on="0"/>
        <pt x="600" y="576" on="0"/>
        <pt x="600" y="525" on="1"/>
        <pt x="600" y="484" on="0"/>
        <pt x="570" y="398" on="0"/>
        <pt x="510" y="329" on="0"/>
        <pt x="421" y="285" on="0"/>
        <pt x="362" y="285" on="1"/>
        <pt x="357" y="285" on="1"/>
        <pt x="357" y="0" on="1"/>
        <pt x="213" y="0" on="1"/>
        <pt x="213" y="636" on="1"/>
      </contour>
    </TTGlyph>
    <TTGlyph name="Q" xMin="17" yMin="-113" xMax="724" yMax="750">
      <contour>
        <pt x="391" y="656" on="1"/>
        <pt x="370" y="642" on="0"/>
        <pt x="339" y="566" on="0"/>
        <pt x="318" y="468" on="0"/>
        <pt x="308" y="360" on="0"/>
        <pt x="308" y="312" on="1"/>
        <pt x="308" y="253" on="0"/>
        <pt x="321" y="173" on="0"/>
        <pt x="332" y="147" on="1"/>
        <pt x="363" y="157" on="0"/>
        <pt x="392" y="157" on="1"/>
        <pt x="417" y="157" on="0"/>
        <pt x="458" y="143" on="0"/>
        <pt x="476" y="131" on="1"/>
        <pt x="489" y="153" on="0"/>
        <pt x="510" y="215" on="0"/>
        <pt x="523" y="288" on="0"/>
        <pt x="530" y="370" on="0"/>
        <pt x="530" y="413" on="1"/>
        <pt x="530" y="504" on="0"/>
        <pt x="501" y="618" on="0"/>
        <pt x="451" y="682" on="0"/>
        <pt x="384" y="704" on="0"/>
        <pt x="347" y="704" on="1"/>
        <pt x="299" y="704" on="0"/>
        <pt x="213" y="675" on="0"/>
        <pt x="149" y="619" on="0"/>
        <pt x="112" y="537" on="0"/>
        <pt x="112" y="485" on="1"/>
        <pt x="112" y="448" on="0"/>
        <pt x="128" y="409" on="0"/>
        <pt x="139" y="393" on="1"/>
        <pt x="82" y="393" on="0"/>
        <pt x="17" y="444" on="0"/>
        <pt x="17" y="500" on="1"/>
        <pt x="17" y="551" on="0"/>
        <pt x="72" y="642" on="0"/>
        <pt x="166" y="710" on="0"/>
        <pt x="293" y="750" on="0"/>
        <pt x="365" y="750" on="1"/>
        <pt x="452" y="750" on="0"/>
        <pt x="570" y="692" on="0"/>
        <pt x="640" y="592" on="0"/>
        <pt x="670" y="460" on="0"/>
        <pt x="670" y="387" on="1"/>
        <pt x="670" y="342" on="0"/>
        <pt x="659" y="248" on="0"/>
        <pt x="633" y="159" on="0"/>
        <pt x="591" y="81" on="0"/>
        <pt x="560" y="52" on="1"/>
        <pt x="575" y="36" on="0"/>
        <pt x="605" y="7" on="0"/>
        <pt x="638" y="-16" on="0"/>
        <pt x="677" y="-29" on="0"/>
        <pt x="700" y="-29" on="1"/>
        <pt x="708" y="-29" on="0"/>
        <pt x="718" y="-28" on="0"/>
        <pt x="724" y="-27" on="1"/>
        <pt x="715" y="-78" on="0"/>
        <pt x="672" y="-113" on="0"/>
        <pt x="637" y="-113" on="1"/>
        <pt x="605" y="-113" on="0"/>
        <pt x="558" y="-92" on="0"/>
        <pt x="522" y="-58" on="0"/>
        <pt x="496" y="-15" on="0"/>
        <pt x="485" y="8" on="1"/>
        <pt x="446" y="-6" on="0"/>
        <pt x="400" y="-6" on="1"/>
        <pt x="352" y="-6" on="0"/>
        <pt x="265" y="26" on="0"/>
        <pt x="198" y="100" on="0"/>
        <pt x="159" y="221" on="0"/>
        <pt x="159" y="311" on="1"/>
        <pt x="159" y="365" on="0"/>
        <pt x="176" y="489" on="0"/>
        <pt x="218" y="594" on="0"/>
        <pt x="288" y="664" on="0"/>
        <pt x="340" y="664" on="1"/>
        <pt x="351" y="664" on="0"/>
        <pt x="377" y="661" on="0"/>
      </contour>
      <contour>
        <pt x="375" y="120" on="1"/>
        <pt x="363" y="120" on="0"/>
        <pt x="350" y="117" on="1"/>
        <pt x="364" y="97" on="0"/>
        <pt x="395" y="83" on="0"/>
        <pt x="409" y="83" on="1"/>
        <pt x="424" y="83" on="0"/>
        <pt x="437" y="90" on="1"/>
        <pt x="425" y="104" on="0"/>
        <pt x="395" y="120" on="0"/>
      </contour>
    </TTGlyph>
    <TTGlyph name="R" xMin="18" yMin="-17" xMax="654" yMax="750">
      <contour>
        <pt x="357" y="656" on="1"/>
        <pt x="357" y="425" on="1"/>
        <pt x="365" y="425" on="1"/>
        <pt x="391" y="425" on="0"/>
        <pt x="432" y="450" on="0"/>
        <pt x="460" y="492" on="0"/>
        <pt x="474" y="545" on="0"/>
        <pt x="474" y="573" on="1"/>
        <pt x="474" y="592" on="0"/>
        <pt x="464" y="638" on="0"/>
        <pt x="433" y="677" on="0"/>
        <pt x="374" y="704" on="0"/>
        <pt x="325" y="704" on="1"/>
        <pt x="279" y="704" on="0"/>
        <pt x="202" y="678" on="0"/>
        <pt x="146" y="627" on="0"/>
        <pt x="114" y="552" on="0"/>
        <pt x="114" y="503" on="1"/>
        <pt x="114" y="475" on="0"/>
        <pt x="123" y="436" on="0"/>
        <pt x="135" y="411" on="0"/>
        <pt x="146" y="397" on="0"/>
        <pt x="148" y="393" on="1"/>
        <pt x="88" y="393" on="0"/>
        <pt x="18" y="449" on="0"/>
        <pt x="18" y="509" on="1"/>
        <pt x="18" y="558" on="0"/>
        <pt x="64" y="645" on="0"/>
        <pt x="148" y="711" on="0"/>
        <pt x="265" y="750" on="0"/>
        <pt x="336" y="750" on="1"/>
        <pt x="390" y="750" on="0"/>
        <pt x="480" y="726" on="0"/>
        <pt x="545" y="680" on="0"/>
        <pt x="581" y="612" on="0"/>
        <pt x="581" y="569" on="1"/>
        <pt x="581" y="525" on="0"/>
        <pt x="542" y="445" on="0"/>
        <pt x="504" y="419" on="1"/>
        <pt x="553" y="407" on="0"/>
        <pt x="602" y="331" on="0"/>
        <pt x="602" y="258" on="1"/>
        <pt x="602" y="244" on="0"/>
        <pt x="600" y="203" on="0"/>
        <pt x="599" y="161" on="0"/>
        <pt x="597" y="123" on="0"/>
        <pt x="597" y="111" on="1"/>
        <pt x="597" y="62" on="0"/>
        <pt x="628" y="10" on="0"/>
        <pt x="654" y="0" on="1"/>
        <pt x="624" y="-9" on="0"/>
        <pt x="576" y="-17" on="0"/>
        <pt x="557" y="-17" on="1"/>
        <pt x="508" y="-17" on="0"/>
        <pt x="462" y="36" on="0"/>
        <pt x="462" y="94" on="1"/>
        <pt x="462" y="108" on="0"/>
        <pt x="464" y="150" on="0"/>
        <pt x="467" y="196" on="0"/>
        <pt x="469" y="241" on="0"/>
        <pt x="469" y="259" on="1"/>
        <pt x="469" y="314" on="0"/>
        <pt x="436" y="381" on="0"/>
        <pt x="390" y="381" on="1"/>
        <pt x="373" y="381" on="0"/>
        <pt x="357" y="377" on="1"/>
        <pt x="357" y="0" on="1"/>
        <pt x="213" y="0" on="1"/>
        <pt x="213" y="636" on="1"/>
      </contour>
    </TTGlyph>
    <TTGlyph name="S" xMin="33" yMin="-18" xMax="520" yMax="750">
      <contour>
        <pt x="456" y="624" on="1"/>
        <pt x="456" y="586" on="0"/>
        <pt x="423" y="539" on="0"/>
        <pt x="392" y="539" on="1"/>
        <pt x="364" y="539" on="0"/>
        <pt x="342" y="560" on="1"/>
        <pt x="356" y="570" on="0"/>
        <pt x="371" y="608" on="0"/>
        <pt x="371" y="628" on="1"/>
        <pt x="371" y="659" on="0"/>
        <pt x="331" y="699" on="0"/>
        <pt x="290" y="699" on="1"/>
        <pt x="245" y="699" on="0"/>
        <pt x="205" y="649" on="0"/>
        <pt x="205" y="607" on="1"/>
        <pt x="205" y="558" on="0"/>
        <pt x="252" y="496" on="0"/>
        <pt x="322" y="447" on="0"/>
        <pt x="403" y="403" on="0"/>
        <pt x="473" y="343" on="0"/>
        <pt x="520" y="258" on="0"/>
        <pt x="520" y="192" on="1"/>
        <pt x="520" y="136" on="0"/>
        <pt x="483" y="56" on="0"/>
        <pt x="419" y="5" on="0"/>
        <pt x="331" y="-18" on="0"/>
        <pt x="279" y="-18" on="1"/>
        <pt x="233" y="-18" on="0"/>
        <pt x="144" y="1" on="0"/>
        <pt x="75" y="44" on="0"/>
        <pt x="33" y="115" on="0"/>
        <pt x="33" y="166" on="1"/>
        <pt x="33" y="200" on="0"/>
        <pt x="52" y="256" on="0"/>
        <pt x="85" y="294" on="0"/>
        <pt x="129" y="315" on="0"/>
        <pt x="153" y="315" on="1"/>
        <pt x="165" y="315" on="0"/>
        <pt x="193" y="309" on="0"/>
        <pt x="221" y="294" on="0"/>
        <pt x="245" y="268" on="0"/>
        <pt x="252" y="249" on="1"/>
        <pt x="234" y="249" on="0"/>
        <pt x="198" y="241" on="0"/>
        <pt x="169" y="221" on="0"/>
        <pt x="151" y="186" on="0"/>
        <pt x="151" y="159" on="1"/>
        <pt x="151" y="107" on="0"/>
        <pt x="215" y="62" on="0"/>
        <pt x="263" y="62" on="1"/>
        <pt x="311" y="62" on="0"/>
        <pt x="363" y="108" on="0"/>
        <pt x="363" y="164" on="1"/>
        <pt x="363" y="216" on="0"/>
        <pt x="320" y="288" on="0"/>
        <pt x="254" y="342" on="0"/>
        <pt x="179" y="389" on="0"/>
        <pt x="113" y="444" on="0"/>
        <pt x="70" y="518" on="0"/>
        <pt x="70" y="572" on="1"/>
        <pt x="70" y="659" on="0"/>
        <pt x="186" y="750" on="0"/>
        <pt x="286" y="750" on="1"/>
        <pt x="300" y="750" on="0"/>
        <pt x="357" y="745" on="0"/>
        <pt x="414" y="720" on="0"/>
        <pt x="456" y="669" on="0"/>
      </contour>
    </TTGlyph>
    <TTGlyph name="Sacute" xMin="33" yMin="-18" xMax="520" yMax="1000">
      <contour>
        <pt x="456" y="624" on="1"/>
        <pt x="456" y="586" on="0"/>
        <pt x="423" y="539" on="0"/>
        <pt x="392" y="539" on="1"/>
        <pt x="364" y="539" on="0"/>
        <pt x="342" y="560" on="1"/>
        <pt x="356" y="570" on="0"/>
        <pt x="371" y="608" on="0"/>
        <pt x="371" y="628" on="1"/>
        <pt x="371" y="659" on="0"/>
        <pt x="331" y="699" on="0"/>
        <pt x="290" y="699" on="1"/>
        <pt x="245" y="699" on="0"/>
        <pt x="205" y="649" on="0"/>
        <pt x="205" y="607" on="1"/>
        <pt x="205" y="558" on="0"/>
        <pt x="252" y="496" on="0"/>
        <pt x="322" y="447" on="0"/>
        <pt x="403" y="403" on="0"/>
        <pt x="473" y="343" on="0"/>
        <pt x="520" y="258" on="0"/>
        <pt x="520" y="192" on="1"/>
        <pt x="520" y="136" on="0"/>
        <pt x="483" y="56" on="0"/>
        <pt x="419" y="5" on="0"/>
        <pt x="331" y="-18" on="0"/>
        <pt x="279" y="-18" on="1"/>
        <pt x="233" y="-18" on="0"/>
        <pt x="144" y="1" on="0"/>
        <pt x="75" y="44" on="0"/>
        <pt x="33" y="115" on="0"/>
        <pt x="33" y="166" on="1"/>
        <pt x="33" y="200" on="0"/>
        <pt x="52" y="256" on="0"/>
        <pt x="85" y="294" on="0"/>
        <pt x="129" y="315" on="0"/>
        <pt x="153" y="315" on="1"/>
        <pt x="165" y="315" on="0"/>
        <pt x="193" y="309" on="0"/>
        <pt x="221" y="294" on="0"/>
        <pt x="245" y="268" on="0"/>
        <pt x="252" y="249" on="1"/>
        <pt x="234" y="249" on="0"/>
        <pt x="198" y="241" on="0"/>
        <pt x="169" y="221" on="0"/>
        <pt x="151" y="186" on="0"/>
        <pt x="151" y="159" on="1"/>
        <pt x="151" y="107" on="0"/>
        <pt x="215" y="62" on="0"/>
        <pt x="263" y="62" on="1"/>
        <pt x="311" y="62" on="0"/>
        <pt x="363" y="108" on="0"/>
        <pt x="363" y="164" on="1"/>
        <pt x="363" y="216" on="0"/>
        <pt x="320" y="288" on="0"/>
        <pt x="254" y="342" on="0"/>
        <pt x="179" y="389" on="0"/>
        <pt x="113" y="444" on="0"/>
        <pt x="70" y="518" on="0"/>
        <pt x="70" y="572" on="1"/>
        <pt x="70" y="659" on="0"/>
        <pt x="186" y="750" on="0"/>
        <pt x="286" y="750" on="1"/>
        <pt x="300" y="750" on="0"/>
        <pt x="357" y="745" on="0"/>
        <pt x="414" y="720" on="0"/>
        <pt x="456" y="669" on="0"/>
      </contour>
      <contour>
        <pt x="283" y="1000" on="1"/>
        <pt x="388" y="1000" on="1"/>
        <pt x="307" y="811" on="1"/>
        <pt x="232" y="811" on="1"/>
      </contour>
    </TTGlyph>
    <TTGlyph name="Scaron" xMin="33" yMin="-18" xMax="520" yMax="1000">
      <contour>
        <pt x="456" y="624" on="1"/>
        <pt x="456" y="586" on="0"/>
        <pt x="423" y="539" on="0"/>
        <pt x="392" y="539" on="1"/>
        <pt x="364" y="539" on="0"/>
        <pt x="342" y="560" on="1"/>
        <pt x="356" y="570" on="0"/>
        <pt x="371" y="608" on="0"/>
        <pt x="371" y="628" on="1"/>
        <pt x="371" y="659" on="0"/>
        <pt x="331" y="699" on="0"/>
        <pt x="290" y="699" on="1"/>
        <pt x="245" y="699" on="0"/>
        <pt x="205" y="649" on="0"/>
        <pt x="205" y="607" on="1"/>
        <pt x="205" y="558" on="0"/>
        <pt x="252" y="496" on="0"/>
        <pt x="322" y="447" on="0"/>
        <pt x="403" y="403" on="0"/>
        <pt x="473" y="343" on="0"/>
        <pt x="520" y="258" on="0"/>
        <pt x="520" y="192" on="1"/>
        <pt x="520" y="136" on="0"/>
        <pt x="483" y="56" on="0"/>
        <pt x="419" y="5" on="0"/>
        <pt x="331" y="-18" on="0"/>
        <pt x="279" y="-18" on="1"/>
        <pt x="233" y="-18" on="0"/>
        <pt x="144" y="1" on="0"/>
        <pt x="75" y="44" on="0"/>
        <pt x="33" y="115" on="0"/>
        <pt x="33" y="166" on="1"/>
        <pt x="33" y="200" on="0"/>
        <pt x="52" y="256" on="0"/>
        <pt x="85" y="294" on="0"/>
        <pt x="129" y="315" on="0"/>
        <pt x="153" y="315" on="1"/>
        <pt x="165" y="315" on="0"/>
        <pt x="193" y="309" on="0"/>
        <pt x="221" y="294" on="0"/>
        <pt x="245" y="268" on="0"/>
        <pt x="252" y="249" on="1"/>
        <pt x="234" y="249" on="0"/>
        <pt x="198" y="241" on="0"/>
        <pt x="169" y="221" on="0"/>
        <pt x="151" y="186" on="0"/>
        <pt x="151" y="159" on="1"/>
        <pt x="151" y="107" on="0"/>
        <pt x="215" y="62" on="0"/>
        <pt x="263" y="62" on="1"/>
        <pt x="311" y="62" on="0"/>
        <pt x="363" y="108" on="0"/>
        <pt x="363" y="164" on="1"/>
        <pt x="363" y="216" on="0"/>
        <pt x="320" y="288" on="0"/>
        <pt x="254" y="342" on="0"/>
        <pt x="179" y="389" on="0"/>
        <pt x="113" y="444" on="0"/>
        <pt x="70" y="518" on="0"/>
        <pt x="70" y="572" on="1"/>
        <pt x="70" y="659" on="0"/>
        <pt x="186" y="750" on="0"/>
        <pt x="286" y="750" on="1"/>
        <pt x="300" y="750" on="0"/>
        <pt x="357" y="745" on="0"/>
        <pt x="414" y="720" on="0"/>
        <pt x="456" y="669" on="0"/>
      </contour>
      <contour>
        <pt x="201" y="1000" on="1"/>
        <pt x="278" y="920" on="1"/>
        <pt x="418" y="1000" on="1"/>
        <pt x="462" y="1000" on="1"/>
        <pt x="290" y="811" on="1"/>
        <pt x="269" y="811" on="1"/>
        <pt x="169" y="1000" on="1"/>
      </contour>
    </TTGlyph>
    <TTGlyph name="T" xMin="20" yMin="0" xMax="688" yMax="749">
      <contour>
        <pt x="582" y="620" on="1"/>
        <pt x="550" y="620" on="0"/>
        <pt x="470" y="633" on="0"/>
        <pt x="427" y="642" on="1"/>
        <pt x="427" y="0" on="1"/>
        <pt x="282" y="0" on="1"/>
        <pt x="282" y="662" on="1"/>
        <pt x="272" y="662" on="1"/>
        <pt x="227" y="662" on="0"/>
        <pt x="167" y="641" on="0"/>
        <pt x="131" y="602" on="0"/>
        <pt x="117" y="544" on="0"/>
        <pt x="117" y="508" on="1"/>
        <pt x="117" y="475" on="0"/>
        <pt x="126" y="435" on="0"/>
        <pt x="138" y="410" on="0"/>
        <pt x="150" y="397" on="0"/>
        <pt x="154" y="392" on="1"/>
        <pt x="91" y="392" on="0"/>
        <pt x="20" y="451" on="0"/>
        <pt x="20" y="526" on="1"/>
        <pt x="20" y="573" on="0"/>
        <pt x="52" y="655" on="0"/>
        <pt x="123" y="715" on="0"/>
        <pt x="236" y="749" on="0"/>
        <pt x="318" y="749" on="1"/>
        <pt x="358" y="749" on="0"/>
        <pt x="423" y="742" on="0"/>
        <pt x="480" y="733" on="0"/>
        <pt x="536" y="726" on="0"/>
        <pt x="567" y="726" on="1"/>
        <pt x="609" y="726" on="0"/>
        <pt x="666" y="739" on="0"/>
        <pt x="685" y="747" on="1"/>
        <pt x="688" y="727" on="0"/>
        <pt x="688" y="712" on="1"/>
        <pt x="688" y="667" on="0"/>
        <pt x="639" y="620" on="0"/>
      </contour>
    </TTGlyph>
    <TTGlyph name="T_h" xMin="20" yMin="-6" xMax="1098" yMax="749">
      <contour>
        <pt x="117" y="514" on="1"/>
        <pt x="117" y="477" on="0"/>
        <pt x="127" y="434" on="0"/>
        <pt x="139" y="410" on="0"/>
        <pt x="151" y="398" on="0"/>
        <pt x="153" y="392" on="1"/>
        <pt x="87" y="392" on="0"/>
        <pt x="20" y="454" on="0"/>
        <pt x="20" y="530" on="1"/>
        <pt x="20" y="573" on="0"/>
        <pt x="54" y="652" on="0"/>
        <pt x="127" y="713" on="0"/>
        <pt x="241" y="749" on="0"/>
        <pt x="322" y="749" on="1"/>
        <pt x="339" y="749" on="0"/>
        <pt x="401" y="741" on="0"/>
        <pt x="477" y="731" on="0"/>
        <pt x="560" y="723" on="0"/>
        <pt x="598" y="723" on="1"/>
        <pt x="635" y="723" on="0"/>
        <pt x="695" y="733" on="0"/>
        <pt x="714" y="747" on="1"/>
        <pt x="709" y="733" on="0"/>
        <pt x="701" y="704" on="0"/>
        <pt x="696" y="658" on="0"/>
        <pt x="693" y="586" on="0"/>
        <pt x="693" y="528" on="1"/>
        <pt x="693" y="446" on="1"/>
        <pt x="718" y="483" on="0"/>
        <pt x="776" y="504" on="0"/>
        <pt x="800" y="504" on="1"/>
        <pt x="829" y="504" on="0"/>
        <pt x="881" y="486" on="0"/>
        <pt x="920" y="444" on="0"/>
        <pt x="942" y="375" on="0"/>
        <pt x="942" y="324" on="1"/>
        <pt x="942" y="307" on="0"/>
        <pt x="941" y="268" on="0"/>
        <pt x="939" y="228" on="0"/>
        <pt x="938" y="190" on="0"/>
        <pt x="938" y="176" on="1"/>
        <pt x="938" y="134" on="0"/>
        <pt x="959" y="91" on="0"/>
        <pt x="991" y="91" on="1"/>
        <pt x="1024" y="91" on="0"/>
        <pt x="1048" y="140" on="0"/>
        <pt x="1056" y="179" on="1"/>
        <pt x="1098" y="179" on="1"/>
        <pt x="1090" y="117" on="0"/>
        <pt x="1057" y="44" on="0"/>
        <pt x="1017" y="6" on="0"/>
        <pt x="972" y="-6" on="0"/>
        <pt x="952" y="-6" on="1"/>
        <pt x="913" y="-6" on="0"/>
        <pt x="857" y="21" on="0"/>
        <pt x="821" y="69" on="0"/>
        <pt x="804" y="136" on="0"/>
        <pt x="804" y="176" on="1"/>
        <pt x="804" y="189" on="0"/>
        <pt x="805" y="224" on="0"/>
        <pt x="805" y="259" on="0"/>
        <pt x="806" y="292" on="0"/>
        <pt x="806" y="304" on="1"/>
        <pt x="806" y="363" on="0"/>
        <pt x="779" y="413" on="0"/>
        <pt x="754" y="413" on="1"/>
        <pt x="728" y="413" on="0"/>
        <pt x="700" y="362" on="0"/>
        <pt x="695" y="326" on="1"/>
        <pt x="695" y="0" on="1"/>
        <pt x="560" y="0" on="1"/>
        <pt x="560" y="638" on="1"/>
        <pt x="529" y="640" on="0"/>
        <pt x="461" y="650" on="0"/>
        <pt x="426" y="655" on="1"/>
        <pt x="426" y="0" on="1"/>
        <pt x="280" y="0" on="1"/>
        <pt x="280" y="664" on="1"/>
        <pt x="245" y="662" on="0"/>
        <pt x="186" y="646" on="0"/>
        <pt x="142" y="612" on="0"/>
        <pt x="117" y="556" on="0"/>
      </contour>
    </TTGlyph>
    <TTGlyph name="T_i" xMin="20" yMin="-6" xMax="872" yMax="749">
      <contour>
        <pt x="282" y="671" on="1"/>
        <pt x="261" y="674" on="0"/>
        <pt x="242" y="674" on="1"/>
        <pt x="213" y="674" on="0"/>
        <pt x="166" y="659" on="0"/>
        <pt x="133" y="624" on="0"/>
        <pt x="115" y="565" on="0"/>
        <pt x="115" y="522" on="1"/>
        <pt x="115" y="484" on="0"/>
        <pt x="126" y="437" on="0"/>
        <pt x="140" y="409" on="0"/>
        <pt x="153" y="396" on="0"/>
        <pt x="154" y="392" on="1"/>
        <pt x="92" y="392" on="0"/>
        <pt x="20" y="453" on="0"/>
        <pt x="20" y="524" on="1"/>
        <pt x="20" y="570" on="0"/>
        <pt x="52" y="652" on="0"/>
        <pt x="120" y="713" on="0"/>
        <pt x="224" y="749" on="0"/>
        <pt x="296" y="749" on="1"/>
        <pt x="353" y="749" on="0"/>
        <pt x="492" y="733" on="0"/>
        <pt x="572" y="733" on="1"/>
        <pt x="607" y="733" on="0"/>
        <pt x="668" y="739" on="0"/>
        <pt x="686" y="747" on="1"/>
        <pt x="703" y="715" on="0"/>
        <pt x="712" y="673" on="0"/>
        <pt x="712" y="661" on="1"/>
        <pt x="712" y="637" on="0"/>
        <pt x="694" y="606" on="0"/>
        <pt x="668" y="588" on="0"/>
        <pt x="638" y="581" on="0"/>
        <pt x="626" y="581" on="1"/>
        <pt x="592" y="581" on="0"/>
        <pt x="496" y="615" on="0"/>
        <pt x="427" y="637" on="1"/>
        <pt x="427" y="0" on="1"/>
        <pt x="281" y="0" on="1"/>
      </contour>
      <contour>
        <pt x="707" y="500" on="1"/>
        <pt x="707" y="160" on="1"/>
        <pt x="707" y="118" on="0"/>
        <pt x="730" y="91" on="0"/>
        <pt x="759" y="91" on="1"/>
        <pt x="788" y="91" on="0"/>
        <pt x="827" y="141" on="0"/>
        <pt x="830" y="179" on="1"/>
        <pt x="872" y="179" on="1"/>
        <pt x="864" y="118" on="0"/>
        <pt x="824" y="45" on="0"/>
        <pt x="774" y="6" on="0"/>
        <pt x="722" y="-6" on="0"/>
        <pt x="702" y="-6" on="1"/>
        <pt x="625" y="-6" on="0"/>
        <pt x="563" y="79" on="0"/>
        <pt x="563" y="149" on="1"/>
        <pt x="563" y="500" on="1"/>
      </contour>
    </TTGlyph>
    <TTGlyph name="Thorn" xMin="19" yMin="0" xMax="601" yMax="750">
      <contour>
        <pt x="336" y="750" on="1"/>
        <pt x="336" y="639" on="1"/>
        <pt x="403" y="636" on="0"/>
        <pt x="502" y="594" on="0"/>
        <pt x="568" y="529" on="0"/>
        <pt x="601" y="446" on="0"/>
        <pt x="601" y="403" on="1"/>
        <pt x="601" y="361" on="0"/>
        <pt x="571" y="279" on="0"/>
        <pt x="512" y="214" on="0"/>
        <pt x="423" y="175" on="0"/>
        <pt x="364" y="175" on="1"/>
        <pt x="336" y="175" on="1"/>
        <pt x="336" y="0" on="1"/>
        <pt x="191" y="0" on="1"/>
        <pt x="191" y="559" on="1"/>
        <pt x="153" y="535" on="0"/>
        <pt x="114" y="456" on="0"/>
        <pt x="114" y="403" on="1"/>
        <pt x="114" y="367" on="0"/>
        <pt x="124" y="325" on="0"/>
        <pt x="136" y="301" on="0"/>
        <pt x="148" y="289" on="0"/>
        <pt x="150" y="283" on="1"/>
        <pt x="84" y="283" on="0"/>
        <pt x="19" y="341" on="0"/>
        <pt x="19" y="406" on="1"/>
        <pt x="19" y="439" on="0"/>
        <pt x="45" y="501" on="0"/>
        <pt x="91" y="555" on="0"/>
        <pt x="154" y="599" on="0"/>
        <pt x="191" y="614" on="1"/>
        <pt x="191" y="730" on="1"/>
      </contour>
      <contour>
        <pt x="349" y="212" on="1"/>
        <pt x="382" y="212" on="0"/>
        <pt x="434" y="248" on="0"/>
        <pt x="469" y="305" on="0"/>
        <pt x="487" y="377" on="0"/>
        <pt x="487" y="413" on="1"/>
        <pt x="487" y="447" on="0"/>
        <pt x="469" y="512" on="0"/>
        <pt x="432" y="561" on="0"/>
        <pt x="375" y="592" on="0"/>
        <pt x="336" y="594" on="1"/>
        <pt x="336" y="212" on="1"/>
      </contour>
    </TTGlyph>
    <TTGlyph name="U" xMin="17" yMin="-7" xMax="726" yMax="750">
      <contour>
        <pt x="726" y="748" on="1"/>
        <pt x="726" y="210" on="1"/>
        <pt x="726" y="156" on="0"/>
        <pt x="685" y="74" on="0"/>
        <pt x="617" y="20" on="0"/>
        <pt x="532" y="-7" on="0"/>
        <pt x="487" y="-7" on="1"/>
        <pt x="442" y="-7" on="0"/>
        <pt x="356" y="20" on="0"/>
        <pt x="289" y="74" on="0"/>
        <pt x="248" y="156" on="0"/>
        <pt x="248" y="210" on="1"/>
        <pt x="248" y="692" on="1"/>
        <pt x="183" y="673" on="0"/>
        <pt x="112" y="579" on="0"/>
        <pt x="112" y="510" on="1"/>
        <pt x="112" y="480" on="0"/>
        <pt x="120" y="440" on="0"/>
        <pt x="131" y="415" on="0"/>
        <pt x="143" y="399" on="0"/>
        <pt x="147" y="393" on="1"/>
        <pt x="87" y="393" on="0"/>
        <pt x="17" y="448" on="0"/>
        <pt x="17" y="513" on="1"/>
        <pt x="17" y="561" on="0"/>
        <pt x="68" y="647" on="0"/>
        <pt x="157" y="712" on="0"/>
        <pt x="275" y="750" on="0"/>
        <pt x="342" y="750" on="1"/>
        <pt x="355" y="750" on="0"/>
        <pt x="375" y="748" on="0"/>
        <pt x="391" y="745" on="1"/>
        <pt x="391" y="200" on="1"/>
        <pt x="391" y="173" on="0"/>
        <pt x="407" y="132" on="0"/>
        <pt x="434" y="105" on="0"/>
        <pt x="469" y="91" on="0"/>
        <pt x="487" y="91" on="1"/>
        <pt x="505" y="91" on="0"/>
        <pt x="540" y="105" on="0"/>
        <pt x="567" y="132" on="0"/>
        <pt x="584" y="173" on="0"/>
        <pt x="584" y="200" on="1"/>
        <pt x="584" y="748" on="1"/>
      </contour>
    </TTGlyph>
    <TTGlyph name="Uacute" xMin="17" yMin="-7" xMax="726" yMax="1000">
      <contour>
        <pt x="726" y="748" on="1"/>
        <pt x="726" y="210" on="1"/>
        <pt x="726" y="156" on="0"/>
        <pt x="685" y="74" on="0"/>
        <pt x="617" y="20" on="0"/>
        <pt x="532" y="-7" on="0"/>
        <pt x="487" y="-7" on="1"/>
        <pt x="442" y="-7" on="0"/>
        <pt x="356" y="20" on="0"/>
        <pt x="289" y="74" on="0"/>
        <pt x="248" y="156" on="0"/>
        <pt x="248" y="210" on="1"/>
        <pt x="248" y="692" on="1"/>
        <pt x="183" y="673" on="0"/>
        <pt x="112" y="579" on="0"/>
        <pt x="112" y="510" on="1"/>
        <pt x="112" y="480" on="0"/>
        <pt x="120" y="440" on="0"/>
        <pt x="131" y="415" on="0"/>
        <pt x="143" y="399" on="0"/>
        <pt x="147" y="393" on="1"/>
        <pt x="87" y="393" on="0"/>
        <pt x="17" y="448" on="0"/>
        <pt x="17" y="513" on="1"/>
        <pt x="17" y="561" on="0"/>
        <pt x="68" y="647" on="0"/>
        <pt x="157" y="712" on="0"/>
        <pt x="275" y="750" on="0"/>
        <pt x="342" y="750" on="1"/>
        <pt x="355" y="750" on="0"/>
        <pt x="375" y="748" on="0"/>
        <pt x="391" y="745" on="1"/>
        <pt x="391" y="200" on="1"/>
        <pt x="391" y="173" on="0"/>
        <pt x="407" y="132" on="0"/>
        <pt x="434" y="105" on="0"/>
        <pt x="469" y="91" on="0"/>
        <pt x="487" y="91" on="1"/>
        <pt x="505" y="91" on="0"/>
        <pt x="540" y="105" on="0"/>
        <pt x="567" y="132" on="0"/>
        <pt x="584" y="173" on="0"/>
        <pt x="584" y="200" on="1"/>
        <pt x="584" y="748" on="1"/>
      </contour>
      <contour>
        <pt x="479" y="1000" on="1"/>
        <pt x="584" y="1000" on="1"/>
        <pt x="503" y="811" on="1"/>
        <pt x="428" y="811" on="1"/>
      </contour>
    </TTGlyph>
    <TTGlyph name="Ucircumflex" xMin="17" yMin="-7" xMax="726" yMax="1000">
      <contour>
        <pt x="726" y="748" on="1"/>
        <pt x="726" y="210" on="1"/>
        <pt x="726" y="156" on="0"/>
        <pt x="685" y="74" on="0"/>
        <pt x="617" y="20" on="0"/>
        <pt x="532" y="-7" on="0"/>
        <pt x="487" y="-7" on="1"/>
        <pt x="442" y="-7" on="0"/>
        <pt x="356" y="20" on="0"/>
        <pt x="289" y="74" on="0"/>
        <pt x="248" y="156" on="0"/>
        <pt x="248" y="210" on="1"/>
        <pt x="248" y="692" on="1"/>
        <pt x="183" y="673" on="0"/>
        <pt x="112" y="579" on="0"/>
        <pt x="112" y="510" on="1"/>
        <pt x="112" y="480" on="0"/>
        <pt x="120" y="440" on="0"/>
        <pt x="131" y="415" on="0"/>
        <pt x="143" y="399" on="0"/>
        <pt x="147" y="393" on="1"/>
        <pt x="87" y="393" on="0"/>
        <pt x="17" y="448" on="0"/>
        <pt x="17" y="513" on="1"/>
        <pt x="17" y="561" on="0"/>
        <pt x="68" y="647" on="0"/>
        <pt x="157" y="712" on="0"/>
        <pt x="275" y="750" on="0"/>
        <pt x="342" y="750" on="1"/>
        <pt x="355" y="750" on="0"/>
        <pt x="375" y="748" on="0"/>
        <pt x="391" y="745" on="1"/>
        <pt x="391" y="200" on="1"/>
        <pt x="391" y="173" on="0"/>
        <pt x="407" y="132" on="0"/>
        <pt x="434" y="105" on="0"/>
        <pt x="469" y="91" on="0"/>
        <pt x="487" y="91" on="1"/>
        <pt x="505" y="91" on="0"/>
        <pt x="540" y="105" on="0"/>
        <pt x="567" y="132" on="0"/>
        <pt x="584" y="173" on="0"/>
        <pt x="584" y="200" on="1"/>
        <pt x="584" y="748" on="1"/>
      </contour>
      <contour>
        <pt x="579" y="811" on="1"/>
        <pt x="502" y="891" on="1"/>
        <pt x="362" y="811" on="1"/>
        <pt x="318" y="811" on="1"/>
        <pt x="490" y="1000" on="1"/>
        <pt x="511" y="1000" on="1"/>
        <pt x="611" y="811" on="1"/>
      </contour>
    </TTGlyph>
    <TTGlyph name="Udieresis" xMin="17" yMin="-7" xMax="726" yMax="945">
      <contour>
        <pt x="726" y="748" on="1"/>
        <pt x="726" y="210" on="1"/>
        <pt x="726" y="156" on="0"/>
        <pt x="685" y="74" on="0"/>
        <pt x="617" y="20" on="0"/>
        <pt x="532" y="-7" on="0"/>
        <pt x="487" y="-7" on="1"/>
        <pt x="442" y="-7" on="0"/>
        <pt x="356" y="20" on="0"/>
        <pt x="289" y="74" on="0"/>
        <pt x="248" y="156" on="0"/>
        <pt x="248" y="210" on="1"/>
        <pt x="248" y="692" on="1"/>
        <pt x="183" y="673" on="0"/>
        <pt x="112" y="579" on="0"/>
        <pt x="112" y="510" on="1"/>
        <pt x="112" y="480" on="0"/>
        <pt x="120" y="440" on="0"/>
        <pt x="131" y="415" on="0"/>
        <pt x="143" y="399" on="0"/>
        <pt x="147" y="393" on="1"/>
        <pt x="87" y="393" on="0"/>
        <pt x="17" y="448" on="0"/>
        <pt x="17" y="513" on="1"/>
        <pt x="17" y="561" on="0"/>
        <pt x="68" y="647" on="0"/>
        <pt x="157" y="712" on="0"/>
        <pt x="275" y="750" on="0"/>
        <pt x="342" y="750" on="1"/>
        <pt x="355" y="750" on="0"/>
        <pt x="375" y="748" on="0"/>
        <pt x="391" y="745" on="1"/>
        <pt x="391" y="200" on="1"/>
        <pt x="391" y="173" on="0"/>
        <pt x="407" y="132" on="0"/>
        <pt x="434" y="105" on="0"/>
        <pt x="469" y="91" on="0"/>
        <pt x="487" y="91" on="1"/>
        <pt x="505" y="91" on="0"/>
        <pt x="540" y="105" on="0"/>
        <pt x="567" y="132" on="0"/>
        <pt x="584" y="173" on="0"/>
        <pt x="584" y="200" on="1"/>
        <pt x="584" y="748" on="1"/>
      </contour>
      <contour>
        <pt x="514" y="884" on="1"/>
        <pt x="514" y="909" on="0"/>
        <pt x="549" y="945" on="0"/>
        <pt x="575" y="945" on="1"/>
        <pt x="600" y="945" on="0"/>
        <pt x="636" y="909" on="0"/>
        <pt x="636" y="884" on="1"/>
        <pt x="636" y="858" on="0"/>
        <pt x="600" y="823" on="0"/>
        <pt x="575" y="823" on="1"/>
        <pt x="549" y="823" on="0"/>
        <pt x="514" y="858" on="0"/>
      </contour>
      <contour>
        <pt x="334" y="884" on="1"/>
        <pt x="334" y="909" on="0"/>
        <pt x="369" y="945" on="0"/>
        <pt x="395" y="945" on="1"/>
        <pt x="420" y="945" on="0"/>
        <pt x="456" y="909" on="0"/>
        <pt x="456" y="884" on="1"/>
        <pt x="456" y="858" on="0"/>
        <pt x="420" y="823" on="0"/>
        <pt x="395" y="823" on="1"/>
        <pt x="369" y="823" on="0"/>
        <pt x="334" y="858" on="0"/>
      </contour>
    </TTGlyph>
    <TTGlyph name="Ugrave" xMin="17" yMin="-7" xMax="726" yMax="1000">
      <contour>
        <pt x="726" y="748" on="1"/>
        <pt x="726" y="210" on="1"/>
        <pt x="726" y="156" on="0"/>
        <pt x="685" y="74" on="0"/>
        <pt x="617" y="20" on="0"/>
        <pt x="532" y="-7" on="0"/>
        <pt x="487" y="-7" on="1"/>
        <pt x="442" y="-7" on="0"/>
        <pt x="356" y="20" on="0"/>
        <pt x="289" y="74" on="0"/>
        <pt x="248" y="156" on="0"/>
        <pt x="248" y="210" on="1"/>
        <pt x="248" y="692" on="1"/>
        <pt x="183" y="673" on="0"/>
        <pt x="112" y="579" on="0"/>
        <pt x="112" y="510" on="1"/>
        <pt x="112" y="480" on="0"/>
        <pt x="120" y="440" on="0"/>
        <pt x="131" y="415" on="0"/>
        <pt x="143" y="399" on="0"/>
        <pt x="147" y="393" on="1"/>
        <pt x="87" y="393" on="0"/>
        <pt x="17" y="448" on="0"/>
        <pt x="17" y="513" on="1"/>
        <pt x="17" y="561" on="0"/>
        <pt x="68" y="647" on="0"/>
        <pt x="157" y="712" on="0"/>
        <pt x="275" y="750" on="0"/>
        <pt x="342" y="750" on="1"/>
        <pt x="355" y="750" on="0"/>
        <pt x="375" y="748" on="0"/>
        <pt x="391" y="745" on="1"/>
        <pt x="391" y="200" on="1"/>
        <pt x="391" y="173" on="0"/>
        <pt x="407" y="132" on="0"/>
        <pt x="434" y="105" on="0"/>
        <pt x="469" y="91" on="0"/>
        <pt x="487" y="91" on="1"/>
        <pt x="505" y="91" on="0"/>
        <pt x="540" y="105" on="0"/>
        <pt x="567" y="132" on="0"/>
        <pt x="584" y="173" on="0"/>
        <pt x="584" y="200" on="1"/>
        <pt x="584" y="748" on="1"/>
      </contour>
      <contour>
        <pt x="353" y="1000" on="1"/>
        <pt x="458" y="1000" on="1"/>
        <pt x="527" y="811" on="1"/>
        <pt x="452" y="811" on="1"/>
      </contour>
    </TTGlyph>
    <TTGlyph name="Uhungarumlaut" xMin="17" yMin="-7" xMax="726" yMax="1000">
      <contour>
        <pt x="726" y="748" on="1"/>
        <pt x="726" y="210" on="1"/>
        <pt x="726" y="156" on="0"/>
        <pt x="685" y="74" on="0"/>
        <pt x="617" y="20" on="0"/>
        <pt x="532" y="-7" on="0"/>
        <pt x="487" y="-7" on="1"/>
        <pt x="442" y="-7" on="0"/>
        <pt x="356" y="20" on="0"/>
        <pt x="289" y="74" on="0"/>
        <pt x="248" y="156" on="0"/>
        <pt x="248" y="210" on="1"/>
        <pt x="248" y="692" on="1"/>
        <pt x="183" y="673" on="0"/>
        <pt x="112" y="579" on="0"/>
        <pt x="112" y="510" on="1"/>
        <pt x="112" y="480" on="0"/>
        <pt x="120" y="440" on="0"/>
        <pt x="131" y="415" on="0"/>
        <pt x="143" y="399" on="0"/>
        <pt x="147" y="393" on="1"/>
        <pt x="87" y="393" on="0"/>
        <pt x="17" y="448" on="0"/>
        <pt x="17" y="513" on="1"/>
        <pt x="17" y="561" on="0"/>
        <pt x="68" y="647" on="0"/>
        <pt x="157" y="712" on="0"/>
        <pt x="275" y="750" on="0"/>
        <pt x="342" y="750" on="1"/>
        <pt x="355" y="750" on="0"/>
        <pt x="375" y="748" on="0"/>
        <pt x="391" y="745" on="1"/>
        <pt x="391" y="200" on="1"/>
        <pt x="391" y="173" on="0"/>
        <pt x="407" y="132" on="0"/>
        <pt x="434" y="105" on="0"/>
        <pt x="469" y="91" on="0"/>
        <pt x="487" y="91" on="1"/>
        <pt x="505" y="91" on="0"/>
        <pt x="540" y="105" on="0"/>
        <pt x="567" y="132" on="0"/>
        <pt x="584" y="173" on="0"/>
        <pt x="584" y="200" on="1"/>
        <pt x="584" y="748" on="1"/>
      </contour>
      <contour>
        <pt x="576" y="1000" on="1"/>
        <pt x="671" y="1000" on="1"/>
        <pt x="590" y="811" on="1"/>
        <pt x="525" y="811" on="1"/>
      </contour>
      <contour>
        <pt x="446" y="1000" on="1"/>
        <pt x="541" y="1000" on="1"/>
        <pt x="460" y="811" on="1"/>
        <pt x="395" y="811" on="1"/>
      </contour>
    </TTGlyph>
    <TTGlyph name="V" xMin="17" yMin="0" xMax="718" yMax="750">
      <contour>
        <pt x="512" y="133" on="1"/>
        <pt x="644" y="745" on="1"/>
        <pt x="718" y="745" on="1"/>
        <pt x="550" y="0" on="1"/>
        <pt x="402" y="0" on="1"/>
        <pt x="221" y="683" on="1"/>
        <pt x="168" y="662" on="0"/>
        <pt x="112" y="572" on="0"/>
        <pt x="112" y="510" on="1"/>
        <pt x="112" y="480" on="0"/>
        <pt x="121" y="440" on="0"/>
        <pt x="132" y="414" on="0"/>
        <pt x="144" y="399" on="0"/>
        <pt x="147" y="393" on="1"/>
        <pt x="87" y="393" on="0"/>
        <pt x="17" y="448" on="0"/>
        <pt x="17" y="514" on="1"/>
        <pt x="17" y="562" on="0"/>
        <pt x="67" y="647" on="0"/>
        <pt x="150" y="712" on="0"/>
        <pt x="257" y="750" on="0"/>
        <pt x="314" y="750" on="1"/>
        <pt x="325" y="750" on="0"/>
        <pt x="346" y="749" on="0"/>
        <pt x="356" y="748" on="1"/>
      </contour>
    </TTGlyph>
    <TTGlyph name="W" xMin="17" yMin="0" xMax="998" yMax="750">
      <contour>
        <pt x="476" y="133" on="1"/>
        <pt x="575" y="745" on="1"/>
        <pt x="702" y="745" on="1"/>
        <pt x="822" y="133" on="1"/>
        <pt x="921" y="745" on="1"/>
        <pt x="998" y="745" on="1"/>
        <pt x="859" y="0" on="1"/>
        <pt x="708" y="0" on="1"/>
        <pt x="608" y="509" on="1"/>
        <pt x="506" y="0" on="1"/>
        <pt x="362" y="0" on="1"/>
        <pt x="221" y="683" on="1"/>
        <pt x="167" y="661" on="0"/>
        <pt x="112" y="572" on="0"/>
        <pt x="112" y="506" on="1"/>
        <pt x="112" y="476" on="0"/>
        <pt x="122" y="437" on="0"/>
        <pt x="134" y="411" on="0"/>
        <pt x="145" y="397" on="0"/>
        <pt x="147" y="393" on="1"/>
        <pt x="87" y="393" on="0"/>
        <pt x="17" y="449" on="0"/>
        <pt x="17" y="509" on="1"/>
        <pt x="17" y="560" on="0"/>
        <pt x="67" y="648" on="0"/>
        <pt x="150" y="713" on="0"/>
        <pt x="257" y="750" on="0"/>
        <pt x="314" y="750" on="1"/>
        <pt x="325" y="750" on="0"/>
        <pt x="346" y="749" on="0"/>
        <pt x="356" y="748" on="1"/>
      </contour>
    </TTGlyph>
    <TTGlyph name="X" xMin="18" yMin="0" xMax="651" yMax="750">
      <contour>
        <pt x="492" y="0" on="1"/>
        <pt x="384" y="272" on="1"/>
        <pt x="251" y="0" on="1"/>
        <pt x="186" y="0" on="1"/>
        <pt x="351" y="356" on="1"/>
        <pt x="222" y="683" on="1"/>
        <pt x="169" y="662" on="0"/>
        <pt x="113" y="572" on="0"/>
        <pt x="113" y="510" on="1"/>
        <pt x="113" y="478" on="0"/>
        <pt x="122" y="439" on="0"/>
        <pt x="133" y="413" on="0"/>
        <pt x="145" y="399" on="0"/>
        <pt x="148" y="393" on="1"/>
        <pt x="88" y="393" on="0"/>
        <pt x="18" y="448" on="0"/>
        <pt x="18" y="514" on="1"/>
        <pt x="18" y="562" on="0"/>
        <pt x="68" y="647" on="0"/>
        <pt x="151" y="712" on="0"/>
        <pt x="258" y="750" on="0"/>
        <pt x="315" y="750" on="1"/>
        <pt x="326" y="750" on="0"/>
        <pt x="347" y="749" on="0"/>
        <pt x="357" y="748" on="1"/>
        <pt x="466" y="469" on="1"/>
        <pt x="584" y="745" on="1"/>
        <pt x="649" y="745" on="1"/>
        <pt x="499" y="384" on="1"/>
        <pt x="651" y="0" on="1"/>
      </contour>
    </TTGlyph>
    <TTGlyph name="Y" xMin="17" yMin="0" xMax="661" yMax="750">
      <contour>
        <pt x="372" y="0" on="1"/>
        <pt x="372" y="308" on="1"/>
        <pt x="221" y="683" on="1"/>
        <pt x="168" y="662" on="0"/>
        <pt x="112" y="572" on="0"/>
        <pt x="112" y="510" on="1"/>
        <pt x="112" y="478" on="0"/>
        <pt x="121" y="439" on="0"/>
        <pt x="132" y="413" on="0"/>
        <pt x="144" y="399" on="0"/>
        <pt x="147" y="393" on="1"/>
        <pt x="87" y="393" on="0"/>
        <pt x="17" y="448" on="0"/>
        <pt x="17" y="514" on="1"/>
        <pt x="17" y="562" on="0"/>
        <pt x="67" y="647" on="0"/>
        <pt x="150" y="712" on="0"/>
        <pt x="257" y="750" on="0"/>
        <pt x="314" y="750" on="1"/>
        <pt x="325" y="750" on="0"/>
        <pt x="346" y="749" on="0"/>
        <pt x="356" y="748" on="1"/>
        <pt x="499" y="389" on="1"/>
        <pt x="595" y="745" on="1"/>
        <pt x="661" y="745" on="1"/>
        <pt x="532" y="308" on="1"/>
        <pt x="532" y="0" on="1"/>
      </contour>
    </TTGlyph>
    <TTGlyph name="Yacute" xMin="17" yMin="0" xMax="661" yMax="1000">
      <contour>
        <pt x="372" y="0" on="1"/>
        <pt x="372" y="308" on="1"/>
        <pt x="221" y="683" on="1"/>
        <pt x="168" y="662" on="0"/>
        <pt x="112" y="572" on="0"/>
        <pt x="112" y="510" on="1"/>
        <pt x="112" y="478" on="0"/>
        <pt x="121" y="439" on="0"/>
        <pt x="132" y="413" on="0"/>
        <pt x="144" y="399" on="0"/>
        <pt x="147" y="393" on="1"/>
        <pt x="87" y="393" on="0"/>
        <pt x="17" y="448" on="0"/>
        <pt x="17" y="514" on="1"/>
        <pt x="17" y="562" on="0"/>
        <pt x="67" y="647" on="0"/>
        <pt x="150" y="712" on="0"/>
        <pt x="257" y="750" on="0"/>
        <pt x="314" y="750" on="1"/>
        <pt x="325" y="750" on="0"/>
        <pt x="346" y="749" on="0"/>
        <pt x="356" y="748" on="1"/>
        <pt x="499" y="389" on="1"/>
        <pt x="595" y="745" on="1"/>
        <pt x="661" y="745" on="1"/>
        <pt x="532" y="308" on="1"/>
        <pt x="532" y="0" on="1"/>
      </contour>
      <contour>
        <pt x="481" y="1000" on="1"/>
        <pt x="586" y="1000" on="1"/>
        <pt x="505" y="811" on="1"/>
        <pt x="430" y="811" on="1"/>
      </contour>
    </TTGlyph>
    <TTGlyph name="Ydieresis" xMin="17" yMin="0" xMax="661" yMax="945">
      <contour>
        <pt x="372" y="0" on="1"/>
        <pt x="372" y="308" on="1"/>
        <pt x="221" y="683" on="1"/>
        <pt x="168" y="662" on="0"/>
        <pt x="112" y="572" on="0"/>
        <pt x="112" y="510" on="1"/>
        <pt x="112" y="478" on="0"/>
        <pt x="121" y="439" on="0"/>
        <pt x="132" y="413" on="0"/>
        <pt x="144" y="399" on="0"/>
        <pt x="147" y="393" on="1"/>
        <pt x="87" y="393" on="0"/>
        <pt x="17" y="448" on="0"/>
        <pt x="17" y="514" on="1"/>
        <pt x="17" y="562" on="0"/>
        <pt x="67" y="647" on="0"/>
        <pt x="150" y="712" on="0"/>
        <pt x="257" y="750" on="0"/>
        <pt x="314" y="750" on="1"/>
        <pt x="325" y="750" on="0"/>
        <pt x="346" y="749" on="0"/>
        <pt x="356" y="748" on="1"/>
        <pt x="499" y="389" on="1"/>
        <pt x="595" y="745" on="1"/>
        <pt x="661" y="745" on="1"/>
        <pt x="532" y="308" on="1"/>
        <pt x="532" y="0" on="1"/>
      </contour>
      <contour>
        <pt x="514" y="884" on="1"/>
        <pt x="514" y="909" on="0"/>
        <pt x="549" y="945" on="0"/>
        <pt x="575" y="945" on="1"/>
        <pt x="600" y="945" on="0"/>
        <pt x="636" y="909" on="0"/>
        <pt x="636" y="884" on="1"/>
        <pt x="636" y="858" on="0"/>
        <pt x="600" y="823" on="0"/>
        <pt x="575" y="823" on="1"/>
        <pt x="549" y="823" on="0"/>
        <pt x="514" y="858" on="0"/>
      </contour>
      <contour>
        <pt x="334" y="884" on="1"/>
        <pt x="334" y="909" on="0"/>
        <pt x="369" y="945" on="0"/>
        <pt x="395" y="945" on="1"/>
        <pt x="420" y="945" on="0"/>
        <pt x="456" y="909" on="0"/>
        <pt x="456" y="884" on="1"/>
        <pt x="456" y="858" on="0"/>
        <pt x="420" y="823" on="0"/>
        <pt x="395" y="823" on="1"/>
        <pt x="369" y="823" on="0"/>
        <pt x="334" y="858" on="0"/>
      </contour>
    </TTGlyph>
    <TTGlyph name="Z" xMin="18" yMin="0" xMax="559" yMax="750">
      <contour>
        <pt x="470" y="85" on="1"/>
        <pt x="463" y="85" on="0"/>
        <pt x="444" y="103" on="0"/>
        <pt x="444" y="128" on="1"/>
        <pt x="444" y="153" on="0"/>
        <pt x="475" y="174" on="0"/>
        <pt x="493" y="174" on="1"/>
        <pt x="510" y="174" on="0"/>
        <pt x="535" y="160" on="0"/>
        <pt x="551" y="139" on="0"/>
        <pt x="559" y="113" on="0"/>
        <pt x="559" y="101" on="1"/>
        <pt x="559" y="83" on="0"/>
        <pt x="546" y="47" on="0"/>
        <pt x="519" y="18" on="0"/>
        <pt x="480" y="0" on="0"/>
        <pt x="453" y="0" on="1"/>
        <pt x="52" y="0" on="1"/>
        <pt x="334" y="696" on="1"/>
        <pt x="326" y="696" on="0"/>
        <pt x="290" y="697" on="0"/>
        <pt x="248" y="697" on="0"/>
        <pt x="207" y="698" on="0"/>
        <pt x="194" y="698" on="1"/>
        <pt x="160" y="698" on="0"/>
        <pt x="107" y="690" on="0"/>
        <pt x="107" y="678" on="1"/>
        <pt x="119" y="673" on="0"/>
        <pt x="130" y="652" on="0"/>
        <pt x="130" y="639" on="1"/>
        <pt x="130" y="620" on="0"/>
        <pt x="107" y="587" on="0"/>
        <pt x="84" y="587" on="1"/>
        <pt x="66" y="587" on="0"/>
        <pt x="41" y="601" on="0"/>
        <pt x="25" y="623" on="0"/>
        <pt x="18" y="649" on="0"/>
        <pt x="18" y="661" on="1"/>
        <pt x="18" y="678" on="0"/>
        <pt x="30" y="710" on="0"/>
        <pt x="56" y="735" on="0"/>
        <pt x="95" y="750" on="0"/>
        <pt x="121" y="750" on="1"/>
        <pt x="514" y="750" on="1"/>
        <pt x="234" y="65" on="1"/>
        <pt x="254" y="65" on="0"/>
        <pt x="306" y="63" on="0"/>
        <pt x="331" y="63" on="1"/>
        <pt x="349" y="63" on="0"/>
        <pt x="394" y="65" on="0"/>
        <pt x="436" y="70" on="0"/>
        <pt x="467" y="78" on="0"/>
      </contour>
    </TTGlyph>
    <TTGlyph name="Zacute" xMin="18" yMin="0" xMax="559" yMax="1000">
      <contour>
        <pt x="470" y="85" on="1"/>
        <pt x="463" y="85" on="0"/>
        <pt x="444" y="103" on="0"/>
        <pt x="444" y="128" on="1"/>
        <pt x="444" y="153" on="0"/>
        <pt x="475" y="174" on="0"/>
        <pt x="493" y="174" on="1"/>
        <pt x="510" y="174" on="0"/>
        <pt x="535" y="160" on="0"/>
        <pt x="551" y="139" on="0"/>
        <pt x="559" y="113" on="0"/>
        <pt x="559" y="101" on="1"/>
        <pt x="559" y="83" on="0"/>
        <pt x="546" y="47" on="0"/>
        <pt x="519" y="18" on="0"/>
        <pt x="480" y="0" on="0"/>
        <pt x="453" y="0" on="1"/>
        <pt x="52" y="0" on="1"/>
        <pt x="334" y="696" on="1"/>
        <pt x="326" y="696" on="0"/>
        <pt x="290" y="697" on="0"/>
        <pt x="248" y="697" on="0"/>
        <pt x="207" y="698" on="0"/>
        <pt x="194" y="698" on="1"/>
        <pt x="160" y="698" on="0"/>
        <pt x="107" y="690" on="0"/>
        <pt x="107" y="678" on="1"/>
        <pt x="119" y="673" on="0"/>
        <pt x="130" y="652" on="0"/>
        <pt x="130" y="639" on="1"/>
        <pt x="130" y="620" on="0"/>
        <pt x="107" y="587" on="0"/>
        <pt x="84" y="587" on="1"/>
        <pt x="66" y="587" on="0"/>
        <pt x="41" y="601" on="0"/>
        <pt x="25" y="623" on="0"/>
        <pt x="18" y="649" on="0"/>
        <pt x="18" y="661" on="1"/>
        <pt x="18" y="678" on="0"/>
        <pt x="30" y="710" on="0"/>
        <pt x="56" y="735" on="0"/>
        <pt x="95" y="750" on="0"/>
        <pt x="121" y="750" on="1"/>
        <pt x="514" y="750" on="1"/>
        <pt x="234" y="65" on="1"/>
        <pt x="254" y="65" on="0"/>
        <pt x="306" y="63" on="0"/>
        <pt x="331" y="63" on="1"/>
        <pt x="349" y="63" on="0"/>
        <pt x="394" y="65" on="0"/>
        <pt x="436" y="70" on="0"/>
        <pt x="467" y="78" on="0"/>
      </contour>
      <contour>
        <pt x="315" y="1000" on="1"/>
        <pt x="420" y="1000" on="1"/>
        <pt x="339" y="811" on="1"/>
        <pt x="264" y="811" on="1"/>
      </contour>
    </TTGlyph>
    <TTGlyph name="Zcaron" xMin="18" yMin="0" xMax="559" yMax="1000">
      <contour>
        <pt x="470" y="85" on="1"/>
        <pt x="463" y="85" on="0"/>
        <pt x="444" y="103" on="0"/>
        <pt x="444" y="128" on="1"/>
        <pt x="444" y="153" on="0"/>
        <pt x="475" y="174" on="0"/>
        <pt x="493" y="174" on="1"/>
        <pt x="510" y="174" on="0"/>
        <pt x="535" y="160" on="0"/>
        <pt x="551" y="139" on="0"/>
        <pt x="559" y="113" on="0"/>
        <pt x="559" y="101" on="1"/>
        <pt x="559" y="83" on="0"/>
        <pt x="546" y="47" on="0"/>
        <pt x="519" y="18" on="0"/>
        <pt x="480" y="0" on="0"/>
        <pt x="453" y="0" on="1"/>
        <pt x="52" y="0" on="1"/>
        <pt x="334" y="696" on="1"/>
        <pt x="326" y="696" on="0"/>
        <pt x="290" y="697" on="0"/>
        <pt x="248" y="697" on="0"/>
        <pt x="207" y="698" on="0"/>
        <pt x="194" y="698" on="1"/>
        <pt x="160" y="698" on="0"/>
        <pt x="107" y="690" on="0"/>
        <pt x="107" y="678" on="1"/>
        <pt x="119" y="673" on="0"/>
        <pt x="130" y="652" on="0"/>
        <pt x="130" y="639" on="1"/>
        <pt x="130" y="620" on="0"/>
        <pt x="107" y="587" on="0"/>
        <pt x="84" y="587" on="1"/>
        <pt x="66" y="587" on="0"/>
        <pt x="41" y="601" on="0"/>
        <pt x="25" y="623" on="0"/>
        <pt x="18" y="649" on="0"/>
        <pt x="18" y="661" on="1"/>
        <pt x="18" y="678" on="0"/>
        <pt x="30" y="710" on="0"/>
        <pt x="56" y="735" on="0"/>
        <pt x="95" y="750" on="0"/>
        <pt x="121" y="750" on="1"/>
        <pt x="514" y="750" on="1"/>
        <pt x="234" y="65" on="1"/>
        <pt x="254" y="65" on="0"/>
        <pt x="306" y="63" on="0"/>
        <pt x="331" y="63" on="1"/>
        <pt x="349" y="63" on="0"/>
        <pt x="394" y="65" on="0"/>
        <pt x="436" y="70" on="0"/>
        <pt x="467" y="78" on="0"/>
      </contour>
      <contour>
        <pt x="217" y="1000" on="1"/>
        <pt x="294" y="920" on="1"/>
        <pt x="434" y="1000" on="1"/>
        <pt x="478" y="1000" on="1"/>
        <pt x="306" y="811" on="1"/>
        <pt x="285" y="811" on="1"/>
        <pt x="185" y="1000" on="1"/>
      </contour>
    </TTGlyph>
    <TTGlyph name="Zdotaccent" xMin="18" yMin="0" xMax="559" yMax="947">
      <contour>
        <pt x="214" y="883" on="1"/>
        <pt x="214" y="909" on="0"/>
        <pt x="251" y="947" on="0"/>
        <pt x="277" y="947" on="1"/>
        <pt x="303" y="947" on="0"/>
        <pt x="341" y="909" on="0"/>
        <pt x="341" y="883" on="1"/>
        <pt x="341" y="857" on="0"/>
        <pt x="303" y="820" on="0"/>
        <pt x="277" y="820" on="1"/>
        <pt x="251" y="820" on="0"/>
        <pt x="214" y="857" on="0"/>
      </contour>
      <contour>
        <pt x="470" y="85" on="1"/>
        <pt x="463" y="85" on="0"/>
        <pt x="444" y="103" on="0"/>
        <pt x="444" y="128" on="1"/>
        <pt x="444" y="153" on="0"/>
        <pt x="475" y="174" on="0"/>
        <pt x="493" y="174" on="1"/>
        <pt x="510" y="174" on="0"/>
        <pt x="535" y="160" on="0"/>
        <pt x="551" y="139" on="0"/>
        <pt x="559" y="113" on="0"/>
        <pt x="559" y="101" on="1"/>
        <pt x="559" y="83" on="0"/>
        <pt x="546" y="47" on="0"/>
        <pt x="519" y="18" on="0"/>
        <pt x="480" y="0" on="0"/>
        <pt x="453" y="0" on="1"/>
        <pt x="52" y="0" on="1"/>
        <pt x="334" y="696" on="1"/>
        <pt x="326" y="696" on="0"/>
        <pt x="290" y="697" on="0"/>
        <pt x="248" y="697" on="0"/>
        <pt x="207" y="698" on="0"/>
        <pt x="194" y="698" on="1"/>
        <pt x="160" y="698" on="0"/>
        <pt x="107" y="690" on="0"/>
        <pt x="107" y="678" on="1"/>
        <pt x="119" y="673" on="0"/>
        <pt x="130" y="652" on="0"/>
        <pt x="130" y="639" on="1"/>
        <pt x="130" y="620" on="0"/>
        <pt x="107" y="587" on="0"/>
        <pt x="84" y="587" on="1"/>
        <pt x="66" y="587" on="0"/>
        <pt x="41" y="601" on="0"/>
        <pt x="25" y="623" on="0"/>
        <pt x="18" y="649" on="0"/>
        <pt x="18" y="661" on="1"/>
        <pt x="18" y="678" on="0"/>
        <pt x="30" y="710" on="0"/>
        <pt x="56" y="735" on="0"/>
        <pt x="95" y="750" on="0"/>
        <pt x="121" y="750" on="1"/>
        <pt x="514" y="750" on="1"/>
        <pt x="234" y="65" on="1"/>
        <pt x="254" y="65" on="0"/>
        <pt x="306" y="63" on="0"/>
        <pt x="331" y="63" on="1"/>
        <pt x="349" y="63" on="0"/>
        <pt x="394" y="65" on="0"/>
        <pt x="436" y="70" on="0"/>
        <pt x="467" y="78" on="0"/>
      </contour>
    </TTGlyph>
    <TTGlyph name="a" xMin="30" yMin="-6" xMax="624" yMax="505">
      <contour>
        <pt x="459" y="500" on="1"/>
        <pt x="459" y="160" on="1"/>
        <pt x="459" y="118" on="0"/>
        <pt x="482" y="91" on="0"/>
        <pt x="511" y="91" on="1"/>
        <pt x="540" y="91" on="0"/>
        <pt x="579" y="141" on="0"/>
        <pt x="582" y="179" on="1"/>
        <pt x="624" y="179" on="1"/>
        <pt x="616" y="118" on="0"/>
        <pt x="576" y="45" on="0"/>
        <pt x="526" y="6" on="0"/>
        <pt x="474" y="-6" on="0"/>
        <pt x="454" y="-6" on="1"/>
        <pt x="401" y="-6" on="0"/>
        <pt x="346" y="43" on="0"/>
        <pt x="335" y="86" on="1"/>
        <pt x="327" y="69" on="0"/>
        <pt x="305" y="36" on="0"/>
        <pt x="274" y="10" on="0"/>
        <pt x="233" y="-6" on="0"/>
        <pt x="206" y="-6" on="1"/>
        <pt x="174" y="-6" on="0"/>
        <pt x="112" y="18" on="0"/>
        <pt x="61" y="72" on="0"/>
        <pt x="30" y="161" on="0"/>
        <pt x="30" y="226" on="1"/>
        <pt x="30" y="272" on="0"/>
        <pt x="51" y="370" on="0"/>
        <pt x="96" y="452" on="0"/>
        <pt x="169" y="505" on="0"/>
        <pt x="221" y="505" on="1"/>
        <pt x="233" y="505" on="0"/>
        <pt x="261" y="502" on="0"/>
        <pt x="287" y="491" on="0"/>
        <pt x="309" y="470" on="0"/>
        <pt x="315" y="452" on="1"/>
        <pt x="315" y="500" on="1"/>
      </contour>
      <contour>
        <pt x="315" y="404" on="1"/>
        <pt x="314" y="408" on="0"/>
        <pt x="308" y="421" on="0"/>
        <pt x="296" y="434" on="0"/>
        <pt x="278" y="443" on="0"/>
        <pt x="266" y="443" on="1"/>
        <pt x="242" y="443" on="0"/>
        <pt x="207" y="402" on="0"/>
        <pt x="186" y="341" on="0"/>
        <pt x="176" y="268" on="0"/>
        <pt x="176" y="235" on="1"/>
        <pt x="176" y="182" on="0"/>
        <pt x="192" y="123" on="0"/>
        <pt x="215" y="96" on="0"/>
        <pt x="241" y="91" on="0"/>
        <pt x="250" y="91" on="1"/>
        <pt x="261" y="91" on="0"/>
        <pt x="284" y="102" on="0"/>
        <pt x="303" y="124" on="0"/>
        <pt x="315" y="157" on="0"/>
        <pt x="315" y="179" on="1"/>
      </contour>
    </TTGlyph>
    <TTGlyph name="a.end" xMin="30" yMin="-6" xMax="531" yMax="505">
      <contour>
        <pt x="459" y="500" on="1"/>
        <pt x="459" y="160" on="1"/>
        <pt x="459" y="118" on="0"/>
        <pt x="482" y="91" on="0"/>
        <pt x="511" y="91" on="1"/>
        <pt x="523" y="91" on="0"/>
        <pt x="531" y="95" on="1"/>
        <pt x="522" y="39" on="0"/>
        <pt x="489" y="-6" on="0"/>
        <pt x="447" y="-6" on="1"/>
        <pt x="397" y="-6" on="0"/>
        <pt x="345" y="44" on="0"/>
        <pt x="335" y="86" on="1"/>
        <pt x="327" y="69" on="0"/>
        <pt x="305" y="36" on="0"/>
        <pt x="274" y="10" on="0"/>
        <pt x="233" y="-6" on="0"/>
        <pt x="206" y="-6" on="1"/>
        <pt x="174" y="-6" on="0"/>
        <pt x="112" y="18" on="0"/>
        <pt x="61" y="72" on="0"/>
        <pt x="30" y="161" on="0"/>
        <pt x="30" y="226" on="1"/>
        <pt x="30" y="272" on="0"/>
        <pt x="51" y="370" on="0"/>
        <pt x="96" y="452" on="0"/>
        <pt x="169" y="505" on="0"/>
        <pt x="221" y="505" on="1"/>
        <pt x="233" y="505" on="0"/>
        <pt x="261" y="502" on="0"/>
        <pt x="287" y="491" on="0"/>
        <pt x="309" y="470" on="0"/>
        <pt x="315" y="452" on="1"/>
        <pt x="315" y="500" on="1"/>
      </contour>
      <contour>
        <pt x="266" y="443" on="1"/>
        <pt x="242" y="443" on="0"/>
        <pt x="207" y="402" on="0"/>
        <pt x="186" y="341" on="0"/>
        <pt x="176" y="268" on="0"/>
        <pt x="176" y="235" on="1"/>
        <pt x="176" y="182" on="0"/>
        <pt x="192" y="123" on="0"/>
        <pt x="215" y="96" on="0"/>
        <pt x="241" y="91" on="0"/>
        <pt x="250" y="91" on="1"/>
        <pt x="261" y="91" on="0"/>
        <pt x="284" y="102" on="0"/>
        <pt x="303" y="124" on="0"/>
        <pt x="315" y="156" on="0"/>
        <pt x="315" y="178" on="1"/>
        <pt x="315" y="405" on="1"/>
        <pt x="313" y="409" on="0"/>
        <pt x="307" y="422" on="0"/>
        <pt x="295" y="434" on="0"/>
        <pt x="278" y="443" on="0"/>
      </contour>
    </TTGlyph>
    <TTGlyph name="a_x" xMin="30" yMin="-6" xMax="988" yMax="556">
      <contour>
        <pt x="459" y="500" on="1"/>
        <pt x="459" y="160" on="1"/>
        <pt x="459" y="148" on="0"/>
        <pt x="462" y="123" on="0"/>
        <pt x="473" y="104" on="0"/>
        <pt x="494" y="91" on="0"/>
        <pt x="513" y="91" on="1"/>
        <pt x="532" y="91" on="0"/>
        <pt x="572" y="106" on="0"/>
        <pt x="609" y="132" on="0"/>
        <pt x="641" y="167" on="0"/>
        <pt x="653" y="186" on="1"/>
        <pt x="529" y="500" on="1"/>
        <pt x="670" y="500" on="1"/>
        <pt x="755" y="285" on="1"/>
        <pt x="784" y="327" on="0"/>
        <pt x="817" y="404" on="0"/>
        <pt x="817" y="431" on="1"/>
        <pt x="817" y="443" on="0"/>
        <pt x="814" y="452" on="0"/>
        <pt x="812" y="455" on="1"/>
        <pt x="807" y="454" on="0"/>
        <pt x="799" y="453" on="0"/>
        <pt x="795" y="453" on="1"/>
        <pt x="777" y="453" on="0"/>
        <pt x="754" y="466" on="0"/>
        <pt x="741" y="486" on="0"/>
        <pt x="735" y="508" on="0"/>
        <pt x="735" y="517" on="1"/>
        <pt x="735" y="536" on="0"/>
        <pt x="762" y="556" on="0"/>
        <pt x="782" y="556" on="1"/>
        <pt x="803" y="556" on="0"/>
        <pt x="837" y="537" on="0"/>
        <pt x="860" y="505" on="0"/>
        <pt x="873" y="464" on="0"/>
        <pt x="873" y="442" on="1"/>
        <pt x="873" y="400" on="0"/>
        <pt x="825" y="297" on="0"/>
        <pt x="777" y="229" on="1"/>
        <pt x="797" y="179" on="1"/>
        <pt x="803" y="164" on="0"/>
        <pt x="816" y="133" on="0"/>
        <pt x="834" y="108" on="0"/>
        <pt x="857" y="91" on="0"/>
        <pt x="874" y="91" on="1"/>
        <pt x="903" y="91" on="0"/>
        <pt x="942" y="141" on="0"/>
        <pt x="946" y="179" on="1"/>
        <pt x="988" y="179" on="1"/>
        <pt x="979" y="118" on="0"/>
        <pt x="940" y="45" on="0"/>
        <pt x="892" y="6" on="0"/>
        <pt x="841" y="-6" on="0"/>
        <pt x="821" y="-6" on="1"/>
        <pt x="773" y="-6" on="0"/>
        <pt x="709" y="57" on="0"/>
        <pt x="677" y="128" on="1"/>
        <pt x="635" y="56" on="0"/>
        <pt x="531" y="-6" on="0"/>
        <pt x="470" y="-6" on="1"/>
        <pt x="429" y="-6" on="0"/>
        <pt x="353" y="43" on="0"/>
        <pt x="336" y="87" on="1"/>
        <pt x="328" y="70" on="0"/>
        <pt x="306" y="36" on="0"/>
        <pt x="274" y="10" on="0"/>
        <pt x="233" y="-6" on="0"/>
        <pt x="206" y="-6" on="1"/>
        <pt x="174" y="-6" on="0"/>
        <pt x="112" y="18" on="0"/>
        <pt x="61" y="72" on="0"/>
        <pt x="30" y="161" on="0"/>
        <pt x="30" y="226" on="1"/>
        <pt x="30" y="272" on="0"/>
        <pt x="51" y="370" on="0"/>
        <pt x="96" y="452" on="0"/>
        <pt x="169" y="505" on="0"/>
        <pt x="221" y="505" on="1"/>
        <pt x="233" y="505" on="0"/>
        <pt x="261" y="502" on="0"/>
        <pt x="287" y="491" on="0"/>
        <pt x="309" y="470" on="0"/>
        <pt x="315" y="452" on="1"/>
        <pt x="315" y="500" on="1"/>
      </contour>
      <contour>
        <pt x="266" y="443" on="1"/>
        <pt x="242" y="443" on="0"/>
        <pt x="207" y="402" on="0"/>
        <pt x="186" y="341" on="0"/>
        <pt x="176" y="268" on="0"/>
        <pt x="176" y="235" on="1"/>
        <pt x="176" y="182" on="0"/>
        <pt x="192" y="123" on="0"/>
        <pt x="215" y="96" on="0"/>
        <pt x="241" y="91" on="0"/>
        <pt x="250" y="91" on="1"/>
        <pt x="261" y="91" on="0"/>
        <pt x="284" y="102" on="0"/>
        <pt x="303" y="124" on="0"/>
        <pt x="315" y="157" on="0"/>
        <pt x="315" y="179" on="1"/>
        <pt x="315" y="405" on="1"/>
        <pt x="313" y="409" on="0"/>
        <pt x="307" y="422" on="0"/>
        <pt x="295" y="434" on="0"/>
        <pt x="278" y="443" on="0"/>
      </contour>
    </TTGlyph>
</ttFont>
